<svg xmlns="http://www.w3.org/2000/svg" width="500" height="501" fill="none" viewBox="0 0 500 501"><g clip-path="url(#a)"><path fill="#FFD1E6" d="m46.958 248.567-3.111 1.947 3.111 1.919c3.973 2.518 7.614 5.345 10.843 8.397 1.722 1.666 3.346 3.366 4.932 5.251 14.717 17.55 16.928 38.965 16.928 50.125v84.089c0 13.618 12.8 24.689 28.555 24.689h22.8v22.04h-22.8c-30.081 0-54.506-20.973-54.506-46.729l-.039-88.395c-.685-10.691-3.953-25.659-15.363-36.478-9.277-8.772-23.055-13.429-40.982-13.87v-22.104c17.888-.411 31.666-5.064 40.982-13.87 11.41-10.816 14.678-25.783 15.402-36.602v-88.271c0-25.753 24.425-46.73 54.506-46.73h22.8V76.05h-22.8c-15.755 0-28.555 11.072-28.555 24.656v84.088c0 11.194-2.21 32.58-16.928 50.126a64 64 0 0 1-4.932 5.251c-3.23 3.08-6.87 5.879-10.843 8.397m406.084 3.865 3.111-1.947-3.111-1.919c-3.973-2.518-7.613-5.345-10.843-8.397-1.722-1.666-3.346-3.366-4.932-5.251-14.717-17.55-16.928-38.965-16.928-50.126v-84.088c0-13.618-12.8-24.69-28.555-24.69h-22.8v-22.04h22.8c30.081 0 54.506 20.974 54.506 46.73l.039 88.395c.685 10.691 3.953 25.659 15.363 36.478 9.277 8.772 23.055 13.429 40.982 13.87v22.104c-17.888.411-31.666 5.064-40.982 13.87-11.41 10.816-14.678 25.783-15.402 36.602v88.271c0 25.753-24.425 46.729-54.506 46.729h-22.8V424.95h22.8c15.755 0 28.555-11.071 28.555-24.655v-84.088c0-11.195 2.211-32.58 16.928-50.126a64 64 0 0 1 4.932-5.251c3.23-3.08 6.87-5.879 10.843-8.397"/><path stroke="#EF60A3" stroke-linejoin="round" stroke-width="18" d="M251.423 195.637s19.17-41.768 59.994-37.005c40.825 4.763 58.93 48.73 47.215 87.567-9.334 30.317-68.345 79.476-94.618 100.206-7.426 5.858-17.747 5.845-25.161-.028-26.263-20.805-85.302-70.137-94.638-100.178-12.07-39.204 6.035-83.17 47.214-87.567 40.824-4.763 59.994 37.005 59.994 37.005Z"/></g><defs><clipPath id="a"><path fill="#fff" d="M0 .5h500v500H0z"/></clipPath></defs></svg>