<svg width="500" height="500" viewBox="0 0 500 500" fill="none" xmlns="http://www.w3.org/2000/svg">
<g clip-path="url(#clip0_5119_164)">
<path d="M46.9583 248.067L43.8466 250.014L46.9583 251.933C50.9312 254.451 54.5715 257.278 57.8007 260.33C59.523 261.996 61.1474 263.696 62.7326 265.581C77.4501 283.131 79.6614 304.546 79.6614 315.707L79.6614 399.795C79.6614 413.413 92.461 424.484 108.216 424.484H131.016V446.524H108.216C78.135 446.524 53.7104 425.551 53.7104 399.795L53.6713 311.4C52.9863 300.709 49.718 285.741 38.308 274.922C29.0314 266.15 15.2532 261.493 -2.67383 261.052L-2.67383 238.948C15.2141 238.537 28.9922 233.884 38.308 225.078C49.718 214.262 52.9863 199.295 53.7104 188.476L53.7104 100.205C53.7104 74.4523 78.135 53.476 108.216 53.476L131.016 53.476V75.5495H108.216C92.461 75.5495 79.6614 86.6209 79.6614 100.205L79.6614 184.293C79.6614 195.488 77.4501 216.873 62.7326 234.419C61.1474 236.307 59.523 238.034 57.8007 239.67C54.5715 242.75 50.9312 245.549 46.9583 248.067Z" fill="#BCEDC3"/>
<path d="M453.042 251.933L456.153 249.986L453.042 248.067C449.069 245.549 445.429 242.722 442.199 239.67C440.477 238.004 438.853 236.304 437.267 234.419C422.55 216.869 420.339 195.454 420.339 184.293L420.339 100.205C420.339 86.5871 407.539 75.5156 391.784 75.5156L368.984 75.5156L368.984 53.4759L391.784 53.4759C421.865 53.4759 446.29 74.4487 446.29 100.205L446.329 188.6C447.014 199.291 450.282 214.259 461.692 225.078C470.969 233.85 484.747 238.507 502.674 238.948L502.674 261.052C484.786 261.463 471.008 266.116 461.692 274.922C450.282 285.738 447.014 300.705 446.29 311.524L446.29 399.795C446.29 425.548 421.865 446.524 391.784 446.524L368.984 446.524L368.984 424.451L391.784 424.451C407.539 424.451 420.339 413.379 420.339 399.795L420.339 315.707C420.339 304.512 422.55 283.127 437.267 265.581C438.853 263.693 440.477 261.966 442.199 260.33C445.429 257.25 449.069 254.451 453.042 251.933Z" fill="#BCEDC3"/>
<path d="M306.813 310.924L367 250.336L306.813 189.748M193.187 189.081L133 249.669L193.187 310.257M280.078 171L219.922 329" stroke="#41B653" stroke-width="18" stroke-linecap="round" stroke-linejoin="round"/>
</g>
<defs>
<clipPath id="clip0_5119_164">
<rect width="500" height="500" fill="white"/>
</clipPath>
</defs>
</svg>
