<svg xmlns="http://www.w3.org/2000/svg" xmlns:xlink="http://www.w3.org/1999/xlink" width="500" zoomAndPan="magnify" viewBox="0 0 375 374.999991" height="500" preserveAspectRatio="xMidYMid meet" version="1.0"><path fill="#cecee8" d="M 90.003906 143.683594 C 90.003906 143.683594 35.765625 221.789062 32.691406 252.828125 C 29.621094 283.871094 39.855469 308.40625 85.394531 316.566406 C 85.394531 316.566406 157.039062 294.207031 204.625 299.378906 C 252.210938 304.554688 287.578125 312.886719 287.578125 312.886719 C 287.578125 312.886719 345.34375 297.832031 327.433594 245.070312 C 309.519531 192.308594 233.789062 89.375 233.789062 89.375 C 233.789062 89.375 210.757812 46.4375 179.550781 48.511719 C 148.332031 50.578125 90.003906 143.691406 90.003906 143.691406 Z M 90.003906 143.683594 " fill-opacity="1" fill-rule="nonzero"/><path stroke-linecap="round" transform="matrix(0.688659, 0, 0, 0.689046, 9.42341, 13.226667)" fill-opacity="1" fill="#95c1a6" fill-rule="nonzero" stroke-linejoin="round" d="M 403.970366 435.452178 C 403.970366 435.452178 364.667285 452.14191 295.981904 431.778623 C 227.290851 411.421005 179.728962 457.799638 110.379926 440.792439 C 110.379926 440.792439 111.077614 434.52812 113.30114 425.259197 C 114.821305 418.932518 117.050503 411.199912 120.261001 403.087478 C 122.399443 397.679189 124.968976 392.112165 128.049012 386.669862 C 135.281142 373.920131 145.309696 361.930056 159.172696 354.667982 C 162.110926 353.120327 165.219324 351.788096 168.509234 350.710973 C 218.368388 334.361386 341.218168 343.040726 341.218168 343.040726 C 341.218168 343.040726 357.508895 351.119146 373.680504 369.532274 C 378.819571 375.371412 383.94162 382.270666 388.530478 390.281057 C 395.581095 402.599938 401.372472 417.571943 403.959022 435.452178 Z M 403.970366 435.452178 " stroke="#102a45" stroke-width="3" stroke-opacity="1" stroke-miterlimit="4"/><path stroke-linecap="round" transform="matrix(0.688659, 0, 0, 0.689046, 9.42341, 13.226667)" fill-opacity="1" fill="#95c1a6" fill-rule="nonzero" stroke-linejoin="round" d="M 404.917633 252.732498 C 406.511538 266.740762 405.620993 277.971182 405.620993 277.971182 C 405.127507 285.890868 402.869948 293.340021 399.131929 300.278958 C 361.79145 369.668331 176.319934 387.809344 115.677816 317.218129 C 106.307245 306.310845 99.920281 293.277661 97.509571 277.98252 C 97.509571 277.98252 97.390454 276.559585 97.322387 274.087872 C 96.959362 261.9504 97.549277 224.477871 117.322771 207.419651 C 117.322771 205.41847 61.842408 155.377621 112.870048 113.330155 C 112.870048 113.330155 154.481738 83.312449 185.191347 108.828917 C 185.191347 108.828917 205.129336 86.742234 248.851107 86.078953 L 248.851107 85.812507 C 296.401651 86.549486 317.950562 108.828917 317.950562 108.828917 C 348.660171 83.312449 390.271861 113.330155 390.271861 113.330155 C 441.299501 155.377621 385.819138 205.41847 385.819138 207.419651 C 398.332141 218.219222 403.170578 237.187918 404.928978 252.749506 Z M 404.917633 252.732498 " stroke="#102a45" stroke-width="3" stroke-opacity="1" stroke-miterlimit="4"/><path stroke-linecap="round" transform="matrix(0.668723, -0.164594, 0.164502, 0.669099, -9.514701, 74.400209)" fill-opacity="1" fill="#102a45" fill-rule="nonzero" stroke-linejoin="round" d="M 383.419506 157.840209 C 383.421988 158.827454 383.372188 159.813514 383.270107 160.798389 C 383.173535 161.78462 383.021882 162.757301 382.823456 163.730152 C 382.626385 164.697498 382.383895 165.65951 382.087678 166.602467 C 381.795615 167.552284 381.451181 168.477542 381.068189 169.393315 C 380.67969 170.307734 380.244327 171.198947 379.766253 172.073817 C 379.289534 172.943181 378.771458 173.790696 378.206519 174.615006 C 377.642934 175.433812 377.044854 176.226618 376.401265 176.990715 C 375.757676 177.754811 375.075439 178.486049 374.360063 179.185781 C 373.644687 179.885514 372.897525 180.548238 372.111715 181.178102 C 371.32726 181.802461 370.516527 182.391166 369.674009 182.942861 C 368.832845 183.489051 367.965404 183.999587 367.068885 184.462104 C 366.176521 184.93148 365.260587 185.354192 364.326592 185.731595 C 363.392598 186.108998 362.440542 186.441091 361.470425 186.727875 C 360.500309 187.014659 359.517639 187.257489 358.523771 187.450859 C 357.529903 187.644229 356.530344 187.789495 355.519586 187.885301 C 354.514337 187.982462 353.503396 188.031519 352.48812 188.026966 C 351.476997 188.029274 350.467045 187.979326 349.456911 187.88263 C 348.452285 187.787288 347.447477 187.645197 346.45621 187.448056 C 345.463589 187.25642 344.483156 187.01524 343.513556 186.73002 C 342.543956 186.4448 341.592052 186.11139 340.650981 185.733941 C 339.716773 185.352341 338.804414 184.929412 337.908397 184.463799 C 337.017887 183.99954 336.149228 183.493951 335.303772 182.941528 C 334.463824 182.39046 333.649879 181.804922 332.870155 181.175259 C 332.083568 180.549746 331.335355 179.886969 330.620007 179.185571 C 329.903306 178.489679 329.224978 177.756521 328.583669 176.991604 C 327.936853 176.225331 327.336718 175.435514 326.773603 174.613937 C 326.210487 173.792359 325.688545 172.945882 325.214639 172.070354 C 324.733871 171.198977 324.299784 170.304055 323.916532 169.392447 C 323.527772 168.479484 323.18434 167.548481 322.891742 166.600793 C 322.597791 165.65861 322.354675 164.699742 322.155532 163.728339 C 321.955035 162.76244 321.810881 161.781211 321.707992 160.798458 C 321.610611 159.817058 321.561357 158.829984 321.56023 157.837235 C 321.557749 156.84999 321.607549 155.86393 321.709629 154.879054 C 321.810356 153.899684 321.957855 152.920143 322.154926 151.952797 C 322.353352 150.979945 322.599996 150.024794 322.892059 149.074976 C 323.188275 148.132019 323.528556 147.199901 323.917056 146.285483 C 324.298693 145.375215 324.73541 144.478496 325.212129 143.609132 C 325.690203 142.734263 326.208278 141.886748 326.771864 141.067942 C 327.336803 140.243632 327.940391 139.452181 328.578472 138.686729 C 329.222061 137.922632 329.904297 137.191395 330.619674 136.491662 C 331.33505 135.79193 332.08772 135.130561 332.866667 134.504847 C 333.652477 133.874983 334.46321 133.286278 335.304374 132.740088 C 336.146892 132.188393 337.014333 131.677857 337.910852 131.21534 C 338.803216 130.745963 339.717796 130.328756 340.653145 129.945849 C 341.587139 129.568446 342.544703 129.237707 343.509311 128.949568 C 344.479428 128.662784 345.460743 128.42546 346.454612 128.23209 C 347.44848 128.03872 348.448039 127.893454 349.458796 127.797648 C 350.464046 127.700486 351.474986 127.65143 352.491617 127.650477 C 353.50274 127.64817 354.512692 127.698117 355.522826 127.794814 C 356.527452 127.890156 357.530906 128.037752 358.523527 128.229388 C 359.516148 128.421024 360.496581 128.662204 361.466181 128.947424 C 362.439935 129.239504 363.391839 129.572914 364.327402 129.949008 C 365.262964 130.325102 366.175323 130.748031 367.07134 131.213645 C 367.96185 131.677904 368.829155 132.188997 369.675965 132.735915 C 370.515913 133.286984 371.328503 133.878027 372.109582 134.502184 C 372.896169 135.127697 373.644382 135.790475 374.35973 136.491873 C 375.075077 137.19327 375.754759 137.920923 376.401575 138.687195 C 377.042884 139.452112 377.643019 140.24193 378.20478 141.069012 C 378.767895 141.890589 379.289837 142.737067 379.770606 143.608444 C 380.245866 144.478467 380.679953 145.373389 381.063205 146.284997 C 381.451965 147.19796 381.795397 148.128962 382.087995 149.07665 C 382.380592 150.024338 382.63057 150.979057 382.824205 151.949105 C 383.023348 152.920508 383.174364 153.897587 383.271745 154.878986 C 383.367771 155.86589 383.417025 156.852965 383.419506 157.840209 Z M 383.419506 157.840209 " stroke="#102a45" stroke-width="3" stroke-opacity="1" stroke-miterlimit="4"/><path stroke-linecap="round" transform="matrix(0.668723, -0.164594, 0.164502, 0.669099, -13.529584, 41.298417)" fill-opacity="1" fill="#102a45" fill-rule="nonzero" stroke-linejoin="round" d="M 182.30079 157.838442 C 182.301917 158.831192 182.252117 159.817252 182.151391 160.796622 C 182.049311 161.781498 181.901811 162.761039 181.70474 163.728385 C 181.506314 164.701236 181.25967 165.656388 180.967607 166.606205 C 180.671391 167.549163 180.33111 168.48128 179.943965 169.390194 C 179.560974 170.305967 179.12561 171.197181 178.647537 172.07205 C 178.170818 172.941414 177.652742 173.788929 177.087803 174.61324 C 176.524217 175.432045 175.919276 176.229001 175.281195 176.994453 C 174.637606 177.758549 173.955369 178.489787 173.239993 179.189519 C 172.524616 179.889252 171.771946 180.550621 170.992999 181.176335 C 170.207189 181.806199 169.396457 182.394904 168.555293 182.941094 C 167.712774 183.492789 166.846687 183.99782 165.948815 184.465842 C 165.057804 184.929713 164.14187 185.352426 163.207876 185.729828 C 162.272527 186.112736 161.314963 186.443474 160.350355 186.731613 C 159.380238 187.018397 158.398923 187.255722 157.405055 187.449092 C 156.411187 187.642462 155.411628 187.787728 154.40087 187.883534 C 153.39562 187.980695 152.38468 188.029752 151.368049 188.030704 C 150.35828 188.027507 149.346975 187.983065 148.336841 187.886368 C 147.332215 187.791026 146.32876 187.64343 145.336139 187.451794 C 144.343518 187.260158 143.363085 187.018978 142.389331 186.726898 C 141.419732 186.441678 140.467827 186.108268 139.532265 185.732174 C 138.596702 185.356079 137.684343 184.93315 136.788326 184.467537 C 135.899171 183.997773 135.030511 183.492185 134.185055 182.939761 C 133.343753 182.394198 132.531163 181.803155 131.750084 181.178997 C 130.964851 180.54798 130.216638 179.885202 129.499937 179.189309 C 128.784589 178.487912 128.106261 177.754754 127.458091 176.993987 C 126.816782 176.22907 126.218002 175.433747 125.654886 174.61217 C 125.091771 173.790592 124.569829 172.944115 124.089061 172.072738 C 123.615154 171.19721 123.179713 170.307793 122.796461 169.396185 C 122.409056 168.477717 122.064269 167.552219 121.771672 166.604531 C 121.479075 165.656843 121.230451 164.69662 121.035461 163.732077 C 120.836319 162.760673 120.685303 161.783595 120.589276 160.796691 C 120.491895 159.815292 120.442641 158.828217 120.44016 157.840973 C 120.439033 156.848223 120.488833 155.862163 120.589559 154.882792 C 120.686131 153.896562 120.839138 152.918376 121.03621 151.95103 C 121.233282 150.983683 121.475772 150.021672 121.771988 149.078715 C 122.064051 148.128897 122.40984 147.198135 122.791477 146.287866 C 123.179976 145.373448 123.615339 144.482234 124.093413 143.607365 C 124.570132 142.738001 125.088208 141.890486 125.653147 141.066175 C 126.216733 140.24737 126.816166 139.449059 127.459755 138.684962 C 128.103344 137.920866 128.785581 137.189628 129.499603 136.4954 C 130.21498 135.795668 130.963496 135.127439 131.747951 134.50308 C 132.532406 133.878721 133.344493 133.284511 134.185657 132.738321 C 135.028175 132.186626 135.894263 131.681595 136.792135 131.213573 C 137.683146 130.749702 138.599079 130.326989 139.533074 129.949587 C 140.468423 129.566679 141.420478 129.234585 142.390595 128.947801 C 143.360712 128.661017 144.342027 128.423693 145.335895 128.230323 C 146.329763 128.036953 147.329322 127.891687 148.34008 127.795881 C 149.34533 127.698719 150.35627 127.649663 151.372901 127.64871 C 152.38267 127.651908 153.393975 127.69635 154.402755 127.798552 C 155.407381 127.893894 156.41219 128.035985 157.404811 128.227621 C 158.396077 128.424762 159.377865 128.660437 160.346111 128.951162 C 161.31571 129.236382 162.267614 129.569792 163.208685 129.947241 C 164.142894 130.32884 165.056607 130.746265 165.95127 131.217383 C 166.841779 131.681642 167.710439 132.18723 168.555895 132.739654 C 169.397197 133.285217 170.209787 133.87626 170.990866 134.500418 C 171.776099 135.131435 172.524312 135.794213 173.241013 136.490106 C 173.956361 137.191503 174.634689 137.924661 175.275997 138.689578 C 175.924167 139.450345 176.522948 140.245668 177.086064 141.067245 C 177.649179 141.888822 178.171121 142.7353 178.646381 143.605322 C 179.125796 144.482205 179.561237 145.371622 179.943134 146.288735 C 180.331894 147.201698 180.675327 148.1327 180.969278 149.074883 C 181.261875 150.022571 181.504991 150.98144 181.705488 151.947338 C 181.904631 152.918742 182.050139 153.894465 182.151674 154.882724 C 182.249055 155.864123 182.298309 156.851198 182.30079 157.838442 Z M 182.30079 157.838442 " stroke="#102a45" stroke-width="3" stroke-opacity="1" stroke-miterlimit="4"/><path fill="#fffffa" d="M 110.527344 114.183594 C 110.644531 114.539062 110.722656 114.902344 110.769531 115.273438 C 110.816406 115.640625 110.828125 116.011719 110.808594 116.382812 C 110.785156 116.75 110.726562 117.113281 110.632812 117.472656 C 110.542969 117.828125 110.417969 118.167969 110.257812 118.5 C 110.101562 118.828125 109.914062 119.136719 109.695312 119.425781 C 109.476562 119.714844 109.234375 119.976562 108.964844 120.214844 C 108.699219 120.449219 108.410156 120.65625 108.097656 120.835938 C 107.789062 121.011719 107.464844 121.15625 107.125 121.265625 C 106.789062 121.375 106.441406 121.449219 106.085938 121.488281 C 105.734375 121.527344 105.378906 121.527344 105.019531 121.496094 C 104.664062 121.460938 104.3125 121.390625 103.96875 121.285156 C 103.621094 121.179688 103.289062 121.039062 102.96875 120.867188 C 102.648438 120.691406 102.34375 120.488281 102.0625 120.253906 C 101.777344 120.019531 101.515625 119.761719 101.28125 119.472656 C 101.046875 119.1875 100.839844 118.882812 100.660156 118.554688 C 100.480469 118.226562 100.332031 117.886719 100.21875 117.53125 C 100.101562 117.175781 100.023438 116.816406 99.976562 116.445312 C 99.929688 116.074219 99.914062 115.707031 99.9375 115.335938 C 99.960938 114.964844 100.019531 114.601562 100.113281 114.246094 C 100.203125 113.890625 100.328125 113.546875 100.488281 113.21875 C 100.644531 112.890625 100.832031 112.582031 101.050781 112.292969 C 101.269531 112.003906 101.511719 111.742188 101.78125 111.503906 C 102.046875 111.265625 102.335938 111.058594 102.648438 110.882812 C 102.957031 110.703125 103.28125 110.5625 103.621094 110.453125 C 103.957031 110.339844 104.304688 110.265625 104.660156 110.230469 C 105.011719 110.191406 105.367188 110.1875 105.726562 110.222656 C 106.082031 110.257812 106.433594 110.328125 106.777344 110.433594 C 107.125 110.539062 107.457031 110.679688 107.777344 110.851562 C 108.097656 111.023438 108.402344 111.230469 108.683594 111.460938 C 108.96875 111.695312 109.230469 111.957031 109.464844 112.242188 C 109.699219 112.527344 109.90625 112.835938 110.085938 113.160156 C 110.265625 113.488281 110.414062 113.828125 110.527344 114.183594 Z M 110.527344 114.183594 " fill-opacity="1" fill-rule="nonzero"/><path fill="#fffffa" d="M 249.03125 114.191406 C 249.144531 114.542969 249.226562 114.90625 249.273438 115.277344 C 249.320312 115.644531 249.332031 116.015625 249.308594 116.386719 C 249.285156 116.757812 249.226562 117.121094 249.136719 117.476562 C 249.042969 117.832031 248.917969 118.175781 248.761719 118.503906 C 248.601562 118.832031 248.414062 119.140625 248.195312 119.429688 C 247.980469 119.71875 247.738281 119.980469 247.46875 120.21875 C 247.199219 120.457031 246.910156 120.664062 246.601562 120.839844 C 246.289062 121.015625 245.96875 121.160156 245.628906 121.269531 C 245.289062 121.378906 244.945312 121.453125 244.589844 121.492188 C 244.234375 121.53125 243.878906 121.535156 243.523438 121.5 C 243.164062 121.464844 242.8125 121.394531 242.46875 121.289062 C 242.125 121.183594 241.789062 121.042969 241.46875 120.871094 C 241.148438 120.699219 240.847656 120.492188 240.5625 120.257812 C 240.277344 120.023438 240.019531 119.765625 239.785156 119.480469 C 239.546875 119.195312 239.339844 118.886719 239.160156 118.558594 C 238.980469 118.234375 238.835938 117.894531 238.71875 117.539062 C 238.605469 117.183594 238.523438 116.820312 238.476562 116.449219 C 238.429688 116.082031 238.417969 115.710938 238.441406 115.339844 C 238.464844 114.972656 238.523438 114.609375 238.613281 114.25 C 238.707031 113.894531 238.832031 113.550781 238.988281 113.222656 C 239.148438 112.894531 239.335938 112.585938 239.550781 112.296875 C 239.769531 112.007812 240.011719 111.746094 240.28125 111.507812 C 240.550781 111.269531 240.839844 111.0625 241.148438 110.886719 C 241.457031 110.710938 241.78125 110.566406 242.121094 110.457031 C 242.460938 110.347656 242.804688 110.273438 243.160156 110.234375 C 243.515625 110.195312 243.871094 110.191406 244.226562 110.226562 C 244.585938 110.261719 244.933594 110.332031 245.28125 110.4375 C 245.625 110.542969 245.960938 110.683594 246.28125 110.855469 C 246.601562 111.03125 246.902344 111.234375 247.1875 111.46875 C 247.46875 111.703125 247.730469 111.960938 247.964844 112.246094 C 248.203125 112.535156 248.410156 112.839844 248.589844 113.167969 C 248.769531 113.492188 248.914062 113.835938 249.03125 114.191406 Z M 249.03125 114.191406 " fill-opacity="1" fill-rule="nonzero"/><path stroke-linecap="round" transform="matrix(0.688659, 0, 0, 0.689046, 9.42341, 13.226667)" fill="none" stroke-linejoin="round" d="M 166.529616 229.262564 C 166.529616 229.262564 185.679161 224.591253 190.971378 209.908371 " stroke="#102a45" stroke-width="3" stroke-opacity="1" stroke-miterlimit="4"/><path stroke-linecap="round" transform="matrix(0.688659, 0, 0, 0.689046, 9.42341, 13.226667)" fill="none" stroke-linejoin="round" d="M 333.299695 221.921123 C 333.299695 221.921123 314.150149 217.249812 308.857932 202.572599 " stroke="#102a45" stroke-width="3" stroke-opacity="1" stroke-miterlimit="4"/><path stroke-linecap="round" transform="matrix(0.688659, 0, 0, 0.689046, 9.42341, 13.226667)" fill-opacity="1" fill="#fffffa" fill-rule="nonzero" stroke-linejoin="round" d="M 182.377906 222.249928 C 182.377906 222.249928 232.248405 261.292789 317.780395 214.908487 C 317.780395 214.908487 315.142794 266.621711 254.699205 268.288417 C 194.261288 269.960791 182.377906 222.249928 182.377906 222.249928 Z M 182.377906 222.249928 " stroke="#102a45" stroke-width="3" stroke-opacity="1" stroke-miterlimit="4"/><path stroke-linecap="round" transform="matrix(0.688659, 0, 0, 0.689046, 9.42341, 13.226667)" fill="none" stroke-linejoin="round" d="M 190.392808 238.93966 C 190.392808 238.93966 254.789961 279.978032 314.47914 228.928089 " stroke="#102a45" stroke-width="3" stroke-opacity="1" stroke-miterlimit="4"/><path stroke-linecap="round" transform="matrix(0.688659, 0, 0, 0.689046, 9.42341, 13.226667)" fill="none" stroke-linejoin="round" d="M 298.13169 127.831627 C 298.13169 127.831627 305.068863 114.571681 317.939218 108.811909 " stroke="#102a45" stroke-width="3" stroke-opacity="1" stroke-miterlimit="4"/><path stroke-linecap="round" transform="matrix(0.688659, 0, 0, 0.689046, 9.42341, 13.226667)" fill="none" stroke-linejoin="round" d="M 185.191347 108.817579 C 185.191347 108.817579 198.067374 118.579711 204.011901 132.089096 " stroke="#102a45" stroke-width="3" stroke-opacity="1" stroke-miterlimit="4"/><path fill="#fef0c1" d="M 142.15625 313.375 C 142.15625 313.375 145.707031 276.703125 186.414062 275.789062 C 227.121094 274.871094 233.265625 314.410156 233.265625 314.410156 C 233.265625 314.410156 223.769531 312.4375 208.472656 308.433594 C 191.808594 304.066406 179.417969 304.238281 142.148438 313.375 Z M 142.15625 313.375 " fill-opacity="1" fill-rule="nonzero"/><path fill="#fef0c1" d="M 275.617188 282.121094 C 273.945312 284.492188 271.210938 286.035156 268.109375 286.035156 C 263.027344 286.035156 258.898438 281.859375 258.898438 276.71875 C 258.898438 272.535156 261.632812 268.992188 265.390625 267.816406 C 268.929688 271.839844 272.457031 276.59375 275.617188 282.113281 Z M 275.617188 282.121094 " fill-opacity="1" fill-rule="nonzero"/><path fill="#fef0c1" d="M 287.632812 204.375 C 287.296875 209.832031 285.742188 214.964844 283.164062 219.746094 C 282.835938 219.773438 282.511719 219.78125 282.171875 219.78125 C 273.007812 219.78125 265.570312 212.273438 265.570312 203.003906 C 265.570312 193.734375 273.007812 186.226562 282.171875 186.226562 C 283.910156 186.226562 285.582031 186.496094 287.152344 186.996094 C 288.246094 196.652344 287.632812 204.390625 287.632812 204.390625 Z M 287.632812 204.375 " fill-opacity="1" fill-rule="nonzero"/><path fill="#fef0c1" d="M 128.4375 273.300781 C 128.4375 282.691406 121.433594 290.3125 112.804688 290.3125 C 106.441406 290.3125 100.960938 286.171875 98.527344 280.238281 C 103.507812 271.453125 110.414062 263.191406 119.960938 258.191406 C 124.992188 261.007812 128.4375 266.71875 128.4375 273.300781 Z M 128.4375 273.300781 " fill-opacity="1" fill-rule="nonzero"/><path fill="#fef0c1" d="M 102.957031 214.792969 C 102.957031 223.125 97.421875 230.050781 90.128906 231.453125 C 83.675781 223.9375 79.273438 214.957031 77.613281 204.417969 C 77.613281 204.417969 77.53125 203.4375 77.484375 201.734375 C 80.175781 199.324219 83.625 197.863281 87.394531 197.863281 C 95.996094 197.863281 102.957031 205.441406 102.957031 214.792969 Z M 102.957031 214.792969 " fill-opacity="1" fill-rule="nonzero"/><path fill="#fef0c1" d="M 170.4375 88.925781 C 170.4375 89.484375 170.386719 90.042969 170.289062 90.589844 C 170.1875 91.140625 170.039062 91.675781 169.839844 92.191406 C 169.644531 92.710938 169.402344 93.203125 169.117188 93.667969 C 168.832031 94.132812 168.503906 94.566406 168.140625 94.960938 C 167.777344 95.359375 167.382812 95.710938 166.953125 96.023438 C 166.523438 96.335938 166.074219 96.597656 165.597656 96.8125 C 165.121094 97.027344 164.628906 97.1875 164.125 97.296875 C 163.621094 97.40625 163.109375 97.460938 162.59375 97.460938 C 162.078125 97.460938 161.570312 97.40625 161.066406 97.296875 C 160.558594 97.1875 160.070312 97.027344 159.59375 96.8125 C 159.117188 96.597656 158.664062 96.335938 158.238281 96.023438 C 157.808594 95.710938 157.414062 95.359375 157.046875 94.960938 C 156.683594 94.566406 156.359375 94.132812 156.074219 93.667969 C 155.785156 93.203125 155.546875 92.710938 155.347656 92.191406 C 155.152344 91.675781 155.003906 91.140625 154.902344 90.589844 C 154.800781 90.042969 154.75 89.484375 154.75 88.925781 C 154.75 88.363281 154.800781 87.808594 154.902344 87.257812 C 155.003906 86.710938 155.152344 86.175781 155.347656 85.660156 C 155.546875 85.140625 155.785156 84.648438 156.074219 84.183594 C 156.359375 83.714844 156.683594 83.285156 157.046875 82.886719 C 157.414062 82.492188 157.808594 82.136719 158.238281 81.828125 C 158.664062 81.515625 159.117188 81.253906 159.59375 81.039062 C 160.070312 80.824219 160.558594 80.660156 161.066406 80.550781 C 161.570312 80.441406 162.078125 80.386719 162.59375 80.386719 C 163.109375 80.386719 163.621094 80.441406 164.125 80.550781 C 164.628906 80.660156 165.121094 80.824219 165.597656 81.039062 C 166.074219 81.253906 166.523438 81.515625 166.953125 81.828125 C 167.382812 82.136719 167.777344 82.492188 168.140625 82.886719 C 168.503906 83.285156 168.832031 83.714844 169.117188 84.183594 C 169.402344 84.648438 169.644531 85.140625 169.839844 85.660156 C 170.039062 86.175781 170.1875 86.710938 170.289062 87.257812 C 170.386719 87.808594 170.4375 88.363281 170.4375 88.925781 Z M 170.4375 88.925781 " fill-opacity="1" fill-rule="nonzero"/><path fill="#fef0c1" d="M 266.128906 304.507812 C 266.128906 305.066406 266.078125 305.621094 265.976562 306.171875 C 265.875 306.722656 265.726562 307.257812 265.53125 307.773438 C 265.332031 308.292969 265.09375 308.785156 264.804688 309.25 C 264.519531 309.714844 264.195312 310.148438 263.832031 310.542969 C 263.464844 310.941406 263.070312 311.292969 262.640625 311.605469 C 262.214844 311.917969 261.761719 312.179688 261.285156 312.394531 C 260.808594 312.609375 260.320312 312.769531 259.8125 312.878906 C 259.308594 312.988281 258.800781 313.042969 258.285156 313.042969 C 257.769531 313.042969 257.257812 312.988281 256.753906 312.878906 C 256.25 312.769531 255.757812 312.609375 255.28125 312.394531 C 254.804688 312.179688 254.355469 311.917969 253.925781 311.605469 C 253.496094 311.292969 253.101562 310.941406 252.738281 310.542969 C 252.375 310.148438 252.046875 309.714844 251.761719 309.25 C 251.476562 308.785156 251.234375 308.292969 251.039062 307.773438 C 250.839844 307.257812 250.691406 306.722656 250.589844 306.171875 C 250.492188 305.621094 250.441406 305.066406 250.441406 304.507812 C 250.441406 303.945312 250.492188 303.390625 250.589844 302.839844 C 250.691406 302.292969 250.839844 301.757812 251.039062 301.238281 C 251.234375 300.722656 251.476562 300.230469 251.761719 299.765625 C 252.046875 299.296875 252.375 298.867188 252.738281 298.46875 C 253.101562 298.074219 253.496094 297.71875 253.925781 297.410156 C 254.355469 297.097656 254.804688 296.835938 255.28125 296.621094 C 255.757812 296.40625 256.25 296.242188 256.753906 296.132812 C 257.257812 296.023438 257.769531 295.96875 258.285156 295.96875 C 258.800781 295.96875 259.308594 296.023438 259.8125 296.132812 C 260.320312 296.242188 260.808594 296.40625 261.285156 296.621094 C 261.761719 296.835938 262.214844 297.097656 262.640625 297.410156 C 263.070312 297.71875 263.464844 298.074219 263.832031 298.46875 C 264.195312 298.867188 264.519531 299.296875 264.804688 299.765625 C 265.09375 300.230469 265.332031 300.722656 265.53125 301.238281 C 265.726562 301.757812 265.875 302.292969 265.976562 302.839844 C 266.078125 303.390625 266.128906 303.945312 266.128906 304.507812 Z M 266.128906 304.507812 " fill-opacity="1" fill-rule="nonzero"/><path fill="#fef0c1" d="M 273.863281 173.925781 C 273.863281 174.488281 273.8125 175.042969 273.710938 175.589844 C 273.609375 176.140625 273.460938 176.675781 273.265625 177.191406 C 273.066406 177.710938 272.824219 178.203125 272.539062 178.667969 C 272.253906 179.136719 271.929688 179.566406 271.5625 179.960938 C 271.199219 180.359375 270.804688 180.714844 270.375 181.023438 C 269.945312 181.335938 269.496094 181.597656 269.019531 181.8125 C 268.542969 182.027344 268.054688 182.191406 267.546875 182.300781 C 267.042969 182.410156 266.53125 182.464844 266.019531 182.464844 C 265.503906 182.464844 264.992188 182.410156 264.488281 182.300781 C 263.980469 182.191406 263.492188 182.027344 263.015625 181.8125 C 262.539062 181.597656 262.089844 181.335938 261.660156 181.023438 C 261.230469 180.714844 260.835938 180.359375 260.472656 179.960938 C 260.105469 179.566406 259.78125 179.136719 259.496094 178.667969 C 259.210938 178.203125 258.96875 177.710938 258.769531 177.191406 C 258.574219 176.675781 258.425781 176.140625 258.324219 175.589844 C 258.222656 175.042969 258.171875 174.488281 258.171875 173.925781 C 258.171875 173.367188 258.222656 172.808594 258.324219 172.261719 C 258.425781 171.710938 258.574219 171.175781 258.769531 170.660156 C 258.96875 170.140625 259.210938 169.648438 259.496094 169.183594 C 259.78125 168.71875 260.105469 168.285156 260.472656 167.890625 C 260.835938 167.492188 261.230469 167.140625 261.660156 166.828125 C 262.089844 166.515625 262.539062 166.253906 263.015625 166.039062 C 263.492188 165.824219 263.980469 165.664062 264.488281 165.554688 C 264.992188 165.445312 265.503906 165.390625 266.019531 165.390625 C 266.53125 165.390625 267.042969 165.445312 267.546875 165.554688 C 268.054688 165.664062 268.542969 165.824219 269.019531 166.039062 C 269.496094 166.253906 269.945312 166.515625 270.375 166.828125 C 270.804688 167.140625 271.199219 167.492188 271.5625 167.890625 C 271.929688 168.285156 272.253906 168.71875 272.539062 169.183594 C 272.824219 169.648438 273.066406 170.140625 273.265625 170.660156 C 273.460938 171.175781 273.609375 171.710938 273.710938 172.261719 C 273.8125 172.808594 273.863281 173.367188 273.863281 173.925781 Z M 273.863281 173.925781 " fill-opacity="1" fill-rule="nonzero"/><path fill="#fef0c1" d="M 101.167969 299.671875 C 101.167969 304.382812 97.65625 308.207031 93.324219 308.207031 C 91.503906 308.207031 89.839844 307.539062 88.507812 306.410156 C 89.554688 302.046875 91.089844 296.722656 93.300781 291.132812 L 93.328125 291.132812 C 97.660156 291.132812 101.171875 294.957031 101.171875 299.671875 Z M 101.167969 299.671875 " fill-opacity="1" fill-rule="nonzero"/><path fill="#fef0c1" d="M 118.371094 304.742188 C 118.371094 305.082031 118.339844 305.421875 118.277344 305.753906 C 118.214844 306.089844 118.125 306.414062 118.003906 306.730469 C 117.886719 307.042969 117.738281 307.34375 117.5625 307.628906 C 117.390625 307.910156 117.191406 308.175781 116.96875 308.414062 C 116.746094 308.65625 116.507812 308.871094 116.246094 309.0625 C 115.984375 309.25 115.707031 309.410156 115.417969 309.542969 C 115.128906 309.671875 114.828125 309.769531 114.523438 309.835938 C 114.214844 309.902344 113.902344 309.9375 113.589844 309.9375 C 113.277344 309.9375 112.964844 309.902344 112.65625 309.835938 C 112.351562 309.769531 112.050781 309.671875 111.761719 309.542969 C 111.472656 309.410156 111.195312 309.25 110.933594 309.0625 C 110.671875 308.871094 110.433594 308.65625 110.210938 308.414062 C 109.988281 308.175781 109.789062 307.910156 109.617188 307.628906 C 109.441406 307.34375 109.292969 307.042969 109.175781 306.730469 C 109.054688 306.414062 108.964844 306.089844 108.902344 305.753906 C 108.839844 305.421875 108.8125 305.082031 108.8125 304.742188 C 108.8125 304.398438 108.839844 304.0625 108.902344 303.726562 C 108.964844 303.394531 109.054688 303.070312 109.175781 302.753906 C 109.292969 302.4375 109.441406 302.140625 109.617188 301.855469 C 109.789062 301.570312 109.988281 301.308594 110.210938 301.066406 C 110.433594 300.828125 110.671875 300.609375 110.933594 300.421875 C 111.195312 300.230469 111.472656 300.070312 111.761719 299.941406 C 112.050781 299.8125 112.351562 299.710938 112.65625 299.644531 C 112.964844 299.578125 113.277344 299.546875 113.589844 299.546875 C 113.902344 299.546875 114.214844 299.578125 114.523438 299.644531 C 114.828125 299.710938 115.128906 299.8125 115.417969 299.941406 C 115.707031 300.070312 115.984375 300.230469 116.246094 300.421875 C 116.507812 300.609375 116.746094 300.828125 116.96875 301.066406 C 117.191406 301.308594 117.390625 301.570312 117.5625 301.855469 C 117.738281 302.140625 117.886719 302.4375 118.003906 302.753906 C 118.125 303.070312 118.214844 303.394531 118.277344 303.726562 C 118.339844 304.0625 118.371094 304.398438 118.371094 304.742188 Z M 118.371094 304.742188 " fill-opacity="1" fill-rule="nonzero"/><path fill="#fef0c1" d="M 102.503906 183.152344 C 102.503906 183.492188 102.472656 183.832031 102.410156 184.164062 C 102.347656 184.5 102.257812 184.824219 102.140625 185.140625 C 102.019531 185.457031 101.871094 185.753906 101.695312 186.039062 C 101.523438 186.324219 101.324219 186.585938 101.101562 186.824219 C 100.878906 187.066406 100.640625 187.28125 100.378906 187.472656 C 100.117188 187.660156 99.84375 187.820312 99.550781 187.953125 C 99.261719 188.082031 98.964844 188.179688 98.65625 188.246094 C 98.347656 188.316406 98.035156 188.347656 97.722656 188.347656 C 97.410156 188.347656 97.097656 188.316406 96.789062 188.246094 C 96.484375 188.179688 96.183594 188.082031 95.894531 187.953125 C 95.605469 187.820312 95.328125 187.660156 95.066406 187.472656 C 94.808594 187.28125 94.566406 187.066406 94.34375 186.824219 C 94.121094 186.585938 93.921875 186.324219 93.75 186.039062 C 93.574219 185.753906 93.429688 185.457031 93.308594 185.140625 C 93.1875 184.824219 93.097656 184.5 93.035156 184.164062 C 92.972656 183.832031 92.945312 183.492188 92.945312 183.152344 C 92.945312 182.8125 92.972656 182.472656 93.035156 182.140625 C 93.097656 181.804688 93.1875 181.480469 93.308594 181.164062 C 93.429688 180.847656 93.574219 180.550781 93.75 180.265625 C 93.921875 179.980469 94.121094 179.71875 94.34375 179.480469 C 94.566406 179.238281 94.808594 179.023438 95.066406 178.832031 C 95.328125 178.644531 95.605469 178.484375 95.894531 178.351562 C 96.183594 178.222656 96.484375 178.125 96.789062 178.058594 C 97.097656 177.992188 97.410156 177.957031 97.722656 177.957031 C 98.035156 177.957031 98.347656 177.992188 98.65625 178.058594 C 98.964844 178.125 99.261719 178.222656 99.550781 178.351562 C 99.84375 178.484375 100.117188 178.644531 100.378906 178.832031 C 100.640625 179.023438 100.878906 179.238281 101.101562 179.480469 C 101.324219 179.71875 101.523438 179.980469 101.695312 180.265625 C 101.871094 180.550781 102.019531 180.847656 102.140625 181.164062 C 102.257812 181.480469 102.347656 181.804688 102.410156 182.140625 C 102.472656 182.472656 102.503906 182.8125 102.503906 183.152344 Z M 102.503906 183.152344 " fill-opacity="1" fill-rule="nonzero"/><path fill="#fef0c1" d="M 208.597656 85.21875 C 208.597656 85.558594 208.566406 85.898438 208.503906 86.230469 C 208.445312 86.566406 208.355469 86.890625 208.234375 87.207031 C 208.113281 87.523438 207.964844 87.820312 207.792969 88.105469 C 207.617188 88.386719 207.417969 88.652344 207.199219 88.890625 C 206.976562 89.132812 206.734375 89.347656 206.472656 89.539062 C 206.210938 89.726562 205.9375 89.886719 205.648438 90.019531 C 205.355469 90.148438 205.058594 90.246094 204.75 90.3125 C 204.441406 90.378906 204.132812 90.414062 203.816406 90.414062 C 203.503906 90.414062 203.191406 90.378906 202.886719 90.3125 C 202.578125 90.246094 202.277344 90.148438 201.988281 90.019531 C 201.699219 89.886719 201.421875 89.726562 201.164062 89.539062 C 200.902344 89.347656 200.660156 89.132812 200.4375 88.890625 C 200.214844 88.652344 200.019531 88.386719 199.84375 88.105469 C 199.667969 87.820312 199.523438 87.523438 199.402344 87.207031 C 199.28125 86.890625 199.191406 86.566406 199.128906 86.230469 C 199.070312 85.898438 199.039062 85.558594 199.039062 85.21875 C 199.039062 84.878906 199.070312 84.539062 199.128906 84.203125 C 199.191406 83.871094 199.28125 83.546875 199.402344 83.230469 C 199.523438 82.914062 199.667969 82.617188 199.84375 82.332031 C 200.019531 82.046875 200.214844 81.785156 200.4375 81.542969 C 200.660156 81.304688 200.902344 81.089844 201.164062 80.898438 C 201.421875 80.707031 201.699219 80.550781 201.988281 80.417969 C 202.277344 80.289062 202.578125 80.1875 202.886719 80.121094 C 203.191406 80.054688 203.503906 80.023438 203.816406 80.023438 C 204.132812 80.023438 204.441406 80.054688 204.75 80.121094 C 205.058594 80.1875 205.355469 80.289062 205.648438 80.417969 C 205.9375 80.550781 206.210938 80.707031 206.472656 80.898438 C 206.734375 81.089844 206.976562 81.304688 207.199219 81.542969 C 207.417969 81.785156 207.617188 82.046875 207.792969 82.332031 C 207.964844 82.617188 208.113281 82.914062 208.234375 83.230469 C 208.355469 83.546875 208.445312 83.871094 208.503906 84.203125 C 208.566406 84.539062 208.597656 84.878906 208.597656 85.21875 Z M 208.597656 85.21875 " fill-opacity="1" fill-rule="nonzero"/><path fill="#fef0c1" d="M 244.929688 269.394531 C 244.929688 269.734375 244.898438 270.074219 244.839844 270.40625 C 244.777344 270.742188 244.6875 271.066406 244.566406 271.382812 C 244.445312 271.695312 244.300781 271.996094 244.125 272.28125 C 243.949219 272.5625 243.753906 272.824219 243.53125 273.066406 C 243.308594 273.308594 243.066406 273.523438 242.808594 273.714844 C 242.546875 273.902344 242.269531 274.0625 241.980469 274.191406 C 241.691406 274.324219 241.390625 274.421875 241.082031 274.488281 C 240.777344 274.554688 240.464844 274.589844 240.152344 274.589844 C 239.835938 274.589844 239.527344 274.554688 239.21875 274.488281 C 238.910156 274.421875 238.613281 274.324219 238.324219 274.191406 C 238.03125 274.0625 237.757812 273.902344 237.496094 273.714844 C 237.234375 273.523438 236.992188 273.308594 236.773438 273.066406 C 236.550781 272.824219 236.351562 272.5625 236.175781 272.28125 C 236.003906 271.996094 235.855469 271.695312 235.734375 271.382812 C 235.617188 271.066406 235.523438 270.742188 235.464844 270.40625 C 235.402344 270.074219 235.371094 269.734375 235.371094 269.394531 C 235.371094 269.050781 235.402344 268.714844 235.464844 268.378906 C 235.523438 268.046875 235.617188 267.71875 235.734375 267.40625 C 235.855469 267.089844 236.003906 266.789062 236.179688 266.507812 C 236.351562 266.222656 236.550781 265.960938 236.773438 265.71875 C 236.992188 265.476562 237.234375 265.261719 237.496094 265.074219 C 237.757812 264.882812 238.03125 264.722656 238.324219 264.59375 C 238.613281 264.464844 238.910156 264.363281 239.21875 264.296875 C 239.527344 264.230469 239.835938 264.199219 240.152344 264.199219 C 240.464844 264.199219 240.777344 264.230469 241.082031 264.296875 C 241.390625 264.363281 241.691406 264.464844 241.980469 264.59375 C 242.269531 264.722656 242.546875 264.882812 242.808594 265.074219 C 243.066406 265.261719 243.308594 265.476562 243.53125 265.71875 C 243.753906 265.960938 243.949219 266.222656 244.125 266.507812 C 244.300781 266.789062 244.445312 267.089844 244.566406 267.40625 C 244.6875 267.71875 244.777344 268.046875 244.839844 268.378906 C 244.898438 268.714844 244.929688 269.050781 244.929688 269.394531 Z M 244.929688 269.394531 " fill-opacity="1" fill-rule="nonzero"/><path fill="#fef0c1" d="M 261.6875 227.546875 C 261.6875 228.015625 261.644531 228.476562 261.558594 228.933594 C 261.476562 229.390625 261.351562 229.832031 261.1875 230.261719 C 261.023438 230.695312 260.824219 231.101562 260.585938 231.492188 C 260.347656 231.878906 260.078125 232.238281 259.773438 232.566406 C 259.46875 232.894531 259.140625 233.191406 258.785156 233.449219 C 258.429688 233.707031 258.050781 233.925781 257.65625 234.105469 C 257.257812 234.28125 256.851562 234.417969 256.429688 234.507812 C 256.011719 234.597656 255.585938 234.644531 255.15625 234.644531 C 254.730469 234.644531 254.304688 234.597656 253.882812 234.507812 C 253.464844 234.417969 253.054688 234.28125 252.660156 234.105469 C 252.261719 233.925781 251.886719 233.707031 251.53125 233.449219 C 251.175781 233.191406 250.84375 232.894531 250.542969 232.566406 C 250.238281 232.238281 249.96875 231.878906 249.730469 231.492188 C 249.492188 231.101562 249.289062 230.695312 249.125 230.261719 C 248.960938 229.832031 248.839844 229.390625 248.753906 228.933594 C 248.671875 228.476562 248.628906 228.015625 248.628906 227.546875 C 248.628906 227.082031 248.671875 226.621094 248.753906 226.164062 C 248.839844 225.707031 248.960938 225.261719 249.125 224.832031 C 249.289062 224.402344 249.492188 223.992188 249.730469 223.605469 C 249.96875 223.21875 250.238281 222.859375 250.542969 222.527344 C 250.84375 222.199219 251.175781 221.90625 251.53125 221.648438 C 251.886719 221.386719 252.261719 221.167969 252.660156 220.992188 C 253.054688 220.8125 253.464844 220.679688 253.882812 220.585938 C 254.304688 220.496094 254.730469 220.449219 255.15625 220.449219 C 255.585938 220.449219 256.011719 220.496094 256.429688 220.585938 C 256.851562 220.679688 257.257812 220.8125 257.65625 220.992188 C 258.050781 221.167969 258.429688 221.386719 258.785156 221.648438 C 259.140625 221.90625 259.46875 222.199219 259.773438 222.527344 C 260.078125 222.859375 260.347656 223.21875 260.585938 223.605469 C 260.824219 223.992188 261.023438 224.402344 261.1875 224.832031 C 261.351562 225.261719 261.476562 225.707031 261.558594 226.164062 C 261.644531 226.621094 261.6875 227.082031 261.6875 227.546875 Z M 261.6875 227.546875 " fill-opacity="1" fill-rule="nonzero"/><path fill="#fef0c1" d="M 128.871094 236.058594 C 128.871094 236.523438 128.828125 236.984375 128.746094 237.441406 C 128.664062 237.898438 128.539062 238.34375 128.375 238.773438 C 128.210938 239.203125 128.007812 239.613281 127.769531 240 C 127.53125 240.386719 127.261719 240.746094 126.960938 241.074219 C 126.65625 241.40625 126.328125 241.699219 125.96875 241.957031 C 125.613281 242.21875 125.238281 242.4375 124.839844 242.613281 C 124.445312 242.792969 124.035156 242.925781 123.617188 243.019531 C 123.195312 243.109375 122.769531 243.15625 122.34375 243.15625 C 121.914062 243.15625 121.488281 243.109375 121.070312 243.019531 C 120.648438 242.925781 120.242188 242.792969 119.84375 242.613281 C 119.449219 242.4375 119.070312 242.21875 118.714844 241.957031 C 118.359375 241.699219 118.03125 241.40625 117.726562 241.074219 C 117.421875 240.746094 117.152344 240.386719 116.914062 240 C 116.675781 239.613281 116.476562 239.203125 116.3125 238.773438 C 116.148438 238.34375 116.023438 237.898438 115.941406 237.441406 C 115.855469 236.984375 115.8125 236.523438 115.8125 236.058594 C 115.8125 235.589844 115.855469 235.128906 115.941406 234.671875 C 116.023438 234.214844 116.148438 233.773438 116.3125 233.339844 C 116.476562 232.910156 116.675781 232.5 116.914062 232.113281 C 117.152344 231.726562 117.421875 231.367188 117.726562 231.039062 C 118.03125 230.710938 118.359375 230.414062 118.714844 230.15625 C 119.070312 229.898438 119.449219 229.679688 119.84375 229.5 C 120.242188 229.320312 120.648438 229.1875 121.070312 229.097656 C 121.488281 229.003906 121.914062 228.960938 122.34375 228.960938 C 122.769531 228.960938 123.195312 229.003906 123.617188 229.097656 C 124.035156 229.1875 124.445312 229.320312 124.839844 229.5 C 125.238281 229.679688 125.613281 229.898438 125.96875 230.15625 C 126.328125 230.414062 126.65625 230.710938 126.960938 231.039062 C 127.261719 231.367188 127.53125 231.726562 127.769531 232.113281 C 128.007812 232.5 128.210938 232.910156 128.375 233.339844 C 128.539062 233.773438 128.664062 234.214844 128.746094 234.671875 C 128.828125 235.128906 128.871094 235.589844 128.871094 236.058594 Z M 128.871094 236.058594 " fill-opacity="1" fill-rule="nonzero"/><path fill="#fef0c1" d="M 200.511719 104.324219 C 200.511719 104.792969 200.46875 105.253906 200.386719 105.710938 C 200.304688 106.167969 200.179688 106.609375 200.015625 107.042969 C 199.851562 107.472656 199.648438 107.882812 199.414062 108.269531 C 199.175781 108.65625 198.902344 109.015625 198.601562 109.34375 C 198.296875 109.671875 197.96875 109.96875 197.609375 110.226562 C 197.253906 110.484375 196.878906 110.703125 196.480469 110.882812 C 196.085938 111.0625 195.679688 111.195312 195.257812 111.285156 C 194.835938 111.378906 194.414062 111.421875 193.984375 111.421875 C 193.554688 111.421875 193.128906 111.378906 192.710938 111.285156 C 192.289062 111.195312 191.882812 111.0625 191.484375 110.882812 C 191.089844 110.703125 190.714844 110.484375 190.355469 110.226562 C 190 109.96875 189.671875 109.671875 189.367188 109.34375 C 189.066406 109.015625 188.792969 108.65625 188.554688 108.269531 C 188.316406 107.882812 188.117188 107.472656 187.953125 107.042969 C 187.789062 106.609375 187.664062 106.167969 187.582031 105.710938 C 187.496094 105.253906 187.457031 104.792969 187.457031 104.324219 C 187.457031 103.859375 187.496094 103.398438 187.582031 102.941406 C 187.664062 102.484375 187.789062 102.039062 187.953125 101.609375 C 188.117188 101.179688 188.316406 100.769531 188.554688 100.382812 C 188.792969 99.996094 189.066406 99.636719 189.367188 99.308594 C 189.671875 98.976562 190 98.683594 190.355469 98.425781 C 190.714844 98.164062 191.089844 97.945312 191.484375 97.769531 C 191.882812 97.589844 192.289062 97.457031 192.710938 97.363281 C 193.128906 97.273438 193.554688 97.226562 193.984375 97.226562 C 194.414062 97.226562 194.835938 97.273438 195.257812 97.363281 C 195.679688 97.457031 196.085938 97.589844 196.480469 97.769531 C 196.878906 97.945312 197.253906 98.164062 197.609375 98.425781 C 197.96875 98.683594 198.296875 98.976562 198.601562 99.308594 C 198.902344 99.636719 199.175781 99.996094 199.414062 100.382812 C 199.648438 100.769531 199.851562 101.179688 200.015625 101.609375 C 200.179688 102.039062 200.304688 102.484375 200.386719 102.941406 C 200.46875 103.398438 200.511719 103.859375 200.511719 104.324219 Z M 200.511719 104.324219 " fill-opacity="1" fill-rule="nonzero"/></svg>