<svg xmlns="http://www.w3.org/2000/svg" xmlns:xlink="http://www.w3.org/1999/xlink" width="500" zoomAndPan="magnify" viewBox="0 0 375 374.999991" height="500" preserveAspectRatio="xMidYMid meet" version="1.0"><path fill="#ffe7c3" d="M 308.839844 257.585938 C 298.78125 242.691406 315.980469 198.433594 311.449219 181.199219 C 299.519531 135.804688 269.957031 151.105469 278.054688 96.378906 C 285.207031 47.996094 217.605469 25.15625 229.023438 52.339844 C 240.4375 79.527344 207.007812 92.121094 193.960938 76.210938 C 180.910156 60.296875 203.699219 37.09375 147.300781 51.015625 C 90.90625 64.933594 53.414062 151.136719 62.992188 186.113281 C 72.566406 221.089844 105.0625 218.101562 86.519531 267.832031 C 67.980469 317.5625 113.175781 327.207031 113.175781 327.207031 L 125.210938 320.945312 C 125.210938 320.945312 253.183594 350.042969 275.265625 332.316406 C 298.328125 313.800781 330.804688 296.34375 331.46875 281.75 C 332.128906 267.160156 318.894531 272.472656 308.832031 257.578125 Z M 283.722656 260.203125 C 272.160156 239.320312 287.40625 214.65625 296.117188 216.808594 C 304.832031 218.960938 297.574219 231.015625 298.460938 249.527344 C 299.347656 268.042969 312.578125 272.535156 312.578125 272.535156 C 320.550781 284.097656 295.292969 281.082031 283.722656 260.203125 Z M 283.722656 260.203125 " fill-opacity="1" fill-rule="nonzero"/><path fill="#ffe7c3" d="M 317.648438 157.257812 C 309.730469 161.484375 319.703125 171.390625 323.371094 189.558594 C 327.039062 207.730469 315.296875 215.324219 315.296875 215.324219 C 310.390625 228.496094 334.148438 219.378906 340.257812 196.296875 C 346.371094 173.214844 325.558594 153.03125 317.640625 157.257812 Z M 317.648438 157.257812 " fill-opacity="1" fill-rule="nonzero"/><path fill="#ffe7c3" d="M 53.753906 180.039062 C 54.386719 161.507812 62.59375 150.09375 54.089844 147.230469 C 45.585938 144.367188 28.371094 167.707031 38.199219 189.464844 C 48.023438 211.222656 72.949219 216.300781 65.949219 204.121094 C 65.949219 204.121094 53.125 198.558594 53.753906 180.03125 Z M 53.753906 180.039062 " fill-opacity="1" fill-rule="nonzero"/><path stroke-linecap="round" transform="matrix(0.778648, 0, 0, 0.779831, 5.191403, -10.115976)" fill-opacity="1" fill="#f7aa39" fill-rule="nonzero" stroke-linejoin="round" d="M 248.30188 273.590423 L 223.790253 290.95196 C 223.790253 290.95196 218.000974 355.629446 213.922392 362.782439 C 213.922392 362.782439 168.300465 362.101202 151.278781 382.17767 C 134.262113 402.269166 136.981168 429.158009 136.981168 429.158009 C 136.981168 429.158009 140.382495 441.760902 178.850599 441.420284 C 217.318702 441.079665 217.910674 450.872453 223.529385 461.080997 C 229.148096 471.289541 333.570836 453.17163 347.100893 438.099251 C 347.100893 438.099251 355.779795 369.930423 285.570991 365.081615 L 272.462337 263.722498 L 248.291847 273.590423 Z M 248.30188 273.590423 " stroke="#3d1717" stroke-width="3" stroke-opacity="1" stroke-miterlimit="4"/><path stroke-linecap="round" transform="matrix(0.778648, 0, 0, 0.779831, 5.191403, -10.115976)" fill-opacity="1" fill="#f7aa39" fill-rule="nonzero" stroke-linejoin="round" d="M 308.040818 141.931265 C 308.808374 140.909409 333.059132 74.017902 402.761249 111.040152 C 402.761249 111.040152 387.440228 113.850257 385.13756 128.151234 C 382.839908 142.452212 351.691179 176.148421 310.328436 157.259108 L 308.030785 141.941284 Z M 308.040818 141.931265 " stroke="#3d1717" stroke-width="3" stroke-opacity="1" stroke-miterlimit="4"/><path stroke-linecap="round" transform="matrix(0.778648, 0, 0, 0.779831, 5.191403, -10.115976)" fill-opacity="1" fill="#a02d2a" fill-rule="nonzero" stroke-linejoin="round" d="M 309.912049 146.098836 C 309.912049 146.098836 332.717996 119.89123 345.821633 117.672199 C 358.930286 115.458177 369.48042 118.348428 370.328243 121.068368 C 371.181083 123.788309 358.418582 131.45223 357.390157 139.622071 C 356.371766 147.791911 307.860217 160.049176 309.902016 146.088818 Z M 309.912049 146.098836 " stroke="#3d1717" stroke-width="3" stroke-opacity="1" stroke-miterlimit="4"/><path stroke-linecap="round" transform="matrix(0.778648, 0, 0, 0.779831, 5.191403, -10.115976)" fill-opacity="1" fill="#f7aa39" fill-rule="nonzero" stroke-linejoin="round" d="M 158.78879 163.831046 C 157.660031 163.229954 107.427752 112.8284 59.87941 175.827838 C 59.87941 175.827838 74.949595 171.910723 83.071643 183.897497 C 91.188674 195.88928 133.660109 213.290889 163.168375 178.688034 L 158.778757 163.831046 Z M 158.78879 163.831046 " stroke="#3d1717" stroke-width="3" stroke-opacity="1" stroke-miterlimit="4"/><path stroke-linecap="round" transform="matrix(0.778648, 0, 0, 0.779831, 5.191403, -10.115976)" fill-opacity="1" fill="#a02d2a" fill-rule="nonzero" stroke-linejoin="round" d="M 158.859024 168.399344 C 158.859024 168.399344 127.118324 154.268676 114.300639 157.800091 C 101.487972 161.331506 93.140172 168.409363 93.521442 171.239504 C 93.897695 174.069644 108.712029 175.622465 113.08158 182.590122 C 117.461164 189.557778 166.599802 180.190763 158.859024 168.399344 Z M 158.859024 168.399344 " stroke="#3d1717" stroke-width="3" stroke-opacity="1" stroke-miterlimit="4"/><path stroke-linecap="round" transform="matrix(0.778648, 0, 0, 0.779831, 5.191403, -10.115976)" fill-opacity="1" fill="#a02d2a" fill-rule="nonzero" stroke-linejoin="round" d="M 155.527931 89.7615 L 183.792054 120.061539 L 163.017874 134.527817 L 143.618271 96.739175 C 143.618271 96.739175 126.937722 96.398556 127.278858 85.168156 C 127.619994 73.937756 130.509617 66.789772 141.917607 66.619462 C 153.320581 66.449153 158.598155 74.278375 155.537965 89.771518 Z M 155.527931 89.7615 " stroke="#3d1717" stroke-width="3" stroke-opacity="1" stroke-miterlimit="4"/><path stroke-linecap="round" transform="matrix(0.778648, 0, 0, 0.779831, 5.191403, -10.115976)" fill-opacity="1" fill="#a02d2a" fill-rule="nonzero" stroke-linejoin="round" d="M 264.540958 67.611264 L 250.870434 106.722309 L 275.698113 111.611189 L 278.26165 69.209167 C 278.26165 69.209167 293.392036 62.191419 288.560948 52.037975 C 283.72986 41.889541 278.201449 36.509769 267.69145 40.94783 C 257.18145 45.380883 255.500853 54.667752 264.540958 67.621282 Z M 264.540958 67.611264 " stroke="#3d1717" stroke-width="3" stroke-opacity="1" stroke-miterlimit="4"/><path stroke-linecap="round" transform="matrix(0.778648, 0, 0, 0.779831, 5.191403, -10.115976)" fill-opacity="1" fill="#f7aa39" fill-rule="nonzero" stroke-linejoin="round" d="M 218.67823 272.648712 C 218.67823 272.648712 181.14825 285.421915 167.869029 264.739345 C 154.589807 244.061784 163.268709 241.001225 160.208518 218.019479 C 157.09816 194.682087 121.569847 189.988561 157.148327 137.84885 C 190.599725 88.829807 215.618039 83.981 254.938982 97.250103 C 288.550914 108.600721 316.729753 129.929464 313.408694 153.161665 C 310.087634 176.388857 313.408694 188.390658 322.087596 200.39246 C 330.771514 212.389252 334.599261 255.788085 295.032499 250.939277 C 255.46072 246.090469 218.688263 272.638694 218.688263 272.638694 Z M 218.67823 272.648712 " stroke="#3d1717" stroke-width="3" stroke-opacity="1" stroke-miterlimit="4"/><path stroke-linecap="round" transform="matrix(0.778648, 0, 0, 0.779831, 5.191403, -10.115976)" fill-opacity="1" fill="#a02d2a" fill-rule="nonzero" stroke-linejoin="round" d="M 214.429079 275.458817 C 214.429079 275.458817 259.70987 297.418707 283.709793 253.669236 C 283.709793 253.669236 272.989091 228.648787 240.987522 235.631471 C 208.99097 242.609146 214.439113 275.458817 214.439113 275.458817 Z M 214.429079 275.458817 " stroke="#3d1717" stroke-width="3" stroke-opacity="1" stroke-miterlimit="4"/><path stroke-linecap="round" transform="matrix(0.778648, 0, 0, 0.779831, 5.191403, -10.115976)" fill="none" stroke-linejoin="round" d="M 291.902074 162.298262 C 291.36027 161.937607 271.408829 148.418049 254.432295 169.010454 " stroke="#3d1717" stroke-width="5" stroke-opacity="1" stroke-miterlimit="4"/><path stroke-linecap="round" transform="matrix(0.778648, 0, 0, 0.779831, 5.191403, -10.115976)" fill="none" stroke-linejoin="round" d="M 200.748521 180.170727 C 200.211734 179.810072 180.260293 166.290514 163.278742 186.877911 " stroke="#3d1717" stroke-width="5" stroke-opacity="1" stroke-miterlimit="4"/><path stroke-linecap="round" transform="matrix(0.722661, -0.290362, 0.289922, 0.723758, -33.398405, 80.539368)" fill-opacity="1" fill="#3d1717" fill-rule="nonzero" stroke-linejoin="round" d="M 284.228763 186.436882 C 284.230292 187.106745 284.179665 187.771875 284.074092 188.425757 C 283.973176 189.081506 283.821043 189.716708 283.617695 190.331363 C 283.414346 190.946018 283.168168 191.532695 282.874504 192.089528 C 282.580841 192.646361 282.245286 193.159402 281.872498 193.63052 C 281.499709 194.101637 281.091551 194.526181 280.651754 194.894855 C 280.210092 195.268178 279.749832 195.580068 279.257934 195.836088 C 278.772557 196.089326 278.266717 196.285781 277.750667 196.413374 C 277.232751 196.545615 276.709281 196.610861 276.180256 196.609113 C 275.651231 196.607365 275.130619 196.544226 274.609108 196.415961 C 274.089462 196.283046 273.587541 196.092477 273.100554 195.837735 C 272.608912 195.581126 272.146171 195.265948 271.705812 194.894984 C 271.270108 194.525887 270.861442 194.102871 270.489124 193.629672 C 270.114942 193.161121 269.781764 192.644255 269.485862 192.088372 C 269.194615 191.534356 268.943434 190.94784 268.741631 190.332559 C 268.539828 189.717278 268.385537 189.077881 268.286206 188.422753 C 268.180354 187.770405 268.132252 187.108844 268.130723 186.438981 C 268.12733 185.773767 268.182612 185.110504 268.283529 184.454755 C 268.389102 183.800874 268.541234 183.165672 268.739927 182.549149 C 268.94514 181.929845 269.191318 181.343167 269.487773 180.792851 C 269.781437 180.236018 270.112335 179.721109 270.485124 179.249992 C 270.859777 178.774226 271.26607 178.35433 271.705867 177.985656 C 272.14753 177.612334 272.612445 177.302311 273.099687 177.044424 C 273.58693 176.786536 274.090904 176.59473 274.60882 176.462489 C 275.129526 176.336765 275.652996 176.271518 276.177365 176.271398 C 276.708256 176.268497 277.233524 176.333504 277.748514 176.464551 C 278.268159 176.597465 278.77008 176.788035 279.261723 177.044644 C 279.74871 177.299386 280.21145 177.614563 280.65181 177.985528 C 281.092169 178.356493 281.496179 178.777641 281.875018 179.248059 C 282.247335 179.721258 282.582378 180.233475 282.873625 180.787491 C 283.167662 181.348023 283.414187 181.932671 283.61599 182.547953 C 283.817794 183.163234 283.972084 183.802631 284.077937 184.454978 C 284.177268 185.110106 284.230026 185.773536 284.228763 186.436882 Z M 284.228763 186.436882 " stroke="#3d1717" stroke-width="3" stroke-opacity="1" stroke-miterlimit="4"/><path stroke-linecap="round" transform="matrix(0.775064, -0.0747435, 0.0746301, 0.776241, -13.651888, 8.186654)" fill-opacity="1" fill="#3d1717" fill-rule="nonzero" stroke-linejoin="round" d="M 235.81919 263.461573 C 235.8191 264.090597 235.725573 264.695528 235.533613 265.275884 C 235.341654 265.85624 235.075558 266.369071 234.720344 266.812933 C 234.370125 267.257276 233.96411 267.600633 233.50278 267.838019 C 233.045964 268.080872 232.565715 268.200694 232.07202 268.198447 C 231.572852 268.200705 231.095673 268.079274 230.63501 267.838659 C 230.174348 267.598044 229.768709 267.257049 229.418576 266.81069 C 229.067963 266.369316 228.794941 265.854897 228.604026 265.2729 C 228.41311 264.690903 228.319954 264.088126 228.320043 263.459101 C 228.320132 262.830076 228.41366 262.225146 228.605619 261.64479 C 228.797579 261.064433 229.068669 260.552084 229.418888 260.107741 C 229.769108 259.663398 230.175123 259.320041 230.636453 259.082655 C 231.093269 258.839802 231.573518 258.71998 232.072206 258.722708 C 232.566381 258.719969 233.04356 258.8414 233.504222 259.082015 C 233.964885 259.32263 234.370523 259.663624 234.720657 260.109984 C 235.07127 260.551358 235.344291 261.065777 235.535207 261.647774 C 235.726603 262.224785 235.819279 262.832548 235.81919 263.461573 Z M 235.81919 263.461573 " stroke="#3d1717" stroke-width="3" stroke-opacity="1" stroke-miterlimit="4"/><path stroke-linecap="round" transform="matrix(0.640857, -0.442934, 0.442262, 0.64183, -70.929264, 141.155616)" fill-opacity="1" fill="#3d1717" fill-rule="nonzero" stroke-linejoin="round" d="M 266.201493 253.888646 C 266.198756 254.519714 266.104628 255.124227 265.912135 255.703461 C 265.72377 256.285544 265.454388 256.799543 265.09986 257.24261 C 264.749461 257.688526 264.34365 258.029255 263.886556 258.267646 C 263.426618 258.51016 262.947699 258.630025 262.4498 258.627242 C 261.953185 258.631431 261.47659 258.509455 261.014323 258.269559 C 260.554901 258.02554 260.149814 257.685123 259.797777 257.241337 C 259.445741 256.797551 259.178225 256.284285 258.985411 255.706935 C 258.795442 255.125463 258.701825 254.519193 258.697588 253.889399 C 258.697479 253.262454 258.794452 252.653818 258.986946 252.074585 C 259.17531 251.492502 259.448821 250.981352 259.796375 250.539558 C 260.150904 250.096491 260.555431 249.74879 261.012524 249.510399 C 261.476592 249.270735 261.951381 249.14802 262.44928 249.150803 C 262.950024 249.149464 263.42662 249.27144 263.884757 249.508487 C 264.344179 249.752505 264.749266 250.092922 265.101303 250.536708 C 265.45334 250.980494 265.724984 251.49661 265.914954 252.078082 C 266.104923 252.659554 266.201384 253.261701 266.201493 253.888646 Z M 266.201493 253.888646 " stroke="#3d1717" stroke-width="3" stroke-opacity="1" stroke-miterlimit="4"/><path fill="#ffe7c3" d="M 223.039062 130.5 C 223.3125 130.542969 223.570312 130.636719 223.808594 130.789062 C 224.046875 130.941406 224.246094 131.136719 224.410156 131.378906 C 224.574219 131.621094 224.6875 131.886719 224.753906 132.183594 C 224.820312 132.476562 224.832031 132.773438 224.789062 133.074219 C 224.746094 133.378906 224.648438 133.660156 224.503906 133.925781 C 224.359375 134.1875 224.175781 134.414062 223.949219 134.597656 C 223.726562 134.785156 223.476562 134.917969 223.207031 134.996094 C 222.9375 135.074219 222.664062 135.097656 222.390625 135.054688 C 222.113281 135.015625 221.859375 134.921875 221.621094 134.769531 C 221.382812 134.617188 221.183594 134.421875 221.019531 134.179688 C 220.855469 133.9375 220.738281 133.671875 220.675781 133.375 C 220.609375 133.082031 220.597656 132.785156 220.640625 132.480469 C 220.683594 132.179688 220.777344 131.898438 220.921875 131.632812 C 221.066406 131.371094 221.253906 131.144531 221.476562 130.957031 C 221.703125 130.773438 221.949219 130.640625 222.222656 130.5625 C 222.492188 130.480469 222.765625 130.460938 223.039062 130.5 Z M 223.039062 130.5 " fill-opacity="1" fill-rule="nonzero"/><path stroke-linecap="round" transform="matrix(0.722661, -0.290362, 0.289922, 0.723758, -44.167116, 56.575158)" fill-opacity="1" fill="#3d1717" fill-rule="nonzero" stroke-linejoin="round" d="M 197.758462 206.861221 C 197.761855 207.526435 197.706573 208.189698 197.605656 208.845447 C 197.500083 209.499328 197.347951 210.13453 197.149258 210.751053 C 196.944045 211.370357 196.697867 211.957035 196.406068 212.509219 C 196.107748 213.064184 195.77685 213.579093 195.404061 214.05021 C 195.029407 214.525976 194.623115 214.945872 194.183317 215.314546 C 193.741655 215.687869 193.281396 215.999759 192.789497 216.255778 C 192.302255 216.513666 191.798281 216.705472 191.28223 216.833064 C 190.764315 216.965305 190.240845 217.030552 189.711819 217.028804 C 189.180929 217.031705 188.657526 216.962049 188.140671 216.835651 C 187.621025 216.702737 187.119104 216.512167 186.627462 216.255558 C 186.140475 216.000816 185.677735 215.685639 185.237375 215.314674 C 184.797016 214.943709 184.393005 214.522561 184.018823 214.054011 C 183.641849 213.578944 183.313328 213.063946 183.017425 212.508062 C 182.721523 211.952179 182.474998 211.367531 182.273194 210.75225 C 182.071391 210.136968 181.9171 209.497571 181.815904 208.847092 C 181.711917 208.190096 181.659159 207.526666 181.662287 206.858671 C 181.658893 206.193457 181.714176 205.530195 181.815092 204.874446 C 181.916009 204.218696 182.072798 203.585362 182.27149 202.968839 C 182.476704 202.349536 182.722882 201.762858 183.01468 201.210674 C 183.308344 200.653841 183.643898 200.1408 184.016687 199.669683 C 184.391341 199.193916 184.797634 198.774021 185.237431 198.405347 C 185.679093 198.032024 186.139352 197.720134 186.631251 197.464114 C 187.118493 197.206227 187.622468 197.014421 188.138518 196.886829 C 188.656433 196.754587 189.179904 196.689341 189.708929 196.691089 C 190.239819 196.688188 190.763222 196.757844 191.280077 196.884241 C 191.799723 197.017156 192.301644 197.207726 192.78863 197.462467 C 193.280273 197.719076 193.743014 198.034254 194.183373 198.405219 C 194.623733 198.776183 195.027743 199.197331 195.40006 199.670531 C 195.774243 200.139081 196.10742 200.655947 196.403323 201.21183 C 196.69457 201.765846 196.945751 202.352362 197.147554 202.967643 C 197.349357 203.582924 197.503648 204.222321 197.602979 204.87745 C 197.708831 205.529797 197.761589 206.193226 197.758462 206.861221 Z M 197.758462 206.861221 " stroke="#3d1717" stroke-width="3" stroke-opacity="1" stroke-miterlimit="4"/><path fill="#ffe7c3" d="M 155.71875 146.433594 C 155.992188 146.472656 156.25 146.570312 156.488281 146.722656 C 156.722656 146.875 156.925781 147.070312 157.089844 147.3125 C 157.253906 147.554688 157.367188 147.820312 157.433594 148.113281 C 157.496094 148.410156 157.507812 148.707031 157.464844 149.007812 C 157.421875 149.3125 157.328125 149.59375 157.183594 149.859375 C 157.039062 150.121094 156.855469 150.347656 156.628906 150.53125 C 156.402344 150.71875 156.15625 150.851562 155.886719 150.929688 C 155.613281 151.007812 155.34375 151.027344 155.066406 150.988281 C 154.792969 150.949219 154.535156 150.855469 154.296875 150.703125 C 154.0625 150.550781 153.859375 150.355469 153.695312 150.113281 C 153.53125 149.871094 153.417969 149.601562 153.351562 149.308594 C 153.289062 149.015625 153.277344 148.71875 153.320312 148.414062 C 153.363281 148.113281 153.457031 147.832031 153.601562 147.566406 C 153.746094 147.300781 153.929688 147.078125 154.15625 146.890625 C 154.382812 146.707031 154.628906 146.574219 154.898438 146.496094 C 155.171875 146.414062 155.441406 146.394531 155.71875 146.433594 Z M 155.71875 146.433594 " fill-opacity="1" fill-rule="nonzero"/><path stroke-linecap="round" transform="matrix(0.778648, 0, 0, 0.779831, 5.191403, -10.115976)" fill-opacity="1" fill="#a02d2a" fill-rule="nonzero" stroke-linejoin="round" d="M 277.127874 263.482061 C 258.510877 286.228379 232.569489 281.599972 220.750129 277.858175 C 219.721704 280.202433 219.049466 283.538493 220.378893 287.711073 C 223.097948 296.221532 251.868758 298.260235 269.231578 288.222001 C 285.059287 279.060359 285.89206 269.477952 277.127874 263.472043 Z M 277.127874 263.482061 " stroke="#3d1717" stroke-width="3" stroke-opacity="1" stroke-miterlimit="4"/><path stroke-linecap="round" transform="matrix(0.778648, 0, 0, 0.779831, 5.191403, -10.115976)" fill="none" stroke-linejoin="round" d="M 212.041127 216.571849 C 212.041127 216.571849 218.000974 248.399664 214.07791 265.420582 " stroke="#3d1717" stroke-width="3" stroke-opacity="1" stroke-miterlimit="4"/><path stroke-linecap="round" transform="matrix(0.778648, 0, 0, 0.779831, 5.191403, -10.115976)" fill="none" stroke-linejoin="round" d="M 268.549306 225.588227 C 268.549306 225.588227 273.66133 237.850502 281.321841 249.251211 " stroke="#3d1717" stroke-width="3" stroke-opacity="1" stroke-miterlimit="4"/><path fill="#ffe7c3" d="M 153.984375 333.085938 C 153.984375 333.085938 155.363281 312.382812 169.277344 305.613281 C 183.191406 298.84375 212.21875 298.976562 222.824219 310.660156 C 231.972656 320.734375 234.222656 344.769531 234.222656 344.769531 C 234.222656 344.769531 214.9375 348.886719 197.246094 350.210938 C 179.554688 351.539062 179.953125 348.222656 179.953125 348.222656 C 179.953125 348.222656 178.253906 345.128906 176.71875 342.679688 C 174.027344 338.382812 169.664062 334.015625 153.992188 333.085938 Z M 153.984375 333.085938 " fill-opacity="1" fill-rule="nonzero"/><path fill="#a02d2a" d="M 204.585938 72.359375 C 205.230469 72.546875 205.859375 72.777344 206.46875 73.046875 C 207.078125 73.3125 207.65625 73.617188 208.203125 73.957031 C 208.75 74.296875 209.257812 74.664062 209.726562 75.0625 C 210.191406 75.460938 210.609375 75.878906 210.976562 76.316406 C 211.34375 76.753906 211.65625 77.207031 211.910156 77.671875 C 212.164062 78.136719 212.355469 78.605469 212.488281 79.078125 C 212.617188 79.550781 212.6875 80.015625 212.6875 80.476562 C 212.691406 80.9375 212.628906 81.386719 212.503906 81.820312 C 212.378906 82.253906 212.191406 82.664062 211.941406 83.050781 C 211.691406 83.441406 211.386719 83.796875 211.023438 84.125 C 210.660156 84.453125 210.246094 84.746094 209.78125 85.003906 C 209.320312 85.257812 208.816406 85.472656 208.269531 85.644531 C 207.722656 85.820312 207.148438 85.949219 206.542969 86.03125 C 205.933594 86.117188 205.308594 86.15625 204.664062 86.148438 C 204.019531 86.140625 203.367188 86.085938 202.710938 85.984375 C 202.054688 85.886719 201.402344 85.742188 200.757812 85.554688 C 200.109375 85.367188 199.484375 85.136719 198.875 84.867188 C 198.265625 84.601562 197.6875 84.296875 197.140625 83.957031 C 196.589844 83.617188 196.082031 83.25 195.617188 82.851562 C 195.148438 82.453125 194.734375 82.035156 194.363281 81.597656 C 193.996094 81.160156 193.6875 80.707031 193.433594 80.242188 C 193.179688 79.777344 192.984375 79.308594 192.855469 78.835938 C 192.722656 78.363281 192.65625 77.898438 192.65625 77.4375 C 192.652344 76.976562 192.714844 76.527344 192.839844 76.09375 C 192.964844 75.660156 193.152344 75.25 193.402344 74.863281 C 193.652344 74.472656 193.957031 74.117188 194.320312 73.789062 C 194.683594 73.460938 195.097656 73.167969 195.558594 72.910156 C 196.023438 72.65625 196.527344 72.441406 197.074219 72.269531 C 197.617188 72.09375 198.195312 71.964844 198.800781 71.882812 C 199.40625 71.796875 200.035156 71.757812 200.679688 71.765625 C 201.324219 71.773438 201.972656 71.828125 202.632812 71.929688 C 203.289062 72.027344 203.941406 72.171875 204.585938 72.359375 Z M 204.585938 72.359375 " fill-opacity="1" fill-rule="nonzero"/><path fill="#a02d2a" d="M 210.242188 229.457031 C 210.679688 229.5625 211.101562 229.722656 211.503906 229.941406 C 211.90625 230.15625 212.28125 230.421875 212.632812 230.738281 C 212.984375 231.050781 213.304688 231.414062 213.59375 231.816406 C 213.878906 232.222656 214.128906 232.664062 214.34375 233.140625 C 214.554688 233.617188 214.726562 234.121094 214.855469 234.652344 C 214.984375 235.183594 215.066406 235.734375 215.105469 236.300781 C 215.148438 236.867188 215.144531 237.4375 215.09375 238.019531 C 215.042969 238.597656 214.949219 239.171875 214.8125 239.738281 C 214.675781 240.308594 214.496094 240.859375 214.273438 241.398438 C 214.054688 241.933594 213.796875 242.445312 213.503906 242.929688 C 213.207031 243.414062 212.882812 243.863281 212.523438 244.277344 C 212.164062 244.691406 211.785156 245.0625 211.375 245.390625 C 210.96875 245.71875 210.546875 245.996094 210.105469 246.222656 C 209.664062 246.449219 209.214844 246.625 208.757812 246.742188 C 208.300781 246.863281 207.84375 246.925781 207.390625 246.933594 C 206.933594 246.9375 206.484375 246.890625 206.046875 246.78125 C 205.609375 246.675781 205.191406 246.515625 204.789062 246.300781 C 204.386719 246.085938 204.007812 245.820312 203.65625 245.503906 C 203.304688 245.1875 202.984375 244.828125 202.699219 244.421875 C 202.410156 244.019531 202.160156 243.578125 201.949219 243.101562 C 201.734375 242.625 201.566406 242.117188 201.4375 241.585938 C 201.308594 241.054688 201.222656 240.503906 201.183594 239.9375 C 201.144531 239.371094 201.148438 238.800781 201.199219 238.222656 C 201.246094 237.644531 201.339844 237.070312 201.480469 236.5 C 201.617188 235.933594 201.796875 235.378906 202.015625 234.84375 C 202.238281 234.304688 202.496094 233.792969 202.789062 233.308594 C 203.082031 232.824219 203.410156 232.375 203.765625 231.960938 C 204.125 231.546875 204.507812 231.175781 204.914062 230.851562 C 205.320312 230.523438 205.746094 230.246094 206.183594 230.019531 C 206.625 229.789062 207.074219 229.617188 207.53125 229.496094 C 207.988281 229.378906 208.445312 229.316406 208.902344 229.308594 C 209.359375 229.300781 209.804688 229.351562 210.242188 229.457031 Z M 210.242188 229.457031 " fill-opacity="1" fill-rule="nonzero"/><path fill="#a02d2a" d="M 157.175781 66.714844 C 157.175781 66.714844 154.792969 74.175781 159.957031 77.367188 C 165.125 80.554688 174.765625 74.175781 174.074219 67.90625 C 173.378906 61.636719 164.035156 61.933594 157.175781 66.714844 Z M 157.175781 66.714844 " fill-opacity="1" fill-rule="nonzero"/><path fill="#a02d2a" d="M 253.292969 285.796875 C 253.292969 285.796875 245.660156 287.53125 245.542969 293.605469 C 245.429688 299.679688 255.808594 304.765625 260.84375 300.980469 C 265.890625 297.199219 260.882812 289.285156 253.292969 285.789062 Z M 253.292969 285.796875 " fill-opacity="1" fill-rule="nonzero"/><path fill="#a02d2a" d="M 183.121094 61.144531 C 183.121094 61.144531 182.917969 66.425781 186.796875 68.3125 C 190.671875 70.207031 195.9375 66.820312 196.933594 63.929688 C 196.933594 63.929688 190.472656 61.339844 183.121094 61.144531 Z M 183.121094 61.144531 " fill-opacity="1" fill-rule="nonzero"/><path fill="#a02d2a" d="M 180.035156 96.582031 C 178.953125 96.84375 164.730469 97.976562 163.933594 103.550781 C 163.140625 109.128906 175.464844 114.398438 177.554688 117.488281 C 179.640625 120.574219 190.378906 120.179688 191.964844 110.515625 C 193.554688 100.863281 192.859375 93.390625 180.035156 96.582031 Z M 180.035156 96.582031 " fill-opacity="1" fill-rule="nonzero"/><path fill="#a02d2a" d="M 129.9375 103.949219 C 129.9375 103.949219 134.507812 113.910156 142.0625 107.832031 C 149.613281 101.757812 152.699219 91.308594 149.117188 89.015625 C 145.535156 86.722656 129.535156 89.414062 129.929688 103.949219 Z M 129.9375 103.949219 " fill-opacity="1" fill-rule="nonzero"/><path fill="#a02d2a" d="M 223.640625 75.082031 C 223.640625 75.082031 220.597656 83.113281 225.695312 85.835938 C 230.796875 88.554688 234.777344 82.917969 234.777344 82.917969 C 234.777344 82.917969 229.410156 77.808594 223.640625 75.089844 Z M 223.640625 75.082031 " fill-opacity="1" fill-rule="nonzero"/><path fill="#a02d2a" d="M 242.992188 94.460938 C 242.992188 94.460938 238.351562 99.636719 240.078125 104.878906 C 241.800781 110.117188 246.511719 108.730469 245.972656 105.609375 C 245.4375 102.492188 247.765625 101.164062 246.96875 98.242188 C 246.175781 95.324219 245.382812 94.523438 242.992188 94.460938 Z M 242.992188 94.460938 " fill-opacity="1" fill-rule="nonzero"/><path fill="#a02d2a" d="M 280.902344 69.769531 C 280.902344 69.769531 278.253906 73.09375 281.433594 75.875 C 284.609375 78.660156 294.683594 78.066406 295.8125 76.078125 C 296.941406 74.089844 296.941406 69.636719 290.113281 69.042969 C 283.285156 68.453125 280.902344 69.777344 280.902344 69.777344 Z M 280.902344 69.769531 " fill-opacity="1" fill-rule="nonzero"/><path fill="#a02d2a" d="M 291.46875 104.644531 C 291.46875 104.644531 290.675781 98.375 293.554688 95.582031 C 296.4375 92.796875 297.230469 98.070312 295.9375 100.261719 C 294.644531 102.453125 292.558594 106.929688 291.46875 104.644531 Z M 291.46875 104.644531 " fill-opacity="1" fill-rule="nonzero"/><path fill="#a02d2a" d="M 74.609375 110.851562 C 74.609375 110.851562 69.304688 114.96875 74.34375 115.632812 C 79.382812 116.292969 87.859375 110.320312 86.800781 108.464844 C 85.742188 106.609375 74.609375 110.851562 74.609375 110.851562 Z M 74.609375 110.851562 " fill-opacity="1" fill-rule="nonzero"/><path fill="#a02d2a" d="M 90.507812 141.515625 C 90.507812 141.515625 90.84375 138.058594 93.753906 138.261719 C 96.667969 138.464844 97.734375 140.78125 97.601562 141.453125 C 97.46875 142.121094 93.621094 144.570312 90.507812 141.523438 Z M 90.507812 141.515625 " fill-opacity="1" fill-rule="nonzero"/><path fill="#a02d2a" d="M 214.960938 299.335938 C 214.960938 299.335938 211.113281 298.144531 210.847656 290.3125 C 210.582031 282.484375 221.453125 280.355469 225.820312 287.398438 C 230.199219 294.429688 222.238281 302.261719 214.953125 299.34375 Z M 214.960938 299.335938 " fill-opacity="1" fill-rule="nonzero"/><path fill="#a02d2a" d="M 194.019531 255.003906 C 194.019531 255.003906 184.34375 260.3125 188.585938 266.683594 C 192.832031 273.054688 201.707031 270.800781 202.234375 265.492188 C 202.765625 260.179688 200.382812 253.414062 194.019531 255.003906 Z M 194.019531 255.003906 " fill-opacity="1" fill-rule="nonzero"/><path fill="#a02d2a" d="M 165.664062 281.679688 C 165.664062 281.679688 157.449219 284.066406 159.433594 289.511719 C 161.417969 294.953125 171.496094 297.074219 175.210938 291.367188 C 178.921875 285.660156 173.488281 280.480469 165.664062 281.671875 Z M 165.664062 281.679688 " fill-opacity="1" fill-rule="nonzero"/><path fill="#a02d2a" d="M 121.519531 291.242188 C 121.210938 291.609375 115.6875 301.332031 127.089844 299.734375 C 138.488281 298.136719 140.472656 288.183594 137.5625 283.40625 C 134.648438 278.625 128.683594 282.875 121.519531 291.234375 Z M 121.519531 291.242188 " fill-opacity="1" fill-rule="nonzero"/><path fill="#a02d2a" d="M 132.257812 310.355469 C 132.257812 310.355469 125.898438 316.0625 129.613281 321.90625 C 133.324219 327.746094 143.921875 319.652344 142.730469 313.148438 C 141.539062 306.644531 133.722656 307.96875 132.257812 310.363281 Z M 132.257812 310.355469 " fill-opacity="1" fill-rule="nonzero"/><path fill="#a02d2a" d="M 247.171875 311.679688 C 247.171875 311.679688 241.472656 319.644531 245.980469 323.628906 C 250.488281 327.613281 257.117188 320.578125 255.527344 315.402344 C 253.9375 310.222656 250.621094 309.558594 247.179688 311.679688 Z M 247.171875 311.679688 " fill-opacity="1" fill-rule="nonzero"/><path fill="#a02d2a" d="M 273.542969 317.65625 C 273.542969 317.65625 264.402344 316.328125 263.203125 325.085938 C 262.011719 333.84375 269.300781 333.445312 270.757812 333.445312 C 272.214844 333.445312 274.339844 330.925781 274.339844 330.925781 C 274.339844 330.925781 274.867188 321.234375 273.542969 317.65625 Z M 273.542969 317.65625 " fill-opacity="1" fill-rule="nonzero"/><path fill="#a02d2a" d="M 223.375 252.617188 C 223.375 252.617188 215.160156 250.957031 214.03125 257.0625 C 212.902344 263.167969 217.542969 265.289062 221.054688 265.757812 C 224.566406 266.226562 224.699219 261.507812 224.699219 261.507812 Z M 223.375 252.617188 " fill-opacity="1" fill-rule="nonzero"/><path fill="#a02d2a" d="M 179.445312 229.589844 C 179.445312 229.589844 190.578125 227.601562 191.476562 234.960938 C 192.371094 242.332031 184.515625 249.292969 177.660156 246.613281 L 179.453125 229.589844 Z M 179.445312 229.589844 " fill-opacity="1" fill-rule="nonzero"/><path stroke-linecap="round" transform="matrix(0.778648, 0, 0, 0.779831, 5.191403, -10.115976)" fill="none" stroke-linejoin="round" d="M 181.910789 441.079665 C 181.910789 441.079665 179.86899 419.971322 195.872283 406.020981 " stroke="#3d1717" stroke-width="3" stroke-opacity="1" stroke-miterlimit="4"/><path stroke-linecap="round" transform="matrix(0.778648, 0, 0, 0.779831, 5.191403, -10.115976)" fill="none" stroke-linejoin="round" d="M 289.489038 410.439007 C 289.489038 410.439007 308.211386 431.21174 305.151195 454.348768 " stroke="#3d1717" stroke-width="3" stroke-opacity="1" stroke-miterlimit="4"/><path fill="#ffe7c3" d="M 247.023438 156.199219 C 247.078125 156.5 247.070312 156.808594 246.996094 157.125 C 246.917969 157.445312 246.78125 157.765625 246.578125 158.089844 C 246.375 158.414062 246.113281 158.734375 245.789062 159.050781 C 245.464844 159.371094 245.089844 159.675781 244.660156 159.976562 C 244.230469 160.273438 243.753906 160.558594 243.234375 160.828125 C 242.714844 161.09375 242.15625 161.34375 241.566406 161.570312 C 240.972656 161.800781 240.359375 162.003906 239.71875 162.179688 C 239.078125 162.359375 238.425781 162.507812 237.765625 162.632812 C 237.101562 162.753906 236.4375 162.84375 235.777344 162.90625 C 235.117188 162.96875 234.46875 163 233.835938 162.996094 C 233.199219 162.996094 232.59375 162.960938 232.011719 162.894531 C 231.429688 162.832031 230.882812 162.734375 230.375 162.609375 C 229.867188 162.484375 229.40625 162.328125 228.992188 162.148438 C 228.578125 161.964844 228.21875 161.761719 227.914062 161.53125 C 227.609375 161.300781 227.363281 161.050781 227.179688 160.777344 C 226.996094 160.507812 226.878906 160.222656 226.824219 159.921875 C 226.769531 159.621094 226.777344 159.3125 226.851562 158.996094 C 226.929688 158.675781 227.066406 158.355469 227.269531 158.03125 C 227.472656 157.707031 227.734375 157.386719 228.058594 157.070312 C 228.382812 156.75 228.757812 156.445312 229.1875 156.144531 C 229.617188 155.847656 230.09375 155.5625 230.613281 155.292969 C 231.132812 155.027344 231.691406 154.777344 232.28125 154.550781 C 232.875 154.324219 233.488281 154.121094 234.128906 153.941406 C 234.769531 153.761719 235.421875 153.613281 236.082031 153.488281 C 236.746094 153.367188 237.410156 153.277344 238.070312 153.214844 C 238.730469 153.152344 239.378906 153.121094 240.011719 153.125 C 240.648438 153.125 241.253906 153.160156 241.835938 153.226562 C 242.417969 153.289062 242.964844 153.386719 243.472656 153.511719 C 243.980469 153.636719 244.441406 153.792969 244.855469 153.972656 C 245.269531 154.15625 245.628906 154.359375 245.933594 154.589844 C 246.238281 154.820312 246.484375 155.070312 246.667969 155.34375 C 246.851562 155.613281 246.96875 155.898438 247.023438 156.199219 Z M 247.023438 156.199219 " fill-opacity="1" fill-rule="nonzero"/><path fill="#ffe7c3" d="M 161.078125 174.816406 C 161.195312 175.097656 161.25 175.402344 161.242188 175.730469 C 161.234375 176.054688 161.164062 176.398438 161.03125 176.757812 C 160.902344 177.117188 160.710938 177.484375 160.460938 177.863281 C 160.210938 178.242188 159.90625 178.621094 159.546875 179 C 159.1875 179.382812 158.78125 179.757812 158.328125 180.128906 C 157.871094 180.5 157.378906 180.855469 156.847656 181.203125 C 156.316406 181.546875 155.753906 181.875 155.167969 182.179688 C 154.578125 182.488281 153.972656 182.769531 153.347656 183.027344 C 152.722656 183.285156 152.09375 183.511719 151.460938 183.707031 C 150.824219 183.90625 150.199219 184.066406 149.578125 184.199219 C 148.957031 184.328125 148.355469 184.417969 147.773438 184.476562 C 147.191406 184.535156 146.636719 184.554688 146.113281 184.535156 C 145.589844 184.515625 145.109375 184.460938 144.664062 184.371094 C 144.222656 184.277344 143.828125 184.152344 143.480469 183.988281 C 143.136719 183.828125 142.847656 183.632812 142.609375 183.40625 C 142.375 183.179688 142.199219 182.925781 142.082031 182.640625 C 141.96875 182.359375 141.914062 182.054688 141.921875 181.726562 C 141.929688 181.402344 142 181.058594 142.132812 180.699219 C 142.261719 180.339844 142.453125 179.972656 142.703125 179.59375 C 142.953125 179.21875 143.257812 178.835938 143.617188 178.457031 C 143.976562 178.074219 144.382812 177.699219 144.835938 177.328125 C 145.292969 176.957031 145.785156 176.601562 146.316406 176.253906 C 146.847656 175.910156 147.410156 175.582031 147.996094 175.277344 C 148.585938 174.96875 149.191406 174.6875 149.816406 174.429688 C 150.441406 174.171875 151.070312 173.945312 151.703125 173.75 C 152.335938 173.550781 152.964844 173.390625 153.585938 173.261719 C 154.207031 173.128906 154.808594 173.039062 155.390625 172.980469 C 155.972656 172.925781 156.527344 172.90625 157.050781 172.921875 C 157.574219 172.941406 158.054688 172.996094 158.5 173.085938 C 158.941406 173.179688 159.335938 173.304688 159.679688 173.46875 C 160.027344 173.632812 160.316406 173.824219 160.554688 174.050781 C 160.789062 174.277344 160.964844 174.535156 161.078125 174.816406 Z M 161.078125 174.816406 " fill-opacity="1" fill-rule="nonzero"/></svg>