<svg xmlns="http://www.w3.org/2000/svg" xmlns:xlink="http://www.w3.org/1999/xlink" width="500" zoomAndPan="magnify" viewBox="0 0 375 374.999991" height="500" preserveAspectRatio="xMidYMid meet" version="1.0"><path fill="#c7dbda" d="M 128.300781 324 L 116.242188 337.320312 C 116.242188 337.320312 65.140625 338.425781 59.378906 283.898438 C 53.394531 227.234375 58.265625 226.203125 40.222656 213.539062 C 20.355469 199.601562 36.886719 138.996094 66.949219 110.363281 C 97.003906 81.730469 113.527344 102.949219 122.191406 84.480469 C 130.855469 66.015625 123.414062 47.101562 156.566406 42.296875 C 189.722656 37.484375 217.816406 76.144531 234.875 61.675781 C 251.933594 47.203125 303.945312 53.960938 315.726562 77.179688 C 327.511719 100.402344 305.234375 133.5625 325.453125 141.761719 C 345.683594 149.957031 354.824219 196.636719 348.988281 215.855469 C 343.15625 235.070312 316.742188 242.621094 320.632812 263.03125 C 324.527344 283.441406 340.820312 311.179688 300.652344 329.5625 L 233.28125 322.597656 Z M 128.300781 324 " fill-opacity="1" fill-rule="nonzero"/><path stroke-linecap="round" transform="matrix(0.723718, 0, 0, 0.723575, 14.697376, 4.215538)" fill-opacity="1" fill="#dba47b" fill-rule="nonzero" stroke-linejoin="round" d="M 395.119347 449.638043 C 395.119347 449.638043 381.1075 457.142013 339.260872 461.957511 C 310.427558 465.28841 268.381223 467.339855 208.598784 464.780947 C 188.007415 463.900985 165.31103 462.470372 140.309923 460.359543 C 140.309923 460.359543 127.917319 399.048324 178.432293 367.218532 C 228.941869 335.377942 368.94159 382.501799 368.94159 382.501799 C 368.94159 382.501799 392.037388 414.412569 395.119347 449.638043 Z M 395.119347 449.638043 " stroke="#3d1717" stroke-width="3" stroke-opacity="1" stroke-miterlimit="4"/><path fill="#f1d0a5" d="M 261.832031 337.058594 L 261.332031 337.363281 C 240.46875 339.773438 210.035156 341.257812 166.773438 339.40625 L 165.273438 338.992188 C 165.273438 338.992188 162.886719 310.027344 176.6875 301.496094 C 190.488281 292.957031 207.820312 292.140625 233.730469 295.707031 C 259.632812 299.269531 261.839844 337.058594 261.839844 337.058594 Z M 261.832031 337.058594 " fill-opacity="1" fill-rule="nonzero"/><path stroke-linecap="round" transform="matrix(0.723718, 0, 0, 0.723575, 14.697376, 4.215538)" fill-opacity="1" fill="#f1d0a5" fill-rule="nonzero" stroke-linejoin="round" d="M 382.68896 222.267731 C 382.68896 222.267731 400.39268 181.271218 397.672353 179.090208 C 394.952025 176.909198 367.187411 192.268044 367.187411 192.268044 C 367.187411 192.268044 371.499994 138.26105 366.631471 130.411572 C 361.752153 122.562095 342.391408 181.017487 341.997392 178.361405 C 341.608774 175.699925 335.450254 115.657362 332.389886 106.447453 C 329.329517 97.248341 314.880475 160.648795 314.880475 160.648795 C 314.880475 160.648795 297.25232 99.791053 288.637949 89.490639 C 280.01818 79.190224 286.79741 159.121008 286.79741 159.121008 C 286.79741 159.121008 256.539162 101.880288 252.831096 96.519538 C 249.117633 91.158788 254.979291 162.090205 254.979291 162.090205 C 254.979291 162.090205 225.930078 118.308046 210.369156 108.018428 C 194.808234 97.728811 222.081678 169.162293 222.081678 169.162293 C 222.081678 169.162293 181.201198 125.930784 170.27131 123.058761 C 159.341422 120.192136 191.947572 174.031776 191.947572 174.031776 C 191.947572 174.031776 158.429249 161.22104 127.447739 158.197858 C 96.471627 155.180074 169.580433 189.709136 176.818448 192.699927 C 184.072655 195.701516 97.49175 189.390622 81.320913 204.04226 C 70.731066 213.640864 149.739313 208.231527 162.817396 225.177544 L 128.548824 236.978753 C 128.548824 236.978753 72.927838 256.532265 72.382693 260.041316 C 71.832151 263.550367 132.602328 268.009561 142.468913 266.589745 C 152.340896 265.169929 102.198348 318.469715 101.269983 324.802202 C 100.341617 331.129291 145.718194 304.330939 152.63236 298.840623 C 159.551924 293.350308 115.211662 341.240757 115.211662 341.240757 C 115.211662 341.240757 141.249084 319.948915 155.768293 316.099756 C 170.287502 312.2398 214.919228 151.217546 382.699755 222.278528 Z M 382.68896 222.267731 " stroke="#3d1717" stroke-width="3" stroke-opacity="1" stroke-miterlimit="4"/><path stroke-linecap="round" transform="matrix(0.723718, 0, 0, 0.723575, 14.697376, 4.215538)" fill-opacity="1" fill="#dba47b" fill-rule="nonzero" stroke-linejoin="round" d="M 375.521113 218.380782 C 375.521113 218.380782 389.398023 175.932062 386.499578 174.020979 C 383.601134 172.099099 357.347813 189.930476 357.347813 189.930476 C 357.347813 189.930476 356.710911 135.750729 351.140716 128.381721 C 345.570521 121.001917 331.628842 180.990494 330.99194 178.377601 C 330.34964 175.770106 318.73967 116.537324 314.84809 107.651328 C 310.961908 98.770729 302.358332 163.2185 302.358332 163.2185 C 302.358332 163.2185 279.251739 104.217856 269.730592 94.759614 C 260.209445 85.290575 274.259074 164.271216 274.259074 164.271216 C 274.259074 164.271216 238.900212 110.032084 234.722566 105.038434 C 230.539522 100.050183 242.851164 170.139429 242.851164 170.139429 C 242.851164 170.139429 209.93196 129.202299 193.49125 120.370288 C 177.061334 111.538276 210.730787 180.180713 210.730787 180.180713 C 210.730787 180.180713 166.077472 140.868544 154.931685 139.011447 C 143.7805 137.14895 181.179608 187.792655 181.179608 187.792655 C 181.179608 187.792655 146.630367 178.091478 115.497728 177.918725 C 84.370487 177.740573 160.32916 205.451279 167.820856 207.772651 C 175.312552 210.088625 100.001576 210.790435 89.141855 220.081323 C 78.282134 229.37221 142.269207 225.717398 156.847788 241.38936 L 130.022335 259.479868 C 130.022335 259.479868 71.367968 299.839353 71.141274 303.380796 C 70.909183 306.922238 130.659237 286.801879 140.358501 284.480507 C 150.057764 282.159135 104.988843 339.820941 104.638007 346.207414 C 104.292569 352.599285 147.02978 321.757426 153.420391 315.667873 C 159.811002 309.567522 120.031608 361.312529 120.031608 361.312529 C 120.031608 361.312529 144.012591 337.742503 158.121593 332.570702 C 172.230594 327.3989 201.970684 162.980965 375.542703 218.418572 Z M 375.521113 218.380782 " stroke="#3d1717" stroke-width="3" stroke-opacity="1" stroke-miterlimit="4"/><path stroke-linecap="round" transform="matrix(0.723718, 0, 0, 0.723575, 14.697376, 4.215538)" fill-opacity="1" fill="#3d1717" fill-rule="nonzero" stroke-linejoin="round" d="M 386.407821 229.998441 C 386.407821 229.998441 395.907378 186.362041 392.820022 184.747878 C 389.738064 183.139113 365.438629 203.540196 365.438629 203.540196 C 365.438629 203.540196 359.301699 149.711353 353.008242 142.941584 C 346.720183 136.171815 338.942421 197.261694 338.041043 194.729779 C 337.139664 192.197863 319.570881 134.44968 314.799513 126.011762 C 310.028145 117.568446 308.020284 182.561469 308.020284 182.561469 C 308.020284 182.561469 279.041237 126.211508 268.60252 117.757395 C 258.158405 109.308679 280.158515 186.448418 280.158515 186.448418 C 280.158515 186.448418 239.472344 136.090837 234.79813 131.539867 C 230.129314 126.999695 249.500854 195.469379 249.500854 195.469379 C 249.500854 195.469379 212.587518 158.089887 195.342584 150.969213 C 178.09765 143.859336 218.567921 208.717396 218.567921 208.717396 C 218.567921 208.717396 170.152566 174.150544 158.871842 173.432538 C 147.591118 172.709134 189.939711 219.287737 189.939711 219.287737 C 189.939711 219.287737 154.580849 213.149597 123.599339 216.140388 C 92.617829 219.13118 170.989174 238.970814 178.680577 240.520195 C 186.37198 242.069576 93.62176 247.86221 75.31892 276.960341 C 67.70848 289.058469 155.088211 260.969865 171.178086 275.081649 L 129.752461 303.240434 C 129.752461 303.240434 85.719855 349.99179 85.849395 353.538631 C 85.978934 357.09087 149.728518 322.907315 159.141715 319.619604 C 168.549515 316.321096 129.579742 378.269343 129.882 384.661215 C 130.178862 391.047687 169.569638 356.027358 175.301757 349.322371 C 181.039274 342.611986 146.722124 398.119775 146.722124 398.119775 C 146.722124 398.119775 168.182487 372.228377 181.697766 365.658354 C 195.207647 359.08833 152.470436 140.469053 386.391629 230.009238 Z M 386.407821 229.998441 " stroke="#3d1717" stroke-width="3" stroke-opacity="1" stroke-miterlimit="4"/><path stroke-linecap="round" transform="matrix(0.723718, 0, 0, 0.723575, 14.697376, 4.215538)" fill-opacity="1" fill="#f1d0a5" fill-rule="nonzero" stroke-linejoin="round" d="M 401.477573 285.112136 C 401.477573 285.112136 405.822541 237.961287 370.458281 206.871095 C 333.571933 174.442065 292.680658 168.482077 262.730066 187.29059 C 232.779474 206.088307 223.900627 194.90793 196.972622 205.942546 C 170.039219 216.971764 161.122589 277.991462 161.122589 277.991462 C 161.122589 277.991462 125.677367 264.05783 117.640526 287.438907 C 109.598287 310.819984 134.550817 330.988929 151.838931 320.931449 C 151.838931 320.931449 150.759436 393.5904 256.010209 396.559597 C 361.260983 399.528794 408.299982 334.028307 408.299982 334.028307 L 395.108552 321.870795 C 395.108552 321.870795 398.951554 303.710106 401.477573 285.112136 Z M 401.477573 285.112136 " stroke="#3d1717" stroke-width="3" stroke-opacity="1" stroke-miterlimit="4"/><path stroke-linecap="round" transform="matrix(0.723718, 0, 0, 0.723575, 14.697376, 4.215538)" fill-opacity="1" fill="#dba47b" fill-rule="nonzero" stroke-linejoin="round" d="M 238.66812 323.879052 C 238.66812 323.879052 255.092638 333.731388 268.732059 321.967969 C 282.382275 310.209949 309.9094 292.707882 347.222149 318.847613 C 347.222149 318.847613 353.121589 324.262348 362.680519 323.382386 C 372.239448 322.502424 383.730673 312.471937 395.621312 318.701852 C 407.511951 324.931767 430.688711 351.152476 376.017681 384.040382 C 321.352048 416.928288 266.049514 403.12962 233.1519 391.949244 C 208.92803 383.721869 176.262508 355.201381 191.208118 330.038786 C 203.778838 308.892705 221.509545 315.41954 238.66812 323.868255 Z M 238.66812 323.879052 " stroke="#3d1717" stroke-width="3" stroke-opacity="1" stroke-miterlimit="4"/><path stroke-linecap="round" transform="matrix(0.0347226, -0.722742, 0.722885, 0.0347158, 46.215294, 463.743714)" fill-opacity="1" fill="#3d1717" fill-rule="nonzero" stroke-linejoin="round" d="M 366.369981 294.702699 C 366.369906 295.151209 366.299212 295.592305 366.147375 296.031894 C 366.001188 296.476615 365.783866 296.903139 365.495667 297.316856 C 365.207468 297.730572 364.858917 298.125573 364.43923 298.502376 C 364.019284 298.873788 363.544121 299.220834 363.01348 299.538122 C 362.482839 299.85541 361.901855 300.137291 361.276178 300.388896 C 360.650242 300.63511 359.99014 300.845139 359.295871 301.018983 C 358.601602 301.192827 357.883433 301.319186 357.147274 301.408583 C 356.405723 301.49824 355.661841 301.539375 354.910496 301.537638 C 354.159409 301.541294 353.411384 301.496168 352.672072 301.407395 C 351.938152 301.318363 351.218597 301.190814 350.523931 301.018841 C 349.829266 300.846868 349.170534 300.635342 348.542602 300.389915 C 347.919803 300.138838 347.33859 299.853342 346.804612 299.538557 C 346.275768 299.218123 345.799811 298.873533 345.381875 298.499138 C 344.963939 298.124743 344.609934 297.731066 344.31986 297.318107 C 344.035178 296.904889 343.814427 296.472389 343.669169 296.036263 C 343.523652 295.594746 343.448235 295.149862 343.448311 294.701351 C 343.448386 294.252841 343.524213 293.806095 343.670658 293.366765 C 343.817104 292.927435 344.034167 292.49552 344.322366 292.081803 C 344.610565 291.668086 344.964508 291.272826 345.379062 290.901674 C 345.798749 290.524871 346.274171 290.183216 346.804812 289.865928 C 347.340845 289.548381 347.916178 289.261368 348.542114 289.015154 C 349.167791 288.763549 349.827893 288.55352 350.522162 288.379676 C 351.222083 288.210964 351.9346 288.079473 352.676151 287.989816 C 353.412569 287.90581 354.156192 287.859284 354.907537 287.86102 C 355.664275 287.862498 356.406649 287.902491 357.145961 287.991264 C 357.885273 288.080037 358.599436 288.207845 359.294102 288.379818 C 359.988767 288.551791 360.652892 288.763057 361.27569 289.014135 C 361.903622 289.259561 362.479443 289.545317 363.01368 289.865493 C 363.547657 290.180277 364.018222 290.525126 364.436158 290.899521 C 364.854094 291.273916 365.208099 291.667593 365.498173 292.080552 C 365.783114 292.499161 366.003606 292.926269 366.149123 293.367787 C 366.294381 293.803913 366.369798 294.248797 366.369981 294.702699 Z M 366.369981 294.702699 " stroke="#3d1717" stroke-width="3" stroke-opacity="1" stroke-miterlimit="4"/><path stroke-linecap="round" transform="matrix(0.0347226, -0.722742, 0.722885, 0.0347158, -24.180756, 379.852417)" fill-opacity="1" fill="#3d1717" fill-rule="nonzero" stroke-linejoin="round" d="M 256.918291 287.749783 C 256.918216 288.198294 256.847781 288.64478 256.701336 289.084111 C 256.554891 289.523441 256.337568 289.949964 256.049628 290.369072 C 255.761429 290.782789 255.407486 291.178049 254.98754 291.549461 C 254.573245 291.926005 254.097823 292.267659 253.56179 292.585207 C 253.031149 292.902495 252.450423 293.189767 251.824488 293.43598 C 251.198811 293.687585 250.538709 293.897614 249.84444 294.071459 C 249.149912 294.239912 248.432002 294.371662 247.695843 294.461059 C 246.959425 294.545065 246.21041 294.59185 245.459065 294.590114 C 244.707719 294.588378 243.959953 294.548644 243.226033 294.459612 C 242.486721 294.370838 241.767166 294.24329 241.0725 294.071317 C 240.377834 293.899343 239.719102 293.687818 239.090912 293.437 C 238.468113 293.185923 237.887158 292.905817 237.358314 292.585383 C 236.824337 292.270599 236.34838 291.926009 235.930444 291.551614 C 235.512508 291.177219 235.158503 290.783542 234.873562 290.364933 C 234.583488 289.951974 234.368389 289.524606 234.217479 289.083348 C 234.071962 288.641831 234.001937 288.196687 234.002013 287.748177 C 234.002088 287.299666 234.072782 286.858571 234.218968 286.41385 C 234.365413 285.974519 234.582736 285.547996 234.870935 285.134279 C 235.158875 284.715171 235.513077 284.325302 235.932764 283.948499 C 236.347317 283.577346 236.822481 283.230301 237.358514 282.912753 C 237.889155 282.595465 238.470139 282.313585 239.090424 282.062239 C 239.716101 281.810634 240.381595 281.600346 241.076123 281.431893 C 241.770392 281.258048 242.488302 281.126298 243.22472 281.042292 C 243.960879 280.952895 244.710153 280.911501 245.461239 280.907846 C 246.212585 280.909582 246.955218 280.954966 247.69453 281.04374 C 248.433583 281.127122 249.148005 281.26032 249.848063 281.432035 C 250.542728 281.604008 251.20146 281.815533 251.829392 282.06096 C 252.452191 282.312037 253.033404 282.597534 253.56199 282.912577 C 254.096226 283.232753 254.572183 283.577342 254.990119 283.951737 C 255.407796 284.320741 255.76206 284.719809 256.046742 285.133027 C 256.336816 285.545986 256.551915 285.973354 256.697433 286.414871 C 256.848342 286.856129 256.918367 287.301273 256.918291 287.749783 Z M 256.918291 287.749783 " stroke="#3d1717" stroke-width="3" stroke-opacity="1" stroke-miterlimit="4"/><path fill="#f1d0a5" d="M 274.578125 212.65625 C 274.800781 212.675781 275.011719 212.761719 275.207031 212.917969 C 275.402344 213.070312 275.570312 213.277344 275.707031 213.542969 C 275.84375 213.804688 275.941406 214.105469 275.996094 214.4375 C 276.054688 214.769531 276.066406 215.113281 276.035156 215.464844 C 276.003906 215.820312 275.929688 216.15625 275.816406 216.472656 C 275.703125 216.789062 275.554688 217.066406 275.371094 217.304688 C 275.191406 217.539062 274.992188 217.714844 274.773438 217.832031 C 274.550781 217.949219 274.328125 217.996094 274.105469 217.976562 C 273.878906 217.957031 273.671875 217.867188 273.476562 217.714844 C 273.28125 217.5625 273.113281 217.355469 272.976562 217.089844 C 272.839844 216.828125 272.742188 216.527344 272.6875 216.195312 C 272.628906 215.863281 272.617188 215.519531 272.648438 215.164062 C 272.679688 214.8125 272.75 214.476562 272.867188 214.160156 C 272.980469 213.839844 273.128906 213.566406 273.308594 213.328125 C 273.492188 213.09375 273.691406 212.917969 273.910156 212.800781 C 274.128906 212.683594 274.351562 212.636719 274.578125 212.65625 Z M 274.578125 212.65625 " fill-opacity="1" fill-rule="nonzero"/><path fill="#f1d0a5" d="M 194.980469 207.601562 C 195.207031 207.621094 195.417969 207.707031 195.613281 207.859375 C 195.808594 208.011719 195.972656 208.222656 196.109375 208.484375 C 196.246094 208.75 196.34375 209.046875 196.402344 209.378906 C 196.457031 209.714844 196.472656 210.058594 196.441406 210.410156 C 196.410156 210.761719 196.335938 211.097656 196.21875 211.417969 C 196.105469 211.734375 195.957031 212.011719 195.777344 212.246094 C 195.59375 212.480469 195.394531 212.65625 195.175781 212.773438 C 194.957031 212.890625 194.734375 212.9375 194.507812 212.917969 C 194.285156 212.898438 194.074219 212.8125 193.878906 212.660156 C 193.683594 212.507812 193.515625 212.296875 193.378906 212.035156 C 193.242188 211.769531 193.148438 211.472656 193.089844 211.136719 C 193.03125 210.804688 193.019531 210.460938 193.050781 210.109375 C 193.082031 209.757812 193.15625 209.421875 193.269531 209.101562 C 193.386719 208.785156 193.535156 208.507812 193.714844 208.273438 C 193.894531 208.039062 194.09375 207.863281 194.316406 207.746094 C 194.535156 207.628906 194.757812 207.582031 194.980469 207.601562 Z M 194.980469 207.601562 " fill-opacity="1" fill-rule="nonzero"/><path stroke-linecap="round" transform="matrix(0.723718, 0, 0, 0.723575, 14.697376, 4.215538)" fill-opacity="1" fill="#3d1717" fill-rule="nonzero" stroke-linejoin="round" d="M 302.709168 355.627866 C 297.349475 352.50751 290.06828 347.319513 288.049624 341.197569 C 286.570716 336.700585 290.06828 332.101029 294.801866 332.187405 L 322.291209 332.711064 C 327.359439 332.808237 330.668091 338.158191 328.390356 342.698363 C 326.452663 346.558319 322.480121 351.152476 314.648384 355.698047 C 310.961908 357.841268 306.390246 357.787282 302.709168 355.638663 Z M 302.709168 355.627866 " stroke="#3d1717" stroke-width="3" stroke-opacity="1" stroke-miterlimit="4"/><path stroke-linecap="round" transform="matrix(0.723718, 0, 0, 0.723575, 14.697376, 4.215538)" fill="none" stroke-linejoin="round" d="M 309.148356 349.980993 L 308.86229 365.642158 C 308.86229 365.642158 312.948179 374.830473 323.737732 374.868263 C 343.039105 374.938444 345.921357 362.802526 345.921357 362.802526 " stroke="#3d1717" stroke-width="3" stroke-opacity="1" stroke-miterlimit="4"/><path stroke-linecap="round" transform="matrix(0.723718, 0, 0, 0.723575, 14.697376, 4.215538)" fill="none" stroke-linejoin="round" d="M 270.130005 362.959084 C 270.130005 362.959084 270.658958 377.011483 294.45103 374.511959 C 304.182679 373.491635 308.86229 365.631361 308.86229 365.631361 " stroke="#3d1717" stroke-width="3" stroke-opacity="1" stroke-miterlimit="4"/><path stroke-linecap="round" transform="matrix(0.723718, 0, 0, 0.723575, 14.697376, 4.215538)" fill="none" stroke-linejoin="round" d="M 340.707396 252.942236 C 340.707396 252.942236 359.258519 236.779007 373.648189 255.387775 " stroke="#3d1717" stroke-width="5" stroke-opacity="1" stroke-miterlimit="4"/><path stroke-linecap="round" transform="matrix(0.723718, 0, 0, 0.723575, 14.697376, 4.215538)" fill="none" stroke-linejoin="round" d="M 228.461494 248.288694 C 228.461494 248.288694 247.012617 232.130864 261.402287 250.739632 " stroke="#3d1717" stroke-width="5" stroke-opacity="1" stroke-miterlimit="4"/><path stroke-linecap="round" transform="matrix(0.723718, 0, 0, 0.723575, 14.697376, 4.215538)" fill="none" stroke-linejoin="round" d="M 198.100694 464.381455 C 198.100694 464.381455 192.730206 431.828259 205.381889 411.038481 " stroke="#3d1717" stroke-width="3" stroke-opacity="1" stroke-miterlimit="4"/><path stroke-linecap="round" transform="matrix(0.723718, 0, 0, 0.723575, 14.697376, 4.215538)" fill="none" stroke-linejoin="round" d="M 349.942476 458.847952 C 349.942476 458.847952 351.917952 438.139152 340.998859 417.311585 " stroke="#3d1717" stroke-width="3" stroke-opacity="1" stroke-miterlimit="4"/><path stroke-linecap="round" transform="matrix(0.723718, 0, 0, 0.723575, 14.697376, 4.215538)" fill-opacity="1" fill="#3d1717" fill-rule="nonzero" stroke-linejoin="round" d="M 228.380532 191.798371 L 215.097345 200.651977 C 215.097345 200.651977 247.439018 197.591005 260.722205 205.07878 C 273.999995 212.571953 276.380282 206.439212 272.979872 202.357916 C 269.579463 198.271221 294.089399 204.738672 299.530055 213.932385 C 304.981505 223.120701 311.442283 207.799644 308.381915 199.631653 C 305.321546 191.458263 315.528172 196.230573 319.608664 199.291545 C 323.69995 202.352517 328.800565 185.671028 339.352629 193.158803 C 349.899297 200.651977 359.442033 201.672301 356.37087 196.899992 C 353.310501 192.127682 343.767764 184.639907 321.98895 179.198179 C 300.199342 173.751052 281.820937 177.837747 263.782574 183.970488 C 245.738813 190.097831 246.418895 193.158803 228.380532 191.798371 Z M 228.380532 191.798371 " stroke="#3d1717" stroke-width="3" stroke-opacity="1" stroke-miterlimit="4"/></svg>