<svg xmlns="http://www.w3.org/2000/svg" xmlns:xlink="http://www.w3.org/1999/xlink" width="500" zoomAndPan="magnify" viewBox="0 0 375 374.999991" height="500" preserveAspectRatio="xMidYMid meet" version="1.0"><path fill="#97e4f4" d="M 290.203125 254.433594 C 280.386719 239.898438 332.957031 213.332031 326.496094 197.199219 C 320.039062 181.066406 294.203125 151.882812 281.28125 99.480469 C 268.363281 47.078125 201.179688 27.679688 212.324219 54.199219 C 223.464844 80.71875 190.84375 93.015625 178.117188 77.484375 C 165.386719 61.960938 187.621094 39.316406 132.597656 52.902344 C 77.5625 66.488281 40.988281 150.585938 50.324219 184.707031 C 59.660156 218.824219 91.371094 215.917969 73.285156 264.433594 C 55.199219 312.949219 92.523438 321.4375 92.523438 321.4375 L 111.035156 316.257812 C 111.035156 316.257812 250.976562 327.1875 275.972656 315.429688 C 300.972656 303.675781 311.644531 292.253906 312.289062 278.019531 C 312.933594 263.789062 300.015625 268.960938 290.203125 254.425781 Z M 290.203125 254.433594 " fill-opacity="1" fill-rule="nonzero"/><path fill="#97e4f4" d="M 44.863281 217.070312 C 35.675781 212.757812 31.65625 218.222656 32.371094 231.730469 C 33.089844 245.242188 38.402344 245.960938 38.402344 245.960938 C 58.210938 245.527344 54.046875 221.378906 44.863281 217.070312 Z M 44.863281 217.070312 " fill-opacity="1" fill-rule="nonzero"/><path fill="#97e4f4" d="M 340.367188 198.636719 C 332.664062 197.4375 334.4375 209.539062 327.527344 224.089844 C 320.609375 238.640625 308.492188 237.792969 308.492188 237.792969 C 298.222656 244.386719 319.492188 250.460938 335.765625 237.601562 C 352.039062 224.742188 348.078125 199.835938 340.367188 198.636719 Z M 340.367188 198.636719 " fill-opacity="1" fill-rule="nonzero"/><path stroke-linecap="round" transform="matrix(0.676912, 0, 0, 0.677894, 22.043087, 26.173709)" fill-opacity="1" fill="#8e959f" fill-rule="nonzero" stroke-linejoin="round" d="M 172.128 154.589072 C 172.128 154.589072 128.847816 119.127696 83.20742 143.041364 C 37.578566 166.949269 1.067403 224.647475 30.728755 235.549802 C 30.728755 235.549802 40.238854 233.509938 41.877731 219.628486 C 41.877731 219.628486 49.039158 287.157226 71.389045 276.992477 C 71.389045 276.992477 81.94941 270.970842 81.86862 261.497573 C 81.86862 261.497573 112.811066 295.927492 119.68973 280.449874 C 118.812585 278.000884 120.757308 273.419832 116.821696 267.092795 C 116.821696 267.092795 141.202866 275.96102 165.122381 262.67885 C 165.122381 262.67885 129.321013 206.098536 172.139541 154.577547 Z M 172.128 154.589072 " stroke="#102a45" stroke-width="3" stroke-opacity="1" stroke-miterlimit="4"/><path stroke-linecap="round" transform="matrix(0.676912, 0, 0, 0.677894, 22.043087, 26.173709)" fill-opacity="1" fill="#fdb5b6" fill-rule="nonzero" stroke-linejoin="round" d="M 88.701118 207.527594 C 88.701118 207.527594 82.791931 223.402812 73.841589 217.767253 C 64.891247 212.137457 62.548346 179.488098 102.100663 166.361511 C 141.647209 153.229162 160.009549 178.128188 160.009549 178.128188 C 160.009549 178.128188 142.997551 216.390057 161.457992 253.747239 C 161.457992 253.747239 138.761864 263.577774 123.659965 241.617536 C 108.558066 219.657298 122.580846 258.610645 106.590261 251.090805 C 90.599676 243.559441 98.557459 198.809189 88.689577 207.527594 Z M 88.701118 207.527594 " stroke="#102a45" stroke-width="3" stroke-opacity="1" stroke-miterlimit="4"/><path stroke-linecap="round" transform="matrix(0.676912, 0, 0, 0.677894, 22.043087, 26.173709)" fill-opacity="1" fill="#8e959f" fill-rule="nonzero" stroke-linejoin="round" d="M 305.661793 153.338646 C 305.661793 153.338646 348.941976 117.87727 394.582372 141.790938 C 440.222768 165.687319 476.72816 223.402812 447.061037 234.299377 C 447.061037 234.299377 437.550938 232.259512 435.912062 218.37806 C 435.912062 218.37806 428.750634 285.912563 406.400748 275.742051 C 406.400748 275.742051 395.840383 269.720417 395.921172 260.247147 C 395.921172 260.247147 364.978727 294.682829 358.100063 279.199449 C 358.977208 276.750459 357.032485 272.169407 360.968096 265.842369 C 360.968096 265.842369 336.592697 274.710594 312.667412 261.428425 C 312.667412 261.428425 348.468779 204.848111 305.650251 153.332884 Z M 305.661793 153.338646 " stroke="#102a45" stroke-width="3" stroke-opacity="1" stroke-miterlimit="4"/><path stroke-linecap="round" transform="matrix(0.676912, 0, 0, 0.677894, 22.043087, 26.173709)" fill-opacity="1" fill="#fdb5b6" fill-rule="nonzero" stroke-linejoin="round" d="M 389.088674 206.277168 C 389.088674 206.277168 394.997862 222.152386 403.948204 216.52259 C 412.898546 210.892794 415.241446 178.237673 375.689129 165.111086 C 336.142583 151.978737 317.780244 176.877763 317.780244 176.877763 C 317.780244 176.877763 334.792241 215.139631 316.3318 252.502576 C 316.3318 252.502576 339.027929 262.327348 354.129827 240.372872 C 369.231726 218.412634 355.208947 257.36022 371.199532 249.84038 C 387.190117 242.309015 379.232334 197.558764 389.100216 206.277168 Z M 389.088674 206.277168 " stroke="#102a45" stroke-width="3" stroke-opacity="1" stroke-miterlimit="4"/><path stroke-linecap="round" transform="matrix(0.676912, 0, 0, 0.677894, 22.043087, 26.173709)" fill-opacity="1" fill="#8e959f" fill-rule="nonzero" stroke-linejoin="round" d="M 375.129372 426.697799 C 375.129372 426.697799 356.432333 438.349229 325.120563 448.681086 C 285.741367 461.692427 226.40135 472.629328 159.311295 455.630456 C 141.387528 451.101265 122.921317 444.572545 104.120405 435.560262 C 101.950625 434.511518 128.70932 338.430435 244.082748 336.742072 C 359.427322 335.047947 375.129372 426.697799 375.129372 426.697799 Z M 375.129372 426.697799 " stroke="#102a45" stroke-width="3" stroke-opacity="1" stroke-miterlimit="4"/><path stroke-linecap="round" transform="matrix(0.676912, 0, 0, 0.677894, 22.043087, 26.173709)" fill-opacity="1" fill="#e9eaee" fill-rule="nonzero" stroke-linejoin="round" d="M 301.541519 381.498086 C 300.791329 379.67719 290.017449 376.340801 286.260729 358.719597 C 282.498238 341.098393 247.429748 341.098393 223.389049 342.008841 C 221.39239 342.089514 205.101729 342.308482 194.581759 362.061748 C 184.061789 381.797727 179.300969 381.198445 179.300969 381.198445 C 179.300969 381.198445 186.560498 385.871694 196.110992 380.299521 C 192.769762 382.702413 184.967788 390.279876 185.562169 408.229533 C 185.562169 408.229533 193.577659 397.897676 199.590719 394.860928 C 199.590719 394.860928 184.811979 414.297266 197.340149 437.081517 C 197.340149 437.081517 204.847819 416.728969 210.37037 413.991862 C 210.37037 413.991862 207.410005 419.932824 209.920256 431.509344 C 199.181 443.662097 193.5892 461.721238 195.118433 461.888346 C 251.642353 467.990653 287.709172 458.298414 287.709172 458.298414 C 282.688671 445.840258 276.710235 437.13914 270.218208 431.180891 C 271.470448 426.571028 272.272574 421.269685 272.49186 415.207714 C 272.49186 415.207714 281.75959 423.407509 283.76202 437.692324 C 283.76202 437.692324 291.77751 425.23993 283.76202 397.897676 C 283.76202 397.897676 292.27956 400.329379 295.03218 408.84034 C 295.03218 408.84034 302.79953 399.11929 284.258299 379.982593 C 284.258299 379.982593 288.77098 383.019341 301.541519 381.498086 Z M 301.541519 381.498086 " stroke="#102a45" stroke-width="3" stroke-opacity="1" stroke-miterlimit="4"/><path stroke-linecap="round" transform="matrix(0.676912, 0, 0, 0.677894, 22.043087, 26.173709)" fill-opacity="1" fill="#8e959f" fill-rule="nonzero" stroke-linejoin="round" d="M 350.130738 237.071057 C 350.130738 176.168996 300.762476 126.797356 239.858602 126.797356 C 178.960498 126.797356 129.592236 176.168996 129.592236 237.071057 C 129.592236 251.10233 136.770975 302.761615 139.529366 309.808944 C 143.770824 320.619074 149.92238 300.888857 149.92238 300.888857 C 149.92238 300.888857 152.888516 320.838042 159.669078 328.259923 C 166.461181 335.681803 170.131341 322.497593 170.131341 322.497593 C 189.128456 338.032834 213.411524 347.350521 239.858602 347.350521 C 267.89839 347.350521 293.491405 336.880368 312.938634 319.639478 C 312.182674 321.437325 311.761413 322.497593 311.761413 322.497593 C 311.761413 322.497593 315.431573 335.681803 322.217905 328.259923 C 329.010009 320.838042 331.970373 300.888857 331.970373 300.888857 C 331.970373 300.888857 338.12193 320.630599 342.357617 309.808944 C 345.698848 301.292221 350.130738 249.050941 350.130738 237.071057 Z M 350.130738 237.071057 " stroke="#102a45" stroke-width="3" stroke-opacity="1" stroke-miterlimit="4"/><path fill="#e9eaee" d="M 184.988281 261.132812 C 184.042969 261.1875 152.816406 257.144531 148.335938 239.589844 C 143.859375 222.023438 165.933594 197.347656 173.210938 193.578125 C 179.011719 190.570312 206.21875 184.429688 220.25 229.828125 C 222.957031 238.578125 218.894531 247.878906 209.113281 254.109375 C 203.578125 257.632812 195.8125 260.496094 184.996094 261.136719 Z M 184.988281 261.132812 " fill-opacity="1" fill-rule="nonzero"/><path stroke-linecap="round" transform="matrix(0.676912, 0, 0, 0.677894, 22.043087, 26.173709)" fill="none" stroke-linejoin="round" d="M 163.962472 215.888734 C 164.377962 215.249115 179.860726 191.721524 207.427318 206.352079 " stroke="#102a45" stroke-width="6" stroke-opacity="1" stroke-miterlimit="4"/><path stroke-linecap="round" transform="matrix(0.676912, 0, 0, 0.677894, 22.043087, 26.173709)" fill="none" stroke-linejoin="round" d="M 317.191633 215.888734 C 316.770373 215.249115 301.287609 191.721524 273.721017 206.352079 " stroke="#102a45" stroke-width="6" stroke-opacity="1" stroke-miterlimit="4"/><path stroke-linecap="round" transform="matrix(0.586223, -0.338947, 0.338456, 0.587074, -33.294467, 146.079643)" fill-opacity="1" fill="#102a45" fill-rule="nonzero" stroke-linejoin="round" d="M 298.546783 240.990428 C 298.552402 241.765509 298.488643 242.533803 298.36838 243.29609 C 298.248118 244.058377 298.074998 244.796801 297.836146 245.510581 C 297.602291 246.227247 297.313463 246.912174 296.975424 247.555382 C 296.629506 248.200694 296.245138 248.797192 295.80656 249.349085 C 295.375862 249.898873 294.899599 250.389085 294.390647 250.820502 C 293.876697 251.249034 293.340819 251.611674 292.770135 251.907644 C 292.204449 252.206499 291.619716 252.434473 291.013818 252.583691 C 290.412918 252.735793 289.803731 252.80992 289.191253 252.808955 C 288.575894 252.812981 287.968005 252.73482 287.361823 252.584454 C 286.76352 252.431982 286.174803 252.205201 285.605668 251.909879 C 285.039413 251.609567 284.499854 251.251476 283.990636 250.817749 C 283.478537 250.389014 283.003893 249.895403 282.573818 249.34768 C 282.138746 248.797071 281.750359 248.200225 281.408657 247.557142 C 281.066956 246.914058 280.776937 246.227622 280.542835 245.513585 C 280.303735 244.796663 280.130546 244.057911 280.010392 243.296548 C 279.890237 242.535185 279.82735 241.766963 279.82961 240.989777 C 279.831869 240.212591 279.88775 239.446402 280.008013 238.684115 C 280.128275 237.921828 280.306392 237.18629 280.543128 236.464633 C 280.776983 235.747968 281.06293 235.068031 281.408848 234.422718 C 281.746887 233.779511 282.139134 233.180908 282.569833 232.63112 C 283.005529 232.084217 283.476794 231.59112 283.990744 231.162588 C 284.499696 230.731172 285.043453 230.366426 285.609139 230.067571 C 286.176941 229.776591 286.761675 229.548617 287.362575 229.396515 C 287.968472 229.247297 288.572662 229.170286 289.193019 229.169145 C 289.805496 229.17011 290.413386 229.248271 291.01457 229.395751 C 291.61787 229.551108 292.204471 229.770014 292.770725 230.070326 C 293.339861 230.365648 293.881536 230.731615 294.390754 231.165341 C 294.902854 231.594077 295.3725 232.084802 295.810454 232.63042 C 296.245526 233.181029 296.633913 233.777875 296.972733 234.425949 C 297.314435 235.069033 297.602337 235.747593 297.838556 236.469505 C 298.072658 237.183542 298.250845 237.92518 298.370999 238.686542 C 298.491153 239.447905 298.549042 240.213242 298.546783 240.990428 Z M 298.546783 240.990428 " stroke="#102a45" stroke-width="3" stroke-opacity="1" stroke-miterlimit="4"/><path stroke-linecap="round" transform="matrix(0.338456, -0.587074, 0.586223, 0.338947, -53.818439, 220.254814)" fill-opacity="1" fill="#102a45" fill-rule="nonzero" stroke-linejoin="round" d="M 203.8892 240.213618 C 203.888059 240.833975 203.811828 241.451041 203.65762 242.05982 C 203.503413 242.668598 203.281209 243.263327 202.980249 243.836892 C 202.674299 244.413337 202.309553 244.957094 201.871041 245.476806 C 201.432529 245.996518 200.937326 246.475663 200.377558 246.912124 C 199.825665 247.350701 199.222072 247.745829 198.563893 248.092512 C 197.910705 248.436313 197.220788 248.728022 196.494141 248.96764 C 195.767495 249.207257 195.01909 249.386138 194.243937 249.507166 C 193.47666 249.630309 192.697605 249.686955 191.907553 249.689979 C 191.122491 249.690122 190.341403 249.628 189.572164 249.50573 C 188.802926 249.383459 188.053413 249.203156 187.32651 248.969818 C 186.596722 248.731483 185.907401 248.436467 185.256441 248.092649 C 184.597606 247.746715 183.997875 247.35333 183.43939 246.916142 C 182.883011 246.471074 182.386516 245.991432 181.949904 245.477217 C 181.510407 244.958004 181.141555 244.411331 180.843348 243.837198 C 180.54015 243.265946 180.315474 242.66935 180.162222 242.058171 C 180.00398 241.449872 179.927924 240.834105 179.929065 240.213748 C 179.92732 239.588394 180.008541 238.968446 180.162749 238.359668 C 180.316957 237.750889 180.53916 237.156161 180.84012 236.582596 C 181.14108 236.009031 181.510816 235.462393 181.949328 234.942681 C 182.38285 234.42585 182.883043 233.943825 183.437821 233.510245 C 183.994705 233.068787 184.598298 232.673658 185.256476 232.326976 C 185.909664 231.983174 186.599582 231.691465 187.326228 231.451848 C 188.052875 231.212231 188.801279 231.033349 189.571442 230.915203 C 190.34371 230.789178 191.122765 230.732532 191.912817 230.729508 C 192.697879 230.729365 193.478966 230.791487 194.248205 230.913758 C 195.017443 231.036029 195.766957 231.216332 196.493859 231.449669 C 197.218657 231.690886 197.912969 231.983021 198.563928 232.326838 C 199.217773 232.675654 199.822495 233.066157 200.383864 233.508344 C 200.937358 233.948414 201.433854 234.428055 201.870465 234.942271 C 202.309962 235.461484 202.678814 236.008157 202.977021 236.58229 C 203.280219 237.153542 203.504896 237.750138 203.658147 238.361317 C 203.811399 238.972496 203.887455 239.588264 203.8892 240.213618 Z M 203.8892 240.213618 " stroke="#102a45" stroke-width="3" stroke-opacity="1" stroke-miterlimit="4"/><path stroke-linecap="round" transform="matrix(0.676912, 0, 0, 0.677894, 22.043087, 26.173709)" fill-opacity="1" fill="#fdb5b6" fill-rule="nonzero" stroke-linejoin="round" d="M 224.768244 309.918428 C 224.768244 309.918428 248.410766 331.198711 260.079103 308.817823 C 259.680926 308.840872 251.809703 308.270402 247.222004 301.540001 C 245.098389 298.428343 241.278192 298.428343 239.281533 301.672534 C 236.407728 306.328497 231.08138 309.791657 224.768244 309.929953 Z M 224.768244 309.918428 " stroke="#102a45" stroke-width="3" stroke-opacity="1" stroke-miterlimit="4"/><path stroke-linecap="round" transform="matrix(0.676912, 0, 0, 0.677894, 22.043087, 26.173709)" fill-opacity="1" fill="#102a45" fill-rule="nonzero" stroke-linejoin="round" d="M 228.328761 231.66023 C 217.601046 255.57966 210.381911 292.902269 242.761259 297.702289 C 243.447972 297.800249 244.151996 297.800249 244.838708 297.702289 C 251.209551 296.73998 281.020941 289.081844 253.350478 231.56227 C 248.468473 221.42057 232.951084 221.339898 228.317219 231.66023 Z M 228.328761 231.66023 " stroke="#102a45" stroke-width="3" stroke-opacity="1" stroke-miterlimit="4"/><path stroke-linecap="round" transform="matrix(0.676912, 0, 0, 0.677894, 22.043087, 26.173709)" fill="none" stroke-linejoin="round" d="M 204.570825 301.931839 C 204.570825 301.931839 225.962777 317.380645 238.969915 301.182736 C 241.110842 298.52054 245.121472 298.290047 247.337417 300.877333 C 252.259817 306.599326 262.05845 312.782306 279.520562 305.527533 " stroke="#102a45" stroke-width="3" stroke-opacity="1" stroke-miterlimit="4"/><path stroke-linecap="round" transform="matrix(0.676912, 0, 0, 0.677894, 22.043087, 26.173709)" fill="none" stroke-linejoin="round" d="M 159.311295 455.630456 C 159.092009 454.679671 158.999678 414.349127 182.578722 394.100301 " stroke="#102a45" stroke-width="3" stroke-opacity="1" stroke-miterlimit="4"/><path stroke-linecap="round" transform="matrix(0.676912, 0, 0, 0.677894, 22.043087, 26.173709)" fill="none" stroke-linejoin="round" d="M 325.120563 448.681086 C 325.247518 449.649158 329.177359 414.458611 301.818512 394.100301 " stroke="#102a45" stroke-width="3" stroke-opacity="1" stroke-miterlimit="4"/><path fill="#e9eaee" d="M 222.035156 186.683594 C 222.035156 186.992188 221.984375 187.289062 221.875 187.574219 C 221.769531 187.859375 221.613281 188.113281 221.417969 188.328125 C 221.21875 188.546875 220.988281 188.714844 220.730469 188.832031 C 220.46875 188.953125 220.199219 189.011719 219.917969 189.011719 C 219.636719 189.011719 219.367188 188.953125 219.105469 188.832031 C 218.847656 188.714844 218.617188 188.546875 218.417969 188.328125 C 218.222656 188.113281 218.066406 187.859375 217.960938 187.574219 C 217.851562 187.289062 217.800781 186.992188 217.800781 186.683594 C 217.800781 186.378906 217.851562 186.082031 217.960938 185.796875 C 218.066406 185.511719 218.222656 185.257812 218.417969 185.042969 C 218.617188 184.824219 218.847656 184.65625 219.105469 184.539062 C 219.367188 184.417969 219.636719 184.359375 219.917969 184.359375 C 220.199219 184.359375 220.46875 184.417969 220.730469 184.539062 C 220.988281 184.65625 221.21875 184.824219 221.417969 185.042969 C 221.613281 185.257812 221.769531 185.511719 221.875 185.796875 C 221.984375 186.082031 222.035156 186.378906 222.035156 186.683594 Z M 222.035156 186.683594 " fill-opacity="1" fill-rule="nonzero"/><path fill="#e9eaee" d="M 198.179688 210.128906 C 198.214844 210.703125 198.230469 211.277344 198.230469 211.84375 C 198.230469 212.410156 198.214844 212.960938 198.183594 213.496094 C 198.148438 214.03125 198.101562 214.542969 198.039062 215.027344 C 197.976562 215.507812 197.898438 215.957031 197.808594 216.371094 C 197.714844 216.785156 197.613281 217.15625 197.496094 217.484375 C 197.378906 217.8125 197.253906 218.089844 197.117188 218.316406 C 196.980469 218.546875 196.835938 218.722656 196.683594 218.84375 C 196.53125 218.964844 196.375 219.03125 196.210938 219.039062 C 196.050781 219.046875 195.886719 219 195.722656 218.898438 C 195.558594 218.792969 195.394531 218.636719 195.234375 218.425781 C 195.070312 218.210938 194.914062 217.949219 194.761719 217.636719 C 194.609375 217.324219 194.464844 216.96875 194.328125 216.566406 C 194.191406 216.167969 194.066406 215.730469 193.949219 215.253906 C 193.832031 214.78125 193.726562 214.28125 193.636719 213.75 C 193.542969 213.222656 193.46875 212.675781 193.402344 212.113281 C 193.339844 211.550781 193.292969 210.980469 193.261719 210.40625 C 193.226562 209.828125 193.210938 209.257812 193.210938 208.691406 C 193.210938 208.125 193.226562 207.574219 193.261719 207.039062 C 193.292969 206.503906 193.339844 205.992188 193.402344 205.507812 C 193.464844 205.023438 193.542969 204.574219 193.632812 204.164062 C 193.726562 203.75 193.828125 203.378906 193.945312 203.050781 C 194.0625 202.722656 194.1875 202.445312 194.324219 202.214844 C 194.460938 201.988281 194.605469 201.8125 194.757812 201.691406 C 194.910156 201.570312 195.066406 201.503906 195.230469 201.496094 C 195.390625 201.484375 195.554688 201.535156 195.71875 201.636719 C 195.882812 201.742188 196.046875 201.898438 196.207031 202.109375 C 196.371094 202.320312 196.527344 202.585938 196.679688 202.898438 C 196.832031 203.210938 196.976562 203.566406 197.113281 203.96875 C 197.25 204.367188 197.375 204.804688 197.492188 205.277344 C 197.609375 205.753906 197.714844 206.253906 197.804688 206.78125 C 197.898438 207.3125 197.976562 207.855469 198.039062 208.421875 C 198.101562 208.984375 198.148438 209.554688 198.179688 210.128906 Z M 198.179688 210.128906 " fill-opacity="1" fill-rule="nonzero"/><path fill="#e9eaee" d="M 157 186.496094 C 157 186.800781 156.945312 187.09375 156.839844 187.375 C 156.734375 187.65625 156.582031 187.90625 156.382812 188.121094 C 156.1875 188.335938 155.960938 188.503906 155.703125 188.617188 C 155.445312 188.734375 155.179688 188.792969 154.902344 188.792969 C 154.621094 188.792969 154.355469 188.734375 154.097656 188.617188 C 153.839844 188.503906 153.613281 188.335938 153.417969 188.121094 C 153.21875 187.90625 153.070312 187.65625 152.960938 187.375 C 152.855469 187.09375 152.800781 186.800781 152.800781 186.496094 C 152.800781 186.191406 152.855469 185.898438 152.960938 185.617188 C 153.070312 185.335938 153.21875 185.085938 153.417969 184.871094 C 153.613281 184.65625 153.839844 184.488281 154.097656 184.371094 C 154.355469 184.257812 154.621094 184.199219 154.902344 184.199219 C 155.179688 184.199219 155.445312 184.257812 155.703125 184.371094 C 155.960938 184.488281 156.1875 184.65625 156.382812 184.871094 C 156.582031 185.085938 156.734375 185.335938 156.839844 185.617188 C 156.945312 185.898438 157 186.191406 157 186.496094 Z M 157 186.496094 " fill-opacity="1" fill-rule="nonzero"/><path stroke-linecap="round" transform="matrix(0.676912, 0, 0, 0.677894, 22.043087, 26.173709)" fill-opacity="1" fill="#e9eaee" fill-rule="nonzero" stroke-linejoin="round" d="M 217.901122 130.600494 C 217.901122 130.600494 235.1728 118.972113 235.651768 105.597746 C 236.130735 92.229141 235.778723 89.250017 235.778723 89.250017 C 235.778723 89.250017 246.679559 94.55136 249.368701 110.167273 C 249.368701 110.167273 265.532406 89.399838 281.217145 97.622682 C 281.217145 97.622682 263.980091 108.790077 263.720409 121.622784 C 263.720409 121.622784 272.087912 111.671241 280.097631 114.817473 C 288.10735 117.969468 292.602719 125.039846 292.602719 125.039846 C 292.602719 125.039846 278.522232 125.529644 270.99148 129.989687 C 270.99148 129.989687 284.962324 135.129685 277.829749 149.702616 C 277.829749 149.702616 265.769005 131.931592 247.470143 138.408451 " stroke="#102a45" stroke-width="3" stroke-opacity="1" stroke-miterlimit="4"/><path fill="#e9eaee" d="M 233.824219 204.382812 C 234.40625 204.457031 234.980469 204.558594 235.542969 204.683594 C 236.109375 204.808594 236.652344 204.953125 237.175781 205.125 C 237.699219 205.292969 238.195312 205.484375 238.660156 205.691406 C 239.125 205.902344 239.550781 206.125 239.9375 206.363281 C 240.324219 206.601562 240.664062 206.851562 240.960938 207.113281 C 241.253906 207.371094 241.5 207.640625 241.691406 207.910156 C 241.882812 208.183594 242.015625 208.453125 242.097656 208.726562 C 242.175781 209 242.199219 209.269531 242.167969 209.53125 C 242.132812 209.792969 242.042969 210.046875 241.894531 210.289062 C 241.75 210.535156 241.550781 210.761719 241.296875 210.976562 C 241.042969 211.191406 240.738281 211.386719 240.386719 211.566406 C 240.039062 211.742188 239.644531 211.898438 239.210938 212.03125 C 238.773438 212.164062 238.304688 212.273438 237.804688 212.355469 C 237.300781 212.441406 236.773438 212.496094 236.226562 212.527344 C 235.675781 212.5625 235.109375 212.566406 234.535156 212.542969 C 233.957031 212.519531 233.378906 212.472656 232.796875 212.398438 C 232.214844 212.324219 231.640625 212.222656 231.078125 212.097656 C 230.515625 211.972656 229.972656 211.824219 229.445312 211.65625 C 228.921875 211.484375 228.429688 211.296875 227.964844 211.089844 C 227.5 210.878906 227.074219 210.65625 226.6875 210.417969 C 226.296875 210.179688 225.957031 209.929688 225.664062 209.667969 C 225.367188 209.40625 225.125 209.140625 224.933594 208.871094 C 224.742188 208.597656 224.605469 208.324219 224.527344 208.054688 C 224.445312 207.78125 224.421875 207.511719 224.457031 207.25 C 224.488281 206.988281 224.578125 206.734375 224.726562 206.488281 C 224.871094 206.246094 225.074219 206.015625 225.328125 205.804688 C 225.582031 205.589844 225.882812 205.394531 226.234375 205.214844 C 226.585938 205.039062 226.976562 204.882812 227.414062 204.75 C 227.847656 204.617188 228.316406 204.507812 228.820312 204.425781 C 229.320312 204.339844 229.847656 204.28125 230.398438 204.25 C 230.949219 204.21875 231.511719 204.214844 232.089844 204.238281 C 232.664062 204.257812 233.246094 204.308594 233.824219 204.382812 Z M 233.824219 204.382812 " fill-opacity="1" fill-rule="nonzero"/><path fill="#e9eaee" d="M 146.316406 207.277344 C 146.347656 207.539062 146.324219 207.808594 146.246094 208.078125 C 146.164062 208.351562 146.027344 208.625 145.835938 208.898438 C 145.644531 209.167969 145.402344 209.433594 145.109375 209.695312 C 144.8125 209.957031 144.472656 210.203125 144.085938 210.445312 C 143.699219 210.683594 143.273438 210.90625 142.808594 211.113281 C 142.34375 211.324219 141.847656 211.511719 141.324219 211.683594 C 140.800781 211.851562 140.253906 212 139.691406 212.125 C 139.128906 212.25 138.554688 212.347656 137.972656 212.425781 C 137.390625 212.5 136.8125 212.546875 136.234375 212.570312 C 135.660156 212.59375 135.097656 212.585938 134.546875 212.554688 C 133.996094 212.523438 133.46875 212.464844 132.96875 212.382812 C 132.464844 212.300781 131.996094 212.191406 131.5625 212.058594 C 131.125 211.925781 130.734375 211.769531 130.382812 211.59375 C 130.03125 211.414062 129.726562 211.21875 129.472656 211.003906 C 129.222656 210.789062 129.019531 210.5625 128.875 210.316406 C 128.726562 210.074219 128.636719 209.820312 128.601562 209.558594 C 128.570312 209.292969 128.59375 209.027344 128.671875 208.753906 C 128.753906 208.480469 128.890625 208.210938 129.082031 207.9375 C 129.273438 207.664062 129.515625 207.398438 129.808594 207.140625 C 130.105469 206.878906 130.445312 206.628906 130.832031 206.390625 C 131.21875 206.152344 131.644531 205.925781 132.109375 205.71875 C 132.574219 205.511719 133.070312 205.320312 133.59375 205.152344 C 134.117188 204.980469 134.664062 204.835938 135.226562 204.710938 C 135.789062 204.585938 136.363281 204.484375 136.945312 204.410156 C 137.527344 204.335938 138.105469 204.285156 138.683594 204.265625 C 139.257812 204.242188 139.820312 204.246094 140.371094 204.277344 C 140.921875 204.308594 141.449219 204.367188 141.949219 204.453125 C 142.453125 204.535156 142.921875 204.644531 143.355469 204.777344 C 143.792969 204.910156 144.183594 205.066406 144.535156 205.242188 C 144.886719 205.417969 145.191406 205.613281 145.445312 205.828125 C 145.695312 206.042969 145.898438 206.273438 146.042969 206.515625 C 146.191406 206.761719 146.28125 207.011719 146.316406 207.277344 Z M 146.316406 207.277344 " fill-opacity="1" fill-rule="nonzero"/></svg>