<svg xmlns="http://www.w3.org/2000/svg" xmlns:xlink="http://www.w3.org/1999/xlink" width="500" zoomAndPan="magnify" viewBox="0 0 375 374.999991" height="500" preserveAspectRatio="xMidYMid meet" version="1.0"><defs><clipPath id="7edae47a4b"><path d="M 127 26.535156 L 263 26.535156 L 263 113 L 127 113 Z M 127 26.535156 " clip-rule="nonzero"/></clipPath></defs><path fill="#ffe7c3" d="M 79.078125 322.480469 L 69.679688 330.203125 C 69.679688 330.203125 42.625 326.964844 48.257812 234.839844 C 53.890625 142.71875 166.820312 82.914062 191.234375 83.574219 C 215.652344 84.230469 278.304688 122.578125 305.363281 187.5625 C 332.421875 252.546875 325.328125 282.898438 296.339844 319.9375 C 296.339844 319.9375 200.933594 264.953125 79.082031 322.480469 Z M 79.078125 322.480469 " fill-opacity="1" fill-rule="nonzero"/><path stroke-linecap="round" transform="matrix(0.757066, 0, 0, 0.756347, 4.649286, -1.5243)" fill-opacity="1" fill="#faf1e2" fill-rule="nonzero" stroke-linejoin="round" d="M 178.339561 223.722455 C 177.369533 225.700507 178.401477 262.338371 175.398518 271.092414 C 172.400719 279.841292 173.370747 284.830322 184.072013 276.840644 C 194.76812 268.850966 179.908117 349.000813 164.222557 357.951112 C 148.531838 366.90141 94.148353 358.260989 85.897955 438.581269 C 85.897955 438.581269 92.419845 462.477998 160.321806 440.600638 C 228.218607 418.718113 240.782534 423.46957 274.052431 437.620648 C 307.322328 451.761397 378.861894 438.261062 385.228992 426.842072 C 391.61157 415.428246 389.852105 378.418529 338.837919 367.650281 C 287.818573 356.892363 303.978827 269.610166 309.510051 269.20216 C 315.041274 268.799319 314.778128 278.167953 317.53858 278.240258 C 320.299032 278.312562 309.561648 247.128544 316.718184 247.319636 C 323.87988 247.510727 320.789206 260.117581 323.719929 253.579164 C 326.650652 247.040746 320.598296 206.049101 320.598296 206.049101 C 320.598296 206.049101 194.680405 190.498409 178.329241 223.712125 Z M 178.339561 223.722455 " stroke="#102a45" stroke-width="3" stroke-opacity="1" stroke-miterlimit="4"/><path stroke-linecap="round" transform="matrix(0.757066, 0, 0, 0.756347, 4.649286, -1.5243)" fill-opacity="1" fill="#faf1e2" fill-rule="nonzero" stroke-linejoin="round" d="M 191.440099 133.780475 C 189.221417 134.090352 181.290922 141.961244 171.162385 162.65074 C 161.039008 183.340236 159.769716 230.018135 159.769716 230.018135 C 159.769716 230.018135 164.54762 216.538458 168.83019 221.439689 C 173.107601 226.340921 179.701728 254.467479 227.05251 258.33062 C 227.05251 258.33062 243.057972 264.652124 247.479855 264.399057 C 251.901738 264.151155 246.571744 257.390658 246.571744 257.390658 C 246.571744 257.390658 282.947794 258.738626 302.828209 244.200201 C 322.718943 229.661776 324.390693 208.739872 326.227555 208.791518 C 328.069576 208.837999 334.421196 218.578486 334.421196 218.578486 C 334.421196 218.578486 337.290002 194.020684 328.291444 173.537774 C 319.282567 153.070357 318.797553 143.861827 318.797553 143.861827 C 318.797553 143.861827 274.908945 134.94768 254.228773 124.447993 C 233.548602 113.948307 191.450418 133.780475 191.450418 133.780475 Z M 191.440099 133.780475 " stroke="#102a45" stroke-width="3" stroke-opacity="1" stroke-miterlimit="4"/><path fill="#e69057" d="M 168.046875 136.328125 C 168.046875 136.328125 139.421875 136.804688 136.652344 123.582031 C 136.652344 123.582031 134.402344 129.363281 135.523438 134.398438 C 136.636719 139.4375 138.597656 144.285156 141.550781 143.324219 C 144.503906 142.363281 141.9375 136.660156 143.78125 137.960938 C 145.628906 139.261719 151.617188 149.230469 156.214844 149.359375 C 160.808594 149.488281 154.898438 144.109375 158.242188 143.988281 C 161.589844 143.867188 167.628906 144.246094 168.054688 136.328125 Z M 168.046875 136.328125 " fill-opacity="1" fill-rule="nonzero"/><path stroke-linecap="round" transform="matrix(0.757066, 0, 0, 0.756347, 4.649286, -1.5243)" fill-opacity="1" fill="#e5b58d" fill-rule="nonzero" stroke-linejoin="round" d="M 235.488658 168.367982 C 227.191822 166.689478 218.65248 169.819242 212.997423 176.130416 C 203.570608 186.681749 189.840584 205.718565 195.769107 221.992305 C 204.499359 245.951009 230.659157 247.490068 247.319904 243.528799 C 263.980651 239.56753 273.990514 216.388684 263.268609 194.309904 C 255.570302 178.439005 246.798772 170.661076 235.488658 168.367982 Z M 235.488658 168.367982 " stroke="#102a45" stroke-width="3" stroke-opacity="1" stroke-miterlimit="4"/><path stroke-linecap="round" transform="matrix(0.757066, 0, 0, 0.756347, 4.649286, -1.5243)" fill-opacity="1" fill="#faf1e2" fill-rule="nonzero" stroke-linejoin="round" d="M 311.5791 114.438946 C 311.5791 114.438946 318.338337 91.931502 350.442137 80.512511 C 382.530457 69.098685 398.989975 78.31238 398.989975 78.31238 C 398.989975 78.31238 365.260863 150.627488 316.248649 123.921202 L 311.589419 114.428617 Z M 311.5791 114.438946 " stroke="#102a45" stroke-width="3" stroke-opacity="1" stroke-miterlimit="4"/><path stroke-linecap="round" transform="matrix(0.757066, 0, 0, 0.756347, 4.649286, -1.5243)" fill-opacity="1" fill="#e69057" fill-rule="nonzero" stroke-linejoin="round" d="M 373.129441 93.610005 C 373.717649 92.768171 342.150461 86.901155 315.748156 116.757864 L 317.187719 122.650703 C 317.187719 122.650703 357.789583 115.409896 373.129441 93.599676 Z M 373.129441 93.610005 " stroke="#102a45" stroke-width="3" stroke-opacity="1" stroke-miterlimit="4"/><path stroke-linecap="round" transform="matrix(0.757066, 0, 0, 0.756347, 4.649286, -1.5243)" fill-opacity="1" fill="#faf1e2" fill-rule="nonzero" stroke-linejoin="round" d="M 216.542153 118.167807 C 216.542153 118.167807 193.080891 116.732041 174.629719 88.099348 C 156.188868 59.471821 161.400189 41.328486 161.400189 41.328486 C 161.400189 41.328486 239.508082 57.638378 224.709995 111.458956 Z M 216.542153 118.167807 " stroke="#102a45" stroke-width="3" stroke-opacity="1" stroke-miterlimit="4"/><path stroke-linecap="round" transform="matrix(0.757066, 0, 0, 0.756347, 4.649286, -1.5243)" fill-opacity="1" fill="#e69057" fill-rule="nonzero" stroke-linejoin="round" d="M 182.199034 63.00959 C 181.239325 62.632572 182.740805 94.710071 217.847563 113.581618 L 223.260113 110.839201 C 223.260113 110.839201 206.929588 72.972156 182.199034 63.019919 Z M 182.199034 63.00959 " stroke="#102a45" stroke-width="3" stroke-opacity="1" stroke-miterlimit="4"/><path stroke-linecap="round" transform="matrix(0.757066, 0, 0, 0.756347, 4.649286, -1.5243)" fill-opacity="1" fill="#102a45" fill-rule="nonzero" stroke-linejoin="round" d="M 205.562262 189.697892 C 204.979213 189.71855 214.720771 197.672076 220.571897 198.932245 C 226.417864 200.192414 244.270507 193.137533 244.270507 193.137533 C 244.270507 193.137533 216.78982 189.269228 205.562262 189.697892 Z M 205.562262 189.697892 " stroke="#102a45" stroke-width="3" stroke-opacity="1" stroke-miterlimit="4"/><path stroke-linecap="round" transform="matrix(0.757066, 0, 0, 0.756347, 4.649286, -1.5243)" fill="none" stroke-linejoin="round" d="M 220.571897 198.942574 C 220.571897 198.942574 216.841417 214.467443 220.881481 221.568805 C 224.921544 228.670167 248.738828 231.701803 256.282343 218.118834 " stroke="#102a45" stroke-width="3" stroke-opacity="1" stroke-miterlimit="4"/><path stroke-linecap="round" transform="matrix(0.757066, 0, 0, 0.756347, 4.649286, -1.5243)" fill="none" stroke-linejoin="round" d="M 194.747481 215.340265 C 194.747481 215.340265 202.058809 230.622396 219.942411 222.090432 " stroke="#102a45" stroke-width="3" stroke-opacity="1" stroke-miterlimit="4"/><path stroke-linecap="round" transform="matrix(0.757066, 0, 0, 0.756347, 4.649286, -1.5243)" fill="none" stroke-linejoin="round" d="M 228.708781 156.680431 L 214.720771 174.090389 " stroke="#102a45" stroke-width="3" stroke-opacity="1" stroke-miterlimit="4"/><path stroke-linecap="round" transform="matrix(0.757066, 0, 0, 0.756347, 4.649286, -1.5243)" fill="none" stroke-linejoin="round" d="M 270.951437 175.748234 C 270.951437 175.748234 293.571665 185.741787 310.191134 173.227896 " stroke="#102a45" stroke-width="3" stroke-opacity="1" stroke-miterlimit="4"/><path stroke-linecap="round" transform="matrix(0.757066, 0, 0, 0.756347, 4.649286, -1.5243)" fill="none" stroke-linejoin="round" d="M 212.151229 166.989026 C 212.151229 166.989026 196.512107 174.152364 180.76979 164.618463 " stroke="#102a45" stroke-width="3" stroke-opacity="1" stroke-miterlimit="4"/><path fill="#faf1e2" d="M 181.628906 68.050781 C 181.628906 68.050781 164.148438 65.910156 156.757812 84.070312 C 151.574219 96.832031 128.695312 94.789062 128.695312 94.789062 C 128.695312 94.789062 155.457031 116.796875 168.09375 97.527344 C 168.09375 97.527344 172.679688 105.582031 178.859375 108.667969 C 178.859375 108.667969 177.191406 100.695312 179.207031 95.742188 C 179.207031 95.742188 182.507812 112.730469 200.941406 110.519531 C 219.375 108.3125 221.011719 102.09375 231.535156 106.761719 C 242.058594 111.429688 255.5625 113.878906 261.242188 104.855469 L 244.933594 105.460938 C 244.933594 105.460938 260.6875 102.132812 260.6875 94.410156 C 260.6875 94.410156 240.066406 92.601562 238.226562 75.652344 L 248.765625 64.46875 C 248.765625 64.46875 236.515625 61.84375 228.234375 66.835938 C 229.089844 66.023438 235.878906 62.03125 237.054688 49.757812 C 237.054688 49.757812 231.519531 53.566406 227.066406 55.949219 C 222.617188 58.332031 216.945312 59.640625 215.332031 65.230469 C 215.332031 65.230469 216.097656 52.523438 212.53125 45.332031 C 208.964844 38.136719 210.917969 27.761719 210.917969 27.761719 C 210.917969 27.761719 189.941406 38.878906 197.738281 67.046875 C 197.738281 67.046875 185.703125 48.984375 185.921875 40.855469 C 185.921875 40.855469 176.996094 54.171875 181.628906 68.066406 Z M 181.628906 68.050781 " fill-opacity="1" fill-rule="nonzero"/><g clip-path="url(#7edae47a4b)"><path stroke-linecap="round" transform="matrix(0.757066, 0, 0, 0.756347, 4.649286, -1.5243)" fill="none" stroke-linejoin="round" d="M 233.77047 91.988312 C 233.77047 91.988312 210.680707 89.158097 200.918511 113.168448 C 194.071558 130.041285 163.851057 127.340185 163.851057 127.340185 C 163.851057 127.340185 199.200323 156.437693 215.892028 130.960588 C 215.892028 130.960588 221.949543 141.610049 230.112226 145.690105 C 230.112226 145.690105 227.909024 135.149101 230.571441 128.600354 C 230.571441 128.600354 234.931408 151.061317 259.280143 148.138138 C 283.628878 145.220123 285.790802 136.998037 299.691097 143.169767 C 313.591392 149.341496 331.428556 152.579717 338.930794 140.649429 L 317.388948 141.449946 C 317.388948 141.449946 338.198113 137.049683 338.198113 126.839216 C 338.198113 126.839216 310.959933 124.447993 308.529703 102.038677 L 322.450637 87.252349 C 322.450637 87.252349 306.269744 83.78172 295.331131 90.382113 C 296.46111 89.307871 305.428709 84.029622 306.981786 67.802364 C 306.981786 67.802364 299.670458 72.837875 293.788373 75.988298 C 287.911448 79.13872 280.41953 80.86887 278.288564 88.259452 C 278.288564 88.259452 279.29987 71.45892 274.589042 61.950842 C 269.878215 52.437599 272.458076 38.720349 272.458076 38.720349 C 272.458076 38.720349 244.750361 53.418878 255.049169 90.661003 C 255.049169 90.661003 239.152061 66.779768 239.441006 56.032179 C 239.441006 56.032179 227.651038 73.638393 233.77047 92.008971 Z M 233.77047 91.988312 " stroke="#102a45" stroke-width="3" stroke-opacity="1" stroke-miterlimit="4"/></g><path fill="#e69057" d="M 213.023438 142.550781 C 213.023438 142.550781 241.582031 144.578125 245.0625 131.523438 C 245.0625 131.523438 246.992188 137.417969 245.601562 142.386719 C 244.207031 147.355469 241.996094 152.097656 239.105469 150.96875 C 236.214844 149.84375 239.074219 144.292969 237.167969 145.496094 C 235.257812 146.695312 228.726562 156.324219 224.136719 156.195312 C 219.550781 156.066406 225.742188 151.023438 222.402344 150.726562 C 219.074219 150.425781 213.015625 150.472656 213.015625 142.542969 Z M 213.023438 142.550781 " fill-opacity="1" fill-rule="nonzero"/><path stroke-linecap="round" transform="matrix(0.757066, 0, 0, 0.756347, 4.649286, -1.5243)" fill="none" stroke-linejoin="round" d="M 220.618335 305.602452 C 220.618335 305.602452 219.292286 314.020794 223.270433 316.339711 C 227.248579 318.658629 237.758936 297.240921 237.758936 297.240921 " stroke="#102a45" stroke-width="3" stroke-opacity="1" stroke-miterlimit="4"/><path stroke-linecap="round" transform="matrix(0.757066, 0, 0, 0.756347, 4.649286, -1.5243)" fill="none" stroke-linejoin="round" d="M 308.049849 377.488896 C 308.049849 377.488896 308.921842 385.969213 304.819862 388.071217 C 300.717882 390.168055 291.378782 368.208061 291.378782 368.208061 " stroke="#102a45" stroke-width="3" stroke-opacity="1" stroke-miterlimit="4"/><path stroke-linecap="round" transform="matrix(0.757066, 0, 0, 0.756347, 4.649286, -1.5243)" fill="none" stroke-linejoin="round" d="M 154.950534 390.989231 C 154.950534 390.989231 153.619326 399.407573 157.597472 401.731655 C 161.580779 404.050573 172.091136 382.6277 172.091136 382.6277 " stroke="#102a45" stroke-width="3" stroke-opacity="1" stroke-miterlimit="4"/><path stroke-linecap="round" transform="matrix(0.757066, 0, 0, 0.756347, 4.649286, -1.5243)" fill="none" stroke-linejoin="round" d="M 227.202142 372.737439 C 227.202142 372.737439 228.120573 381.217756 232.557935 382.410785 C 237.010776 383.598649 241.561652 360.19256 241.561652 360.19256 " stroke="#102a45" stroke-width="3" stroke-opacity="1" stroke-miterlimit="4"/><path stroke-linecap="round" transform="matrix(0.757066, 0, 0, 0.756347, 4.649286, -1.5243)" fill="none" stroke-linejoin="round" d="M 265.698839 322.661215 C 265.698839 322.661215 266.622429 331.141533 271.059791 332.329397 C 275.507473 333.522426 280.058349 310.111171 280.058349 310.111171 " stroke="#102a45" stroke-width="3" stroke-opacity="1" stroke-miterlimit="4"/><path stroke-linecap="round" transform="matrix(0.757066, 0, 0, 0.756347, 4.649286, -1.5243)" fill="none" stroke-linejoin="round" d="M 103.069515 433.742013 C 103.069515 433.742013 103.987946 442.222331 108.430467 443.410195 C 112.86783 444.59806 117.429025 421.19197 117.429025 421.19197 " stroke="#102a45" stroke-width="3" stroke-opacity="1" stroke-miterlimit="4"/><path stroke-linecap="round" transform="matrix(0.757066, 0, 0, 0.756347, 4.649286, -1.5243)" fill="none" stroke-linejoin="round" d="M 325.520673 422.477962 C 325.520673 422.477962 326.439103 430.95828 330.881625 432.151308 C 335.318987 433.339173 339.880183 409.927918 339.880183 409.927918 " stroke="#102a45" stroke-width="3" stroke-opacity="1" stroke-miterlimit="4"/></svg>