<svg xmlns="http://www.w3.org/2000/svg" xmlns:xlink="http://www.w3.org/1999/xlink" width="500" zoomAndPan="magnify" viewBox="0 0 375 374.999991" height="500" preserveAspectRatio="xMidYMid meet" version="1.0"><path fill="#96e0dc" d="M 324.535156 133.789062 C 329.039062 116.015625 319.03125 108.253906 289.253906 101.738281 C 259.480469 95.230469 285.253906 61.425781 234.707031 47.65625 C 184.160156 33.886719 176.902344 62.933594 147.128906 77.957031 C 117.355469 92.976562 115.601562 59.175781 76.3125 69.441406 C 37.023438 79.707031 22.761719 136.039062 36.527344 155.320312 C 50.289062 174.601562 83.816406 212.90625 57.796875 225.675781 C 31.777344 238.445312 36.527344 264.734375 44.289062 291.023438 C 52.046875 317.308594 85.328125 308.050781 85.328125 308.050781 C 106.347656 292.773438 148.132812 298.285156 190.925781 298.539062 C 233.714844 298.789062 255.234375 314.058594 276 314.558594 C 296.765625 315.058594 310.78125 308.050781 308.53125 291.277344 C 306.28125 274.5 304.777344 275.753906 328.550781 256.726562 C 352.320312 237.699219 321.292969 227.183594 302.277344 196.390625 C 283.265625 165.59375 320.042969 151.578125 324.550781 133.796875 Z M 324.535156 133.789062 " fill-opacity="1" fill-rule="nonzero"/><path fill="#96e0dc" d="M 346.054688 169.464844 C 344.925781 159.578125 330.164062 151.9375 321.410156 165.710938 C 312.65625 179.480469 326.289062 185.234375 326.289062 185.234375 C 339.671875 189.867188 347.183594 179.347656 346.054688 169.460938 Z M 346.054688 169.464844 " fill-opacity="1" fill-rule="nonzero"/><path fill="#96e0dc" d="M 50.015625 215.65625 C 50.015625 215.65625 63.652344 209.902344 54.890625 196.128906 C 46.136719 182.359375 31.367188 190 30.246094 199.886719 C 29.117188 209.777344 36.628906 220.289062 50.015625 215.664062 Z M 50.015625 215.65625 " fill-opacity="1" fill-rule="nonzero"/><path stroke-linecap="round" transform="matrix(0.683998, 0, 0, 0.684398, 16.798996, 14.566852)" fill-opacity="1" fill="#f7aa39" fill-rule="nonzero" stroke-linejoin="round" d="M 100.177693 428.809202 C 100.177693 428.809202 98.350201 360.398249 171.147179 341.38062 C 243.949868 322.357284 318.939835 342.482181 318.939835 342.482181 C 318.939835 342.482181 383.69014 359.308102 378.938662 438.329431 C 378.938662 438.329431 330.647202 435.772439 313.457361 449.299384 C 296.26752 462.837743 264.811824 475.639826 237.730686 453.317514 C 219.952621 438.671885 203.442379 427.011317 169.748006 424.460032 C 152.129847 423.130168 129.817319 424.288805 100.177693 428.809202 Z M 100.177693 428.809202 " stroke="#3d1717" stroke-width="3" stroke-opacity="1" stroke-miterlimit="4"/><path fill="#ffe7c3" d="M 126.609375 299.671875 C 126.609375 299.671875 128.105469 282.898438 143.496094 272.011719 C 158.886719 261.121094 195.417969 258.992188 216.8125 276.644531 C 216.8125 276.644531 224.824219 283.273438 231.390625 288.722656 C 237.957031 294.171875 242.464844 306.1875 241.335938 314.632812 L 240.835938 316.886719 C 240.835938 316.886719 234.691406 317.777344 230.027344 321.621094 C 225.371094 325.46875 213.675781 332.339844 200.773438 332.132812 C 186.449219 331.910156 177.113281 321.449219 172.65625 318.679688 C 168.195312 315.90625 156.894531 304.128906 126.765625 303.867188 C 126.765625 303.867188 126.066406 302.828125 126.59375 299.671875 Z M 126.609375 299.671875 " fill-opacity="1" fill-rule="nonzero"/><path stroke-linecap="round" transform="matrix(0.683998, 0, 0, 0.684398, 16.798996, 14.566852)" fill-opacity="1" fill="#f7aa39" fill-rule="nonzero" stroke-linejoin="round" d="M 168.440207 162.488204 C 168.440207 162.488204 166.247218 130.2975 127.647173 125.360451 C 89.05855 120.417694 71.132001 179.411154 97.647759 195.597827 C 124.169228 211.790207 134.049104 205.83721 134.049104 205.83721 C 134.049104 205.83721 141.182031 180.227336 168.440207 162.488204 Z M 168.440207 162.488204 " stroke="#3d1717" stroke-width="3" stroke-opacity="1" stroke-miterlimit="4"/><path stroke-linecap="round" transform="matrix(0.683998, 0, 0, 0.684398, 16.798996, 14.566852)" fill-opacity="1" fill="#ffe7c3" fill-rule="nonzero" stroke-linejoin="round" d="M 156.818504 169.839556 C 156.818504 169.839556 155.579237 151.729432 133.872065 148.949844 C 112.147761 146.170257 102.068004 179.359786 116.990614 188.46907 C 131.907512 197.578354 137.469939 194.22801 137.469939 194.22801 C 137.469939 194.22801 141.478998 179.822099 156.818504 169.839556 Z M 156.818504 169.839556 " stroke="#3d1717" stroke-width="3" stroke-opacity="1" stroke-miterlimit="4"/><path stroke-linecap="round" transform="matrix(0.683998, 0, 0, 0.684398, 16.798996, 14.566852)" fill-opacity="1" fill="#f7aa39" fill-rule="nonzero" stroke-linejoin="round" d="M 309.24842 162.488204 C 309.24842 162.488204 311.441409 130.2975 350.041454 125.360451 C 388.630077 120.417694 406.562337 179.411154 380.040868 195.597827 C 353.519399 211.790207 343.639524 205.83721 343.639524 205.83721 C 343.639524 205.83721 336.512307 180.227336 309.24842 162.488204 Z M 309.24842 162.488204 " stroke="#3d1717" stroke-width="3" stroke-opacity="1" stroke-miterlimit="4"/><path stroke-linecap="round" transform="matrix(0.683998, 0, 0, 0.684398, 16.798996, 14.566852)" fill="none" stroke-linejoin="round" d="M 100.177693 428.809202 C 100.177693 428.809202 98.350201 360.398249 171.147179 341.38062 C 243.949868 322.357284 318.939835 342.482181 318.939835 342.482181 C 318.939835 342.482181 383.69014 359.308102 378.938662 438.329431 C 378.938662 438.329431 330.647202 435.772439 313.457361 449.299384 C 296.26752 462.837743 264.811824 475.639826 237.730686 453.317514 C 219.952621 438.671885 203.442379 427.011317 169.748006 424.460032 C 152.129847 423.130168 129.817319 424.288805 100.177693 428.809202 Z M 100.177693 428.809202 " stroke="#3d1717" stroke-width="3" stroke-opacity="1" stroke-miterlimit="4"/><path stroke-linecap="round" transform="matrix(0.683998, 0, 0, 0.684398, 16.798996, 14.566852)" fill-opacity="1" fill="#ffe7c3" fill-rule="nonzero" stroke-linejoin="round" d="M 320.858701 169.839556 C 320.858701 169.839556 322.097969 151.729432 343.810851 148.949844 C 365.529444 146.170257 375.609201 179.359786 360.692303 188.46907 C 345.769693 197.578354 340.207266 194.22801 340.207266 194.22801 C 340.207266 194.22801 336.198207 179.822099 320.858701 169.839556 Z M 320.858701 169.839556 " stroke="#3d1717" stroke-width="3" stroke-opacity="1" stroke-miterlimit="4"/><path stroke-linecap="round" transform="matrix(0.683998, 0, 0, 0.684398, 16.798996, 14.566852)" fill-opacity="1" fill="#ffe7c3" fill-rule="nonzero" stroke-linejoin="round" d="M 228.947305 137.979892 C 228.947305 137.979892 165.019372 139.62938 132.370096 192.578521 C 99.72082 245.527663 116.179664 283.3974 105.477418 300.411671 C 105.751542 299.31011 119.469149 298.762183 121.667849 280.378095 C 121.667849 280.378095 126.607787 314.948856 123.592426 325.102626 C 125.237169 324.001065 134.837209 318.790052 136.761786 308.362318 C 138.680652 297.928878 140.599518 333.880871 138.132405 340.461701 C 141.701724 338.269994 153.220631 337.722067 155.961868 326.472443 C 156.778528 327.568297 157.058363 346.500312 183.117248 357.202009 C 209.187555 367.897998 222.082791 390.950879 222.082791 390.950879 C 222.082791 390.950879 237.719264 382.988817 234.42978 371.470937 C 234.42978 371.470937 240.740336 392.600367 238.82147 401.652576 C 241.562707 399.729124 264.057984 392.868623 261.870705 370.649047 C 261.870705 370.649047 266.810643 389.027428 278.877797 389.312806 C 278.877797 389.312806 278.32955 368.822624 301.007576 358.212249 C 323.691313 347.601873 339.79037 324.919984 342.348858 311.381624 C 342.348858 311.381624 348.202541 326.381122 348.202541 329.668683 C 350.030033 330.039675 358.807702 306.621509 356.980211 295.280564 C 356.980211 295.280564 365.032595 305.160371 368.687578 305.160371 C 368.687578 305.160371 369.698409 286.142742 364.210224 269.950362 C 364.210224 269.950362 369.698409 271.320179 375.72913 271.868106 C 375.72913 271.868106 363.382142 252.388164 359.270286 230.710807 C 355.152719 209.027743 326.249801 131.022362 228.941595 137.968476 Z M 228.947305 137.979892 " stroke="#3d1717" stroke-width="3" stroke-opacity="1" stroke-miterlimit="4"/><path stroke-linecap="round" transform="matrix(0.683998, 0, 0, 0.684398, 16.798996, 14.566852)" fill-opacity="1" fill="#f7aa39" fill-rule="nonzero" stroke-linejoin="round" d="M 243.487284 254.819589 C 243.487284 254.819589 273.029825 253.312791 289.580044 263.192597 C 306.410097 273.232215 310.162165 282.398575 329.088123 267.58172 C 329.088123 267.58172 354.878596 248.649705 353.507977 210.791382 C 353.507977 210.791382 333.211401 150.428105 267.079056 139.178482 C 200.958133 127.928858 144.991208 157.842241 125.231458 204.478808 C 125.231458 204.478808 116.722201 220.671189 134.009127 259.077438 C 151.301765 297.489395 177.36065 283.500137 188.057185 273.072403 C 198.759432 262.638963 208.359473 253.318498 243.481573 254.819589 Z M 243.487284 254.819589 " stroke="#3d1717" stroke-width="3" stroke-opacity="1" stroke-miterlimit="4"/><path stroke-linecap="round" transform="matrix(0.683998, 0, 0, 0.684398, 16.798996, 14.566852)" fill="none" stroke-linejoin="round" d="M 301.567245 214.489889 C 301.207458 213.947669 287.969567 193.822772 264.389217 206.328061 " stroke="#3d1717" stroke-width="5" stroke-opacity="1" stroke-miterlimit="4"/><path stroke-linecap="round" transform="matrix(0.683998, 0, 0, 0.684398, 16.798996, 14.566852)" fill="none" stroke-linejoin="round" d="M 172.357892 214.489889 C 172.717679 213.947669 185.961281 193.822772 209.541631 206.328061 " stroke="#3d1717" stroke-width="5" stroke-opacity="1" stroke-miterlimit="4"/><path stroke-linecap="round" transform="matrix(0.0609224, -0.681678, 0.681279, 0.0609581, -21.874238, 299.85124)" fill-opacity="1" fill="#3d1717" fill-rule="nonzero" stroke-linejoin="round" d="M 211.207465 239.329095 C 211.20971 239.930933 211.137034 240.528003 210.989438 241.120305 C 210.841333 241.706919 210.617798 242.283077 210.329187 242.836386 C 210.035399 243.395891 209.68171 243.926351 209.256242 244.423094 C 208.831283 244.925525 208.351091 245.387026 207.816173 245.813284 C 207.275571 246.240051 206.690597 246.619182 206.06176 246.956366 C 205.426728 247.28837 204.758695 247.571723 204.05715 247.800735 C 203.349921 248.030255 202.626235 248.20391 201.880407 248.322207 C 201.13458 248.440505 200.383667 248.501921 199.621473 248.501275 C 198.859279 248.500628 198.103368 248.442083 197.359425 248.325131 C 196.615483 248.208178 195.889193 248.032311 195.18675 247.802707 C 194.484306 247.573103 193.811394 247.289255 193.179892 246.955835 C 192.54839 246.622415 191.963983 246.238913 191.427688 245.816707 C 190.885199 245.389322 190.408385 244.927395 189.985369 244.426254 C 189.562352 243.925114 189.205519 243.395121 188.909186 242.836783 C 188.619046 242.283625 188.401284 241.706793 188.251231 241.118173 C 188.106864 240.529044 188.030715 239.933816 188.028469 239.331978 C 188.031909 238.729632 188.104584 238.132562 188.252181 237.54026 C 188.399777 236.947958 188.62382 236.377488 188.911923 235.818491 C 189.20622 235.264673 189.559909 234.734213 189.985376 234.237471 C 190.404651 233.735548 190.884843 233.274047 191.425445 232.847281 C 191.960363 232.421022 192.551022 232.041383 193.179859 231.704199 C 193.814891 231.372194 194.482924 231.088842 195.184469 230.85983 C 195.885505 230.62513 196.614876 230.450967 197.361211 230.338357 C 198.107039 230.220059 198.857952 230.158644 199.620146 230.15929 C 200.38234 230.159936 201.132566 230.21899 201.882194 230.335434 C 202.626136 230.452386 203.352426 230.628254 204.054869 230.857858 C 204.757313 231.087462 205.42454 231.371818 206.061726 231.70473 C 206.693228 232.03815 207.277636 232.421651 207.813931 232.843857 C 208.350735 233.271751 208.833234 233.73317 209.25625 234.23431 C 209.679267 234.73545 210.036099 235.265444 210.326239 235.818602 C 210.616888 236.377448 210.839827 236.948083 210.984703 237.5429 C 211.134755 238.13152 211.210904 238.726749 211.207465 239.329095 Z M 211.207465 239.329095 " stroke="#3d1717" stroke-width="3" stroke-opacity="1" stroke-miterlimit="4"/><path fill="#ffe7c3" d="M 158 175.382812 C 158.230469 175.542969 158.414062 175.746094 158.558594 175.988281 C 158.703125 176.230469 158.792969 176.5 158.828125 176.789062 C 158.867188 177.078125 158.847656 177.367188 158.773438 177.660156 C 158.699219 177.953125 158.574219 178.222656 158.398438 178.472656 C 158.222656 178.722656 158.011719 178.929688 157.761719 179.101562 C 157.511719 179.269531 157.246094 179.386719 156.960938 179.449219 C 156.675781 179.511719 156.394531 179.515625 156.117188 179.464844 C 155.839844 179.410156 155.585938 179.304688 155.359375 179.144531 C 155.128906 178.984375 154.945312 178.78125 154.800781 178.539062 C 154.65625 178.296875 154.566406 178.03125 154.53125 177.738281 C 154.492188 177.449219 154.511719 177.160156 154.585938 176.867188 C 154.660156 176.574219 154.785156 176.304688 154.960938 176.054688 C 155.136719 175.804688 155.347656 175.597656 155.597656 175.425781 C 155.847656 175.257812 156.113281 175.140625 156.398438 175.078125 C 156.683594 175.015625 156.964844 175.011719 157.242188 175.0625 C 157.519531 175.117188 157.773438 175.222656 158 175.382812 Z M 158 175.382812 " fill-opacity="1" fill-rule="nonzero"/><path stroke-linecap="round" transform="matrix(0.676625, -0.100215, 0.100157, 0.677021, -4.876892, 44.858303)" fill-opacity="1" fill="#3d1717" fill-rule="nonzero" stroke-linejoin="round" d="M 293.820031 237.329114 C 293.822699 238.091118 293.763224 238.843923 293.64077 239.593175 C 293.524802 240.337618 293.354011 241.062406 293.12275 241.766703 C 292.891488 242.471 292.607911 243.138705 292.27202 243.769817 C 291.941778 244.401765 291.560892 244.985828 291.135013 245.522843 C 290.708298 246.065505 290.244746 246.545015 289.74352 246.967021 C 289.242295 247.389028 288.716366 247.74391 288.15925 248.036478 C 287.602134 248.329046 287.0268 248.54968 286.438897 248.699217 C 285.845346 248.847917 285.25136 248.921547 284.651291 248.919268 C 284.044736 248.9218 283.449883 248.845287 282.860244 248.694539 C 282.26977 248.549437 281.696646 248.326127 281.1392 248.0359 C 280.581755 247.745674 280.056935 247.391039 279.554279 246.964679 C 279.056437 246.5448 278.590385 246.06616 278.168259 245.524785 C 277.739647 244.98822 277.358938 244.401048 277.025297 243.768915 C 276.691655 243.136782 276.409895 242.466171 276.179179 241.762727 C 275.947628 241.064929 275.772771 240.335135 275.657751 239.59112 C 275.537081 238.846268 275.481062 238.093676 275.478394 237.331673 C 275.481375 236.570505 275.54085 235.8177 275.657654 235.067612 C 275.773622 234.323169 275.950062 233.599217 276.175675 232.894084 C 276.406937 232.189787 276.690513 231.522082 277.026405 230.89097 C 277.362296 230.259858 277.737532 229.674958 278.164247 229.132297 C 278.590126 228.595282 279.053679 228.115772 279.554904 227.693765 C 280.05613 227.271759 280.582894 226.911231 281.139174 226.624309 C 281.69629 226.331741 282.271625 226.111107 282.859527 225.96157 C 283.453079 225.81287 284.047065 225.73924 284.647134 225.741518 C 285.253688 225.738987 285.848542 225.8155 286.439016 225.960602 C 287.028654 226.111349 287.602614 226.329014 288.159224 226.624886 C 288.71667 226.915113 289.241489 227.269748 289.744981 227.690462 C 290.247637 228.116823 290.708039 228.594626 291.135815 229.136838 C 291.558777 229.672567 291.939486 230.259739 292.273127 230.891872 C 292.606769 231.524004 292.889365 232.18897 293.120081 232.892414 C 293.350796 233.595857 293.526489 234.320005 293.646323 235.070503 C 293.761343 235.814519 293.817362 236.567111 293.820031 237.329114 Z M 293.820031 237.329114 " stroke="#3d1717" stroke-width="3" stroke-opacity="1" stroke-miterlimit="4"/><path fill="#ffe7c3" d="M 215.335938 173.015625 C 215.597656 173.121094 215.824219 173.273438 216.019531 173.476562 C 216.214844 173.679688 216.367188 173.917969 216.46875 174.191406 C 216.574219 174.460938 216.625 174.75 216.621094 175.050781 C 216.613281 175.351562 216.558594 175.644531 216.445312 175.929688 C 216.332031 176.210938 216.175781 176.464844 215.972656 176.6875 C 215.769531 176.910156 215.539062 177.085938 215.273438 177.214844 C 215.011719 177.34375 214.742188 177.414062 214.457031 177.425781 C 214.175781 177.441406 213.90625 177.394531 213.648438 177.292969 C 213.386719 177.191406 213.160156 177.039062 212.964844 176.835938 C 212.765625 176.632812 212.617188 176.394531 212.511719 176.121094 C 212.410156 175.847656 212.359375 175.5625 212.363281 175.257812 C 212.367188 174.957031 212.425781 174.667969 212.539062 174.382812 C 212.652344 174.097656 212.808594 173.847656 213.011719 173.625 C 213.214844 173.398438 213.445312 173.226562 213.707031 173.097656 C 213.972656 172.96875 214.242188 172.898438 214.527344 172.882812 C 214.808594 172.871094 215.078125 172.914062 215.335938 173.015625 Z M 215.335938 173.015625 " fill-opacity="1" fill-rule="nonzero"/><path stroke-linecap="round" transform="matrix(0.683998, 0, 0, 0.684398, 16.798996, 14.566852)" fill-opacity="1" fill="#3d1717" fill-rule="nonzero" stroke-linejoin="round" d="M 242.419344 279.56762 C 242.419344 279.56762 218.239348 269.459511 223.499097 260.652728 C 227.491023 253.957746 263.709618 252.131323 263.509737 262.638963 C 263.401229 268.369364 244.58949 282.38716 242.430765 279.56762 Z M 242.419344 279.56762 " stroke="#3d1717" stroke-width="3" stroke-opacity="1" stroke-miterlimit="4"/><path fill="#ffe7c3" d="M 191.625 192.273438 C 192.03125 192.433594 192.402344 192.632812 192.742188 192.871094 C 193.082031 193.109375 193.359375 193.371094 193.582031 193.652344 C 193.800781 193.933594 193.945312 194.214844 194.015625 194.496094 C 194.085938 194.773438 194.070312 195.035156 193.976562 195.269531 C 193.882812 195.507812 193.714844 195.707031 193.476562 195.863281 C 193.234375 196.019531 192.933594 196.125 192.582031 196.179688 C 192.230469 196.234375 191.847656 196.234375 191.4375 196.175781 C 191.027344 196.117188 190.617188 196.007812 190.210938 195.847656 C 189.804688 195.6875 189.433594 195.488281 189.09375 195.25 C 188.753906 195.011719 188.476562 194.75 188.253906 194.46875 C 188.035156 194.1875 187.890625 193.90625 187.820312 193.625 C 187.753906 193.34375 187.765625 193.085938 187.859375 192.847656 C 187.953125 192.613281 188.121094 192.414062 188.363281 192.257812 C 188.605469 192.097656 188.902344 191.992188 189.253906 191.9375 C 189.609375 191.886719 189.992188 191.886719 190.402344 191.945312 C 190.8125 192.003906 191.21875 192.109375 191.625 192.273438 Z M 191.625 192.273438 " fill-opacity="1" fill-rule="nonzero"/><path stroke-linecap="round" transform="matrix(0.683998, 0, 0, 0.684398, 16.798996, 14.566852)" fill="none" stroke-linejoin="round" d="M 243.281691 281.097249 L 243.281691 295.771416 C 243.281691 295.771416 263.498315 308.659112 270.831124 290.018183 " stroke="#3d1717" stroke-width="5" stroke-opacity="1" stroke-miterlimit="4"/><path stroke-linecap="round" transform="matrix(0.683998, 0, 0, 0.684398, 16.798996, 14.566852)" fill="none" stroke-linejoin="round" d="M 216.720246 291.011301 C 216.720246 291.011301 221.871487 309.84058 243.281691 295.771416 " stroke="#3d1717" stroke-width="5" stroke-opacity="1" stroke-miterlimit="4"/><path stroke-linecap="round" transform="matrix(0.683998, 0, 0, 0.684398, 16.798996, 14.566852)" fill-opacity="1" fill="#f7aa39" fill-rule="nonzero" stroke-linejoin="round" d="M 271.190911 142.939771 C 271.190911 142.939771 253.458534 130.999532 252.967396 117.272822 C 252.481968 103.540405 252.830334 100.481146 252.830334 100.481146 C 252.830334 100.481146 241.64266 105.920462 238.878579 121.958738 C 238.878579 121.958738 222.288384 100.640958 206.177905 109.082457 C 206.177905 109.082457 223.881728 120.548968 224.138719 133.722043 C 224.138719 133.722043 215.538087 123.511198 207.331509 126.741683 C 199.107797 129.977876 194.499093 137.2322 194.499093 137.2322 C 194.499093 137.2322 208.959118 137.728758 216.680269 142.311938 C 216.680269 142.311938 202.340173 147.591442 209.66156 162.539572 C 209.66156 162.539572 222.042815 144.298173 240.820289 150.947494 " stroke="#3d1717" stroke-width="3" stroke-opacity="1" stroke-miterlimit="4"/><path fill="#3d1717" d="M 219.472656 242.792969 C 219.472656 242.792969 234.304688 238.570312 240.023438 232.089844 C 240.023438 232.089844 236.835938 246.453125 219.472656 242.792969 Z M 219.472656 242.792969 " fill-opacity="1" fill-rule="nonzero"/><path fill="#3d1717" d="M 248.53125 283.800781 C 248.53125 283.800781 262.910156 278.246094 271.375 279.96875 C 271.375 279.96875 260.1875 270.421875 248.53125 283.800781 Z M 248.53125 283.800781 " fill-opacity="1" fill-rule="nonzero"/><path fill="#3d1717" d="M 241.347656 312.519531 C 241.347656 312.519531 251.644531 301.042969 259.972656 298.734375 C 259.972656 298.734375 245.671875 295.308594 241.347656 312.519531 Z M 241.347656 312.519531 " fill-opacity="1" fill-rule="nonzero"/><path fill="#3d1717" d="M 230.9375 271.09375 C 230.9375 271.09375 243.105469 259.019531 252.496094 256.996094 C 252.496094 256.996094 236.847656 252.265625 230.9375 271.09375 Z M 230.9375 271.09375 " fill-opacity="1" fill-rule="nonzero"/><path fill="#3d1717" d="M 115 283.800781 C 115 283.800781 100.621094 278.246094 92.15625 279.96875 C 92.15625 279.96875 103.34375 270.421875 115 283.800781 Z M 115 283.800781 " fill-opacity="1" fill-rule="nonzero"/><path fill="#3d1717" d="M 126.503906 304.683594 C 126.503906 304.683594 111.695312 300.40625 103.40625 302.863281 C 103.40625 302.863281 113.722656 292.371094 126.503906 304.683594 Z M 126.503906 304.683594 " fill-opacity="1" fill-rule="nonzero"/><path fill="#3d1717" d="M 149.753906 298.539062 C 149.753906 298.539062 135.492188 292.6875 130.519531 285.617188 C 130.519531 285.617188 132.09375 300.25 149.753906 298.539062 Z M 149.753906 298.539062 " fill-opacity="1" fill-rule="nonzero"/><path fill="#3d1717" d="M 209.617188 298.539062 C 209.617188 298.539062 223.878906 292.6875 228.851562 285.617188 C 228.851562 285.617188 227.277344 300.25 209.617188 298.539062 Z M 209.617188 298.539062 " fill-opacity="1" fill-rule="nonzero"/><path fill="#3d1717" d="M 220.507812 315.441406 C 220.507812 315.441406 234.769531 309.589844 239.742188 302.519531 C 239.742188 302.519531 238.167969 317.152344 220.507812 315.441406 Z M 220.507812 315.441406 " fill-opacity="1" fill-rule="nonzero"/><path fill="#3d1717" d="M 130.21875 274.386719 C 130.21875 274.386719 121.054688 259.894531 112.347656 255.824219 C 112.347656 255.824219 128.660156 254.707031 130.21875 274.386719 Z M 130.21875 274.386719 " fill-opacity="1" fill-rule="nonzero"/><path fill="#3d1717" d="M 200.453125 234.277344 C 200.453125 234.277344 215.28125 230.054688 221 223.574219 C 221 223.574219 217.8125 237.941406 200.453125 234.277344 Z M 200.453125 234.277344 " fill-opacity="1" fill-rule="nonzero"/><path fill="#3d1717" d="M 239.351562 215.753906 C 239.351562 215.753906 254.898438 206.308594 259.390625 197.144531 C 259.390625 197.144531 260.246094 214.484375 239.351562 215.753906 Z M 239.351562 215.753906 " fill-opacity="1" fill-rule="nonzero"/><path fill="#3d1717" d="M 151.3125 246.46875 C 151.3125 246.46875 136.484375 242.246094 130.765625 235.765625 C 130.765625 235.765625 133.953125 250.128906 151.3125 246.46875 Z M 151.3125 246.46875 " fill-opacity="1" fill-rule="nonzero"/><path fill="#3d1717" d="M 166.328125 237.207031 C 166.328125 237.207031 151.5 232.984375 145.78125 226.503906 C 145.78125 226.503906 148.96875 240.871094 166.328125 237.207031 Z M 166.328125 237.207031 " fill-opacity="1" fill-rule="nonzero"/><path fill="#3d1717" d="M 126.175781 222.625 C 126.175781 222.625 110.628906 213.179688 106.136719 204.015625 C 106.136719 204.015625 105.28125 221.359375 126.175781 222.625 Z M 126.175781 222.625 " fill-opacity="1" fill-rule="nonzero"/><path fill="#3d1717" d="M 131.300781 199.382812 C 131.300781 199.382812 117.128906 193.316406 112.265625 186.164062 C 112.265625 186.164062 113.617188 200.820312 131.300781 199.382812 Z M 131.300781 199.382812 " fill-opacity="1" fill-rule="nonzero"/><path fill="#3d1717" d="M 123.304688 179.625 C 123.304688 179.625 113.203125 164.484375 113.003906 154.285156 C 113.003906 154.285156 104.898438 169.644531 123.304688 179.625 Z M 123.304688 179.625 " fill-opacity="1" fill-rule="nonzero"/><path fill="#3d1717" d="M 228.550781 192.789062 C 228.550781 192.789062 243.128906 187.765625 248.488281 180.992188 C 248.488281 180.992188 246.082031 195.507812 228.550781 192.789062 Z M 228.550781 192.789062 " fill-opacity="1" fill-rule="nonzero"/><path fill="#3d1717" d="M 211.347656 142.878906 C 211.347656 142.878906 206.238281 128.328125 199.433594 122.996094 C 199.433594 122.996094 213.953125 125.316406 211.347656 142.878906 Z M 211.347656 142.878906 " fill-opacity="1" fill-rule="nonzero"/><path fill="#3d1717" d="M 226.429688 153.710938 C 226.429688 153.710938 224.972656 138.355469 219.644531 131.550781 C 219.644531 131.550781 233.183594 137.300781 226.429688 153.710938 Z M 226.429688 153.710938 " fill-opacity="1" fill-rule="nonzero"/><path fill="#3d1717" d="M 143.011719 142.878906 C 143.011719 142.878906 148.121094 128.328125 154.925781 122.996094 C 154.925781 122.996094 140.402344 125.316406 143.011719 142.878906 Z M 143.011719 142.878906 " fill-opacity="1" fill-rule="nonzero"/><path fill="#3d1717" d="M 127.929688 153.710938 C 127.929688 153.710938 129.386719 138.355469 134.714844 131.550781 C 134.714844 131.550781 121.175781 137.300781 127.929688 153.710938 Z M 127.929688 153.710938 " fill-opacity="1" fill-rule="nonzero"/><path fill="#3d1717" d="M 236.238281 173.738281 C 236.238281 173.738281 246.34375 158.597656 246.539062 148.402344 C 246.539062 148.402344 254.644531 163.757812 236.238281 173.738281 Z M 236.238281 173.738281 " fill-opacity="1" fill-rule="nonzero"/><path stroke-linecap="round" transform="matrix(0.683998, 0, 0, 0.684398, 16.798996, 14.566852)" fill="none" stroke-linejoin="round" d="M 305.770475 395.522644 C 305.770475 395.522644 331.737986 410.881719 328.088714 442.707138 " stroke="#3d1717" stroke-width="3" stroke-opacity="1" stroke-miterlimit="4"/><path stroke-linecap="round" transform="matrix(0.683998, 0, 0, 0.684398, 16.798996, 14.566852)" fill="none" stroke-linejoin="round" d="M 171.512677 390.768237 C 171.512677 390.768237 160.170809 403.210743 159.7996 424.060502 " stroke="#3d1717" stroke-width="3" stroke-opacity="1" stroke-miterlimit="4"/><path fill="#ffe7c3" d="M 226.695312 189.765625 C 227.28125 189.839844 227.863281 189.941406 228.429688 190.066406 C 229 190.191406 229.550781 190.34375 230.082031 190.511719 C 230.609375 190.683594 231.109375 190.875 231.578125 191.085938 C 232.046875 191.296875 232.480469 191.523438 232.871094 191.765625 C 233.261719 192.003906 233.605469 192.257812 233.90625 192.519531 C 234.203125 192.785156 234.449219 193.050781 234.640625 193.328125 C 234.835938 193.601562 234.972656 193.875 235.054688 194.152344 C 235.132812 194.425781 235.15625 194.695312 235.125 194.960938 C 235.089844 195.226562 235 195.484375 234.851562 195.730469 C 234.703125 195.976562 234.5 196.207031 234.242188 196.421875 C 233.988281 196.640625 233.679688 196.835938 233.328125 197.015625 C 232.972656 197.195312 232.574219 197.351562 232.136719 197.484375 C 231.695312 197.621094 231.222656 197.730469 230.714844 197.8125 C 230.207031 197.898438 229.675781 197.957031 229.117188 197.988281 C 228.5625 198.019531 227.992188 198.027344 227.410156 198.003906 C 226.828125 197.980469 226.242188 197.933594 225.65625 197.855469 C 225.066406 197.78125 224.488281 197.679688 223.917969 197.554688 C 223.351562 197.429688 222.800781 197.277344 222.269531 197.109375 C 221.742188 196.9375 221.242188 196.746094 220.769531 196.535156 C 220.300781 196.324219 219.871094 196.097656 219.480469 195.855469 C 219.089844 195.617188 218.746094 195.363281 218.445312 195.101562 C 218.148438 194.835938 217.902344 194.570312 217.710938 194.292969 C 217.515625 194.019531 217.378906 193.746094 217.296875 193.46875 C 217.214844 193.195312 217.191406 192.925781 217.226562 192.660156 C 217.261719 192.394531 217.351562 192.136719 217.5 191.890625 C 217.648438 191.644531 217.851562 191.414062 218.105469 191.199219 C 218.363281 190.980469 218.667969 190.785156 219.023438 190.605469 C 219.378906 190.425781 219.777344 190.269531 220.214844 190.136719 C 220.65625 190 221.128906 189.890625 221.636719 189.808594 C 222.144531 189.722656 222.675781 189.664062 223.230469 189.632812 C 223.789062 189.601562 224.355469 189.59375 224.941406 189.617188 C 225.523438 189.640625 226.109375 189.6875 226.695312 189.765625 Z M 226.695312 189.765625 " fill-opacity="1" fill-rule="nonzero"/><path fill="#ffe7c3" d="M 150.664062 192.691406 C 150.695312 192.957031 150.671875 193.226562 150.59375 193.503906 C 150.511719 193.777344 150.375 194.054688 150.179688 194.328125 C 149.988281 194.601562 149.742188 194.871094 149.445312 195.132812 C 149.144531 195.394531 148.800781 195.648438 148.410156 195.890625 C 148.019531 196.128906 147.585938 196.355469 147.117188 196.566406 C 146.648438 196.777344 146.148438 196.96875 145.621094 197.140625 C 145.089844 197.3125 144.539062 197.460938 143.96875 197.585938 C 143.402344 197.710938 142.820312 197.8125 142.234375 197.890625 C 141.648438 197.964844 141.0625 198.011719 140.480469 198.035156 C 139.894531 198.058594 139.328125 198.054688 138.769531 198.023438 C 138.214844 197.988281 137.683594 197.929688 137.175781 197.847656 C 136.667969 197.761719 136.195312 197.652344 135.753906 197.519531 C 135.316406 197.382812 134.917969 197.226562 134.5625 197.046875 C 134.207031 196.871094 133.902344 196.671875 133.644531 196.457031 C 133.390625 196.238281 133.1875 196.007812 133.039062 195.761719 C 132.890625 195.515625 132.800781 195.261719 132.765625 194.996094 C 132.730469 194.730469 132.753906 194.457031 132.835938 194.183594 C 132.917969 193.910156 133.054688 193.632812 133.25 193.359375 C 133.441406 193.085938 133.6875 192.816406 133.984375 192.554688 C 134.285156 192.289062 134.628906 192.039062 135.019531 191.796875 C 135.410156 191.554688 135.839844 191.328125 136.3125 191.121094 C 136.78125 190.910156 137.28125 190.71875 137.808594 190.546875 C 138.339844 190.375 138.890625 190.226562 139.457031 190.101562 C 140.027344 189.972656 140.605469 189.875 141.195312 189.796875 C 141.78125 189.722656 142.367188 189.671875 142.949219 189.652344 C 143.53125 189.628906 144.101562 189.632812 144.660156 189.664062 C 145.214844 189.695312 145.746094 189.753906 146.253906 189.839844 C 146.761719 189.925781 147.234375 190.035156 147.675781 190.167969 C 148.113281 190.300781 148.511719 190.460938 148.867188 190.636719 C 149.21875 190.816406 149.527344 191.015625 149.78125 191.230469 C 150.039062 191.449219 150.242188 191.679688 150.390625 191.925781 C 150.539062 192.171875 150.628906 192.425781 150.664062 192.691406 Z M 150.664062 192.691406 " fill-opacity="1" fill-rule="nonzero"/></svg>