<svg xmlns="http://www.w3.org/2000/svg" xmlns:xlink="http://www.w3.org/1999/xlink" width="500" zoomAndPan="magnify" viewBox="0 0 375 374.999991" height="500" preserveAspectRatio="xMidYMid meet" version="1.0"><defs><clipPath id="c160314c09"><path d="M 68 20 L 320.789062 20 L 320.789062 322 L 68 322 Z M 68 20 " clip-rule="nonzero"/></clipPath></defs><g clip-path="url(#c160314c09)"><path fill="#96e0dc" d="M 320.8125 68.25 C 320.8125 51.371094 305.558594 37.6875 286.738281 37.6875 C 279.285156 37.6875 272.394531 39.839844 266.785156 43.476562 C 251.523438 30.890625 232.03125 22.574219 208.761719 20.960938 C 176.453125 18.726562 147.578125 30.589844 127.453125 47.441406 C 121.234375 41.4375 112.351562 37.679688 102.496094 37.679688 C 83.675781 37.679688 68.421875 51.363281 68.421875 68.242188 C 68.421875 83.84375 81.457031 96.699219 98.296875 98.558594 C 98.296875 106.359375 100.714844 113.585938 105.957031 119.554688 C 134.835938 152.417969 90.363281 177.78125 72.453125 244.089844 C 54.554688 310.394531 104.34375 321.21875 104.34375 321.21875 L 162.554688 301.746094 L 283.488281 317.125 C 283.488281 317.125 307.523438 308.09375 298.863281 282.726562 C 290.199219 257.359375 281.535156 227.953125 300.597656 164.535156 C 307.382812 141.953125 307.207031 117.917969 300.785156 96.089844 C 312.59375 91.289062 320.804688 80.636719 320.804688 68.253906 Z M 320.8125 68.25 " fill-opacity="1" fill-rule="nonzero"/></g><path fill="#ebecff" d="M 104.34375 321.21875 C 104.34375 321.21875 100.917969 263.050781 159.34375 256.390625 C 159.34375 256.390625 165.730469 253.054688 166.414062 244.601562 C 167.101562 236.148438 163.453125 217.4375 163.453125 217.4375 L 226.664062 218.714844 C 226.664062 218.714844 221.640625 251.253906 230.539062 256.382812 C 239.4375 261.507812 259.75 255.359375 271.84375 270.472656 C 283.9375 285.59375 284.398438 303.011719 283.480469 317.109375 C 283.480469 317.109375 206.347656 356.054688 104.335938 321.214844 Z M 104.34375 321.21875 " fill-opacity="1" fill-rule="nonzero"/><path stroke-linecap="round" transform="matrix(0.754036, 0, 0, 0.752714, 6.808385, -2.838124)" fill-opacity="1" fill="#ebecff" fill-rule="nonzero" stroke-linejoin="round" d="M 173.069028 154.630805 C 173.069028 154.630805 116.218678 143.250117 111.509642 73.279383 C 111.509642 73.279383 161.44926 68.930538 179.347744 145.258473 Z M 173.069028 154.630805 " stroke="#102a45" stroke-width="3" stroke-opacity="1" stroke-miterlimit="4"/><path fill="#4b466e" d="M 105.042969 67.429688 C 104.921875 66.59375 129.980469 74.707031 138.175781 106.367188 L 134.972656 110.023438 C 134.972656 110.023438 108.171875 89.015625 105.042969 67.429688 Z M 105.042969 67.429688 " fill-opacity="1" fill-rule="nonzero"/><path stroke-linecap="round" transform="matrix(0.754036, 0, 0, 0.752714, 6.808385, -2.838124)" fill-opacity="1" fill="#ebecff" fill-rule="nonzero" stroke-linejoin="round" d="M 306.869906 137.821845 C 306.869906 137.821845 305.419378 112.470882 333.761665 89.040053 C 362.109133 65.598845 382.219673 68.868263 382.219673 68.868263 C 382.219673 68.868263 374.708008 154.719027 315.112015 145.720344 Z M 306.869906 137.821845 " stroke="#102a45" stroke-width="3" stroke-opacity="1" stroke-miterlimit="4"/><path fill="#4b466e" d="M 279.492188 67.871094 C 279.707031 67.058594 253.914062 71.355469 242.039062 101.511719 L 244.773438 105.613281 C 244.773438 105.613281 273.820312 88.789062 279.484375 67.863281 Z M 279.492188 67.871094 " fill-opacity="1" fill-rule="nonzero"/><path fill="#4b466e" d="M 188.570312 251.421875 C 178.238281 250.269531 166.542969 240.71875 166.542969 240.71875 C 167.132812 245.25 166.039062 248.296875 166.039062 248.296875 C 177.960938 254.972656 188.140625 251.503906 188.570312 251.421875 Z M 188.570312 251.421875 " fill-opacity="1" fill-rule="nonzero"/><path fill="#4b466e" d="M 226.351562 249.539062 C 226.351562 249.539062 225.035156 246.605469 225.28125 242.035156 C 225.28125 242.035156 214.339844 252.640625 204.132812 254.753906 C 204.570312 254.800781 214.96875 257.308594 226.351562 249.539062 Z M 226.351562 249.539062 " fill-opacity="1" fill-rule="nonzero"/><path fill="#4b466e" d="M 282.203125 296.816406 C 281.980469 291.179688 280.378906 288.425781 280.378906 288.425781 C 277.242188 293.679688 263.59375 301.039062 263.777344 301.046875 C 271.933594 301.117188 282.203125 296.816406 282.203125 296.816406 Z M 282.203125 296.816406 " fill-opacity="1" fill-rule="nonzero"/><path fill="#4b466e" d="M 247.941406 314.339844 C 249.992188 318.277344 249.480469 320.6875 249.480469 320.6875 C 262.402344 320.105469 265.480469 309.539062 265.480469 309.539062 C 256.75 315.304688 247.933594 314.339844 247.933594 314.339844 Z M 247.941406 314.339844 " fill-opacity="1" fill-rule="nonzero"/><path fill="#4b466e" d="M 257.269531 289.351562 C 253.761719 295.597656 241.523438 299.347656 241.523438 299.347656 L 242.574219 300.714844 C 241.609375 303.375 236.511719 309.402344 213.226562 320.070312 C 179.941406 335.320312 149.496094 301.234375 149.496094 301.234375 C 147.429688 302.644531 146.914062 304.179688 146.914062 304.179688 C 146.914062 304.179688 167.039062 322.5 191.554688 326.347656 C 216.070312 330.191406 242.511719 306.363281 243.671875 304.945312 C 244.125 304.40625 244.066406 303.394531 243.832031 302.363281 L 245.550781 304.625 C 258.558594 298.089844 257.277344 289.34375 257.277344 289.34375 Z M 257.269531 289.351562 " fill-opacity="1" fill-rule="nonzero"/><path fill="#4b466e" d="M 148.898438 279.972656 C 159.976562 281.914062 165.683594 282.6875 170.878906 290.660156 C 176.074219 298.625 177.628906 308.339844 194.238281 309.507812 C 210.851562 310.675781 210.503906 309.117188 219.855469 297.457031 C 229.203125 285.796875 251.175781 269.472656 268.308594 267.726562 C 268.308594 267.726562 266.316406 263.9375 254.464844 261.3125 C 254.464844 261.3125 243.734375 267.332031 231.707031 280.746094 C 219.679688 294.152344 214.777344 300.957031 205.316406 302.507812 C 195.851562 304.066406 184.664062 302.898438 180.976562 297.195312 C 177.28125 291.496094 173.472656 284.113281 159.28125 278.667969 C 145.089844 273.226562 139.089844 262.214844 139.089844 262.214844 L 131.074219 266.167969 C 131.074219 266.167969 137.820312 278.023438 148.898438 279.964844 Z M 148.898438 279.972656 " fill-opacity="1" fill-rule="nonzero"/><path fill="#4b466e" d="M 194.449219 278.984375 C 199.335938 284.382812 200.785156 291.96875 204.132812 282.378906 C 207.480469 272.789062 212.910156 277.285156 222.582031 268.996094 C 232.265625 260.710938 237.503906 259.503906 237.503906 259.503906 C 231.984375 258.707031 230.355469 256.507812 230.355469 256.507812 C 230.355469 256.507812 227.644531 268.695312 200.234375 270.496094 C 172.824219 272.292969 160.253906 255.269531 160.253906 255.269531 C 160.253906 255.269531 158.171875 257.164062 157.042969 257.660156 C 155.910156 258.15625 150.210938 258.746094 150.210938 258.746094 C 150.210938 258.746094 161.429688 263.40625 168.753906 267.703125 C 176.074219 272 189.554688 273.597656 194.441406 278.984375 Z M 194.449219 278.984375 " fill-opacity="1" fill-rule="nonzero"/><path fill="#4b466e" d="M 144.449219 306.558594 C 145.730469 302.863281 147.902344 301.242188 147.902344 301.242188 C 136.269531 297.910156 128.621094 286.898438 128.621094 286.898438 C 134.210938 303.425781 144.457031 306.566406 144.457031 306.566406 Z M 144.449219 306.558594 " fill-opacity="1" fill-rule="nonzero"/><path fill="#4b466e" d="M 133.628906 309.914062 C 133.628906 309.914062 115.742188 302.132812 110.527344 292.429688 C 110.527344 292.429688 108.046875 298.578125 107.1875 303.382812 C 107.1875 303.382812 118.992188 312.03125 133.628906 309.914062 Z M 133.628906 309.914062 " fill-opacity="1" fill-rule="nonzero"/><path fill="#4b466e" d="M 117.75 316.261719 C 128.53125 326.542969 138.199219 324.523438 138.628906 324.425781 C 138.96875 321.347656 140.085938 317.3125 140.085938 317.3125 C 134.179688 320.964844 117.75 316.261719 117.75 316.261719 Z M 117.75 316.261719 " fill-opacity="1" fill-rule="nonzero"/><path fill="#4b466e" d="M 140.628906 320.070312 L 140.054688 322.757812 C 143.015625 329.289062 163.21875 334.414062 163.21875 334.414062 L 173.941406 335.054688 C 142.105469 327.371094 140.621094 320.070312 140.621094 320.070312 Z M 140.628906 320.070312 " fill-opacity="1" fill-rule="nonzero"/><path stroke-linecap="round" transform="matrix(0.754036, 0, 0, 0.752714, 6.808385, -2.838124)" fill="none" stroke-linejoin="round" d="M 129.35114 430.517785 C 129.35114 430.517785 124.807878 353.240161 202.291994 344.391975 C 202.291994 344.391975 210.762043 339.960097 211.668623 328.729906 C 212.580384 317.499715 207.741836 292.641759 207.741836 292.641759 L 291.572013 294.338743 C 291.572013 294.338743 284.909943 337.567713 296.711027 344.381596 C 308.512111 351.190288 335.450495 343.021933 351.489194 363.100311 C 367.527893 383.189068 368.139187 406.329282 366.921779 425.058376 C 366.921779 425.058376 264.628449 476.798212 129.340779 430.512595 Z M 129.35114 430.517785 " stroke="#102a45" stroke-width="3" stroke-opacity="1" stroke-miterlimit="4"/><path stroke-linecap="round" transform="matrix(0.754036, 0, 0, 0.752714, 6.808385, -2.838124)" fill-opacity="1" fill="#ebecff" fill-rule="nonzero" stroke-linejoin="round" d="M 230.711988 300.701134 C 230.711988 300.701134 208.420476 309.777661 175.46758 286.528467 C 142.519865 263.268893 162.868706 232.749136 169.660287 222.209155 C 176.451867 211.669174 150.60138 188.778059 164.490189 160.069456 C 178.378998 131.360852 210.368328 100.841095 267.861055 111.739155 C 325.358962 122.642404 329.560314 170.609437 322.131536 186.229989 C 314.277961 202.748334 316.961439 209.121104 321.15761 212.75898 C 325.358962 216.391667 339.247771 224.020309 336.020345 247.637961 C 332.787739 271.260804 316.961439 317.769571 230.711988 300.690755 Z M 230.711988 300.701134 " stroke="#102a45" stroke-width="3" stroke-opacity="1" stroke-miterlimit="4"/><path fill="#4b466e" d="M 238.378906 192.394531 C 245.507812 203.058594 243.128906 216.398438 243.128906 216.398438 L 248.0625 210.34375 C 247.421875 197.015625 238.378906 192.394531 238.378906 192.394531 Z M 238.378906 192.394531 " fill-opacity="1" fill-rule="nonzero"/><path fill="#4b466e" d="M 244.320312 180.183594 C 251.71875 188.082031 253.089844 204.699219 253.089844 204.699219 L 256.839844 196.699219 C 255.285156 184.285156 244.414062 180.492188 244.320312 180.183594 Z M 244.320312 180.183594 " fill-opacity="1" fill-rule="nonzero"/><path fill="#4b466e" d="M 257.199219 165.621094 C 253.914062 161.515625 242.21875 167.058594 242.21875 167.058594 C 242.21875 167.058594 257.382812 168.496094 260.117188 176.902344 C 260.117188 176.902344 260.480469 169.722656 257.195312 165.621094 Z M 257.199219 165.621094 " fill-opacity="1" fill-rule="nonzero"/><path fill="#4b466e" d="M 251.417969 121.074219 L 249.714844 114.375 C 250.6875 121.351562 231.203125 144.054688 231.203125 144.054688 C 231.203125 144.054688 237.292969 140.773438 243.992188 134.613281 C 250.6875 128.457031 251.054688 121.757812 251.417969 121.074219 Z M 251.417969 121.074219 " fill-opacity="1" fill-rule="nonzero"/><path fill="#4b466e" d="M 248.429688 110.542969 L 247.519531 106.847656 C 247.519531 106.847656 239.390625 123.671875 228.699219 126.027344 C 218.015625 128.382812 213.261719 137 215.359375 168.390625 C 215.359375 168.390625 214.078125 144.183594 222.667969 135.15625 C 231.253906 126.132812 246.960938 124.078125 248.425781 110.542969 Z M 248.429688 110.542969 " fill-opacity="1" fill-rule="nonzero"/><path fill="#4b466e" d="M 226.601562 95.667969 C 226.601562 95.667969 227.152344 106.132812 217.5625 117.617188 C 207.96875 129.105469 212.261719 138.640625 212.261719 138.640625 C 214.816406 121.308594 219.207031 122.949219 225.140625 114.027344 C 231.074219 105.101562 226.601562 95.667969 226.601562 95.667969 Z M 226.601562 95.667969 " fill-opacity="1" fill-rule="nonzero"/><path fill="#4b466e" d="M 212.855469 90.304688 C 212.855469 90.304688 213.292969 98.636719 205.65625 107.78125 C 198.015625 116.925781 201.433594 124.527344 201.433594 124.527344 C 203.46875 110.722656 206.960938 112.035156 211.6875 104.929688 C 216.414062 97.824219 212.847656 90.308594 212.847656 90.308594 Z M 212.855469 90.304688 " fill-opacity="1" fill-rule="nonzero"/><path fill="#4b466e" d="M 240.304688 97.105469 C 240.304688 97.105469 235.460938 109.65625 232.996094 114.539062 C 232.996094 114.539062 241.945312 103.054688 243.136719 98.75 Z M 240.304688 97.105469 " fill-opacity="1" fill-rule="nonzero"/><path fill="#4b466e" d="M 139.390625 212.597656 L 144.910156 217.074219 C 144.910156 217.074219 141.945312 205.316406 149.074219 194.644531 C 149.074219 194.644531 140.03125 199.257812 139.390625 212.597656 Z M 139.390625 212.597656 " fill-opacity="1" fill-rule="nonzero"/><path fill="#4b466e" d="M 128.609375 200.664062 L 132.355469 208.667969 C 132.355469 208.667969 133.726562 192.054688 141.125 184.152344 C 141.035156 184.460938 130.160156 188.253906 128.609375 200.664062 Z M 128.609375 200.664062 " fill-opacity="1" fill-rule="nonzero"/><path fill="#4b466e" d="M 128.828125 176.84375 C 132.476562 168.878906 147.675781 169.554688 147.675781 169.554688 C 147.675781 169.554688 136.683594 162.433594 132.972656 166.046875 C 129.265625 169.660156 128.828125 176.835938 128.828125 176.835938 Z M 128.828125 176.84375 " fill-opacity="1" fill-rule="nonzero"/><path fill="#4b466e" d="M 134.339844 148.96875 C 141.035156 155.125 147.125 158.410156 147.125 158.410156 C 147.125 158.410156 127.644531 135.707031 128.617188 128.730469 L 126.910156 135.429688 C 127.273438 136.113281 127.644531 142.8125 134.339844 148.96875 Z M 134.339844 148.96875 " fill-opacity="1" fill-rule="nonzero"/><path fill="#4b466e" d="M 132.175781 113.757812 L 130.46875 120.457031 C 130.832031 121.140625 131.203125 127.839844 137.898438 133.996094 C 144.59375 140.15625 150.6875 143.4375 150.6875 143.4375 C 150.6875 143.4375 131.203125 120.734375 132.175781 113.757812 Z M 132.175781 113.757812 " fill-opacity="1" fill-rule="nonzero"/><path fill="#4b466e" d="M 158.753906 126.027344 C 148.070312 123.671875 139.933594 106.847656 139.933594 106.847656 L 139.019531 110.542969 C 140.484375 124.085938 156.191406 126.132812 164.777344 135.15625 C 173.367188 144.183594 172.085938 168.390625 172.085938 168.390625 C 174.1875 137 169.4375 128.390625 158.746094 126.027344 Z M 158.753906 126.027344 " fill-opacity="1" fill-rule="nonzero"/><path fill="#4b466e" d="M 160.859375 95.667969 C 160.859375 95.667969 156.378906 105.109375 162.320312 114.027344 C 168.253906 122.957031 172.644531 121.308594 175.199219 138.640625 C 175.199219 138.640625 179.488281 129.105469 169.898438 117.617188 C 160.308594 106.132812 160.859375 95.667969 160.859375 95.667969 Z M 160.859375 95.667969 " fill-opacity="1" fill-rule="nonzero"/><path fill="#4b466e" d="M 178.375 90.710938 C 178.375 90.710938 174.808594 98.222656 179.535156 105.328125 C 184.261719 112.433594 187.753906 111.121094 189.789062 124.925781 C 189.789062 124.925781 193.207031 117.332031 185.566406 108.179688 C 177.929688 99.035156 178.367188 90.703125 178.367188 90.703125 Z M 178.375 90.710938 " fill-opacity="1" fill-rule="nonzero"/><path fill="#4b466e" d="M 147.15625 97.105469 L 144.320312 98.75 C 145.503906 103.054688 154.464844 114.539062 154.464844 114.539062 C 151.996094 109.648438 147.15625 97.105469 147.15625 97.105469 Z M 147.15625 97.105469 " fill-opacity="1" fill-rule="nonzero"/><path stroke-linecap="round" transform="matrix(0.754036, 0, 0, 0.752714, 6.808385, -2.838124)" fill="none" stroke-linejoin="round" d="M 230.711988 300.701134 C 230.711988 300.701134 208.420476 309.777661 175.46758 286.528467 C 142.519865 263.268893 162.868706 232.749136 169.660287 222.209155 C 176.451867 211.669174 150.60138 188.778059 164.490189 160.069456 C 178.378998 131.360852 210.368328 100.841095 267.861055 111.739155 C 325.358962 122.642404 329.560314 170.609437 322.131536 186.229989 C 314.277961 202.748334 316.961439 209.121104 321.15761 212.75898 C 325.358962 216.391667 339.247771 224.020309 336.020345 247.637961 C 332.787739 271.260804 316.961439 317.769571 230.711988 300.690755 Z M 230.711988 300.701134 " stroke="#102a45" stroke-width="3" stroke-opacity="1" stroke-miterlimit="4"/><path stroke-linecap="round" transform="matrix(0.72982, -0.189228, 0.18956, 0.728541, -28.87258, 40.736503)" fill-opacity="1" fill="#102a45" fill-rule="nonzero" stroke-linejoin="round" d="M 210.700057 214.219121 C 210.698327 214.926422 210.651469 215.622001 210.551861 216.314604 C 210.453558 217.002183 210.305114 217.676739 210.110442 218.323203 C 209.919481 218.975992 209.678583 219.594364 209.397776 220.180923 C 209.11697 220.767483 208.800169 221.307161 208.43975 221.808701 C 208.080636 222.305218 207.691846 222.751134 207.269671 223.140123 C 206.846192 223.534134 206.401964 223.863778 205.935685 224.134076 C 205.464391 224.403072 204.983682 224.605281 204.48724 224.744425 C 203.990797 224.883568 203.486244 224.950903 202.978595 224.94773 C 202.474655 224.950883 201.973938 224.879809 201.473834 224.744552 C 200.975034 224.604273 200.49189 224.403719 200.027011 224.132845 C 199.555813 223.865691 199.112908 223.530821 198.689367 223.142002 C 198.272146 222.749463 197.879303 222.304276 197.520868 221.809047 C 197.163737 221.308795 196.843418 220.769848 196.562521 220.182162 C 196.281624 219.594475 196.041248 218.97442 195.846407 218.323298 C 195.656581 217.673477 195.509681 217.002636 195.410721 216.312077 C 195.311762 215.621517 195.261843 214.92761 195.25856 214.219007 C 195.258986 213.516729 195.307148 212.816126 195.405452 212.128547 C 195.50506 211.435945 195.652199 210.766412 195.848175 210.114925 C 196.039136 209.462136 196.280035 208.843764 196.560841 208.257204 C 196.841647 207.670645 197.163462 207.132269 197.522576 206.635752 C 197.877981 206.132909 198.271785 205.688296 198.688946 205.298005 C 199.111121 204.909016 199.556653 204.57435 200.027947 204.305354 C 200.494226 204.035056 200.974935 203.832847 201.476392 203.695005 C 201.97153 203.560884 202.472373 203.487225 202.980022 203.490397 C 203.488976 203.488547 203.989693 203.559621 204.484783 203.693575 C 204.983583 203.833855 205.465422 204.039432 205.93662 204.306585 C 206.4015 204.57746 206.845709 204.907306 207.26925 205.296125 C 207.691485 205.689967 208.079314 206.133852 208.436445 206.634104 C 208.799894 207.130635 209.118908 207.674604 209.40111 208.257268 C 209.682008 208.844955 209.91737 209.463708 210.11221 210.11483 C 210.30705 210.765953 210.45395 211.436794 210.55291 212.127353 C 210.65187 212.817913 210.700484 213.516843 210.700057 214.219121 Z M 210.700057 214.219121 " stroke="#102a45" stroke-width="3" stroke-opacity="1" stroke-miterlimit="4"/><path fill="#ebecff" d="M 162.300781 153.484375 C 162.554688 153.5 162.796875 153.574219 163.027344 153.707031 C 163.253906 153.84375 163.453125 154.027344 163.621094 154.257812 C 163.785156 154.492188 163.910156 154.753906 163.992188 155.050781 C 164.070312 155.34375 164.101562 155.648438 164.082031 155.960938 C 164.0625 156.273438 163.996094 156.570312 163.878906 156.855469 C 163.761719 157.136719 163.609375 157.382812 163.414062 157.59375 C 163.21875 157.804688 163 157.960938 162.757812 158.066406 C 162.515625 158.171875 162.265625 158.21875 162.007812 158.203125 C 161.753906 158.1875 161.511719 158.109375 161.285156 157.976562 C 161.054688 157.84375 160.855469 157.660156 160.691406 157.425781 C 160.523438 157.195312 160.398438 156.929688 160.320312 156.636719 C 160.238281 156.339844 160.207031 156.035156 160.226562 155.722656 C 160.246094 155.410156 160.316406 155.113281 160.429688 154.832031 C 160.546875 154.546875 160.699219 154.300781 160.894531 154.089844 C 161.089844 153.878906 161.308594 153.722656 161.550781 153.617188 C 161.796875 153.511719 162.042969 153.46875 162.300781 153.484375 Z M 162.300781 153.484375 " fill-opacity="1" fill-rule="nonzero"/><path stroke-linecap="round" transform="matrix(0.18956, -0.728541, 0.72982, 0.189228, 17.10851, 332.940182)" fill-opacity="1" fill="#102a45" fill-rule="nonzero" stroke-linejoin="round" d="M 305.919952 214.221085 C 305.923124 214.728735 305.849465 215.229578 305.715344 215.724716 C 305.5762 216.221158 305.375293 216.706881 305.104995 217.173161 C 304.835999 217.644455 304.501333 218.089987 304.111042 218.507148 C 303.722053 218.929323 303.276137 219.318113 302.774597 219.678531 C 302.27808 220.037645 301.738401 220.354446 301.153144 220.640267 C 300.566585 220.921073 299.946911 221.156957 299.295424 221.352933 C 298.643937 221.548909 297.973102 221.691034 297.2805 221.790642 C 296.59292 221.888945 295.89362 221.942121 295.19004 221.937534 C 294.482739 221.939265 293.788832 221.889346 293.098272 221.790386 C 292.407712 221.691427 291.736871 221.544527 291.085749 221.349686 C 290.435929 221.15986 289.815873 220.919484 289.228187 220.638586 C 288.6405 220.357689 288.101554 220.03737 287.601302 219.680239 C 287.106073 219.321804 286.660886 218.928961 286.267044 218.506726 C 285.879528 218.0882 285.544658 217.645294 285.277504 217.174096 C 285.005328 216.704203 284.804774 216.221059 284.665797 215.727273 C 284.530541 215.227169 284.459466 214.726452 284.461316 214.217498 C 284.459446 213.714863 284.526781 213.21031 284.665924 212.713868 C 284.805068 212.217425 285.005975 211.731702 285.276273 211.265422 C 285.546572 210.799143 285.876215 210.354915 286.270227 209.931436 C 286.659215 209.509261 287.105131 209.120471 287.601648 208.761357 C 288.098166 208.402243 288.642867 208.084138 289.229426 207.803331 C 289.814683 207.517511 290.434358 207.281627 291.085844 207.085651 C 291.733611 206.895994 292.408167 206.74755 293.095746 206.649246 C 293.788348 206.549639 294.483928 206.502781 295.191229 206.50105 C 295.893507 206.500623 296.592437 206.549238 297.282996 206.648197 C 297.973556 206.747157 298.644397 206.894057 299.295519 207.088897 C 299.946642 207.283738 300.565395 207.5191 301.153081 207.799997 C 301.735745 208.082199 302.279714 208.401213 302.774943 208.759649 C 303.276498 209.121794 303.720382 209.509622 304.114224 209.931858 C 304.501741 210.350384 304.83289 210.799608 305.103764 211.264487 C 305.370918 211.735685 305.576495 212.217525 305.715472 212.71131 C 305.850728 213.211414 305.921802 213.712132 305.919952 214.221085 Z M 305.919952 214.221085 " stroke="#102a45" stroke-width="3" stroke-opacity="1" stroke-miterlimit="4"/><path fill="#ebecff" d="M 229.066406 155.695312 C 229.085938 156.007812 229.054688 156.3125 228.972656 156.609375 C 228.894531 156.902344 228.769531 157.167969 228.605469 157.398438 C 228.4375 157.628906 228.238281 157.8125 228.011719 157.949219 C 227.78125 158.082031 227.539062 158.15625 227.285156 158.171875 C 227.027344 158.1875 226.777344 158.144531 226.535156 158.039062 C 226.292969 157.933594 226.074219 157.777344 225.878906 157.566406 C 225.683594 157.355469 225.53125 157.109375 225.414062 156.824219 C 225.296875 156.542969 225.230469 156.246094 225.210938 155.933594 C 225.191406 155.621094 225.222656 155.316406 225.304688 155.019531 C 225.382812 154.726562 225.507812 154.460938 225.671875 154.230469 C 225.839844 153.996094 226.039062 153.8125 226.265625 153.679688 C 226.496094 153.546875 226.738281 153.46875 226.992188 153.453125 C 227.25 153.4375 227.5 153.484375 227.742188 153.589844 C 227.984375 153.695312 228.203125 153.851562 228.398438 154.0625 C 228.59375 154.273438 228.746094 154.519531 228.863281 154.800781 C 228.976562 155.085938 229.046875 155.382812 229.066406 155.695312 Z M 229.066406 155.695312 " fill-opacity="1" fill-rule="nonzero"/><path fill="#4b466e" d="M 208.292969 334.679688 C 208.292969 334.679688 242.867188 329.167969 248.113281 313.277344 L 249.714844 317.765625 C 249.714844 317.765625 238.53125 331.855469 214.800781 334.679688 Z M 208.292969 334.679688 " fill-opacity="1" fill-rule="nonzero"/><path stroke-linecap="round" transform="matrix(0.754036, 0, 0, 0.752714, 6.808385, -2.838124)" fill="none" stroke-linejoin="round" d="M 174.452211 443.118018 C 174.452211 443.118018 175.659257 417.59061 191.697956 399.209216 " stroke="#102a45" stroke-width="3" stroke-opacity="1" stroke-miterlimit="4"/><path stroke-linecap="round" transform="matrix(0.754036, 0, 0, 0.752714, 6.808385, -2.838124)" fill="none" stroke-linejoin="round" d="M 324.260705 439.760378 C 324.260705 439.760378 323.048477 414.22778 307.009778 395.851576 " stroke="#102a45" stroke-width="3" stroke-opacity="1" stroke-miterlimit="4"/><path stroke-linecap="round" transform="matrix(0.754036, 0, 0, 0.752714, 6.808385, -2.838124)" fill="none" stroke-linejoin="round" d="M 221.3509 238.929893 C 221.3509 238.929893 227.158194 256.922071 215.289764 274.358966 " stroke="#102a45" stroke-width="3" stroke-opacity="1" stroke-miterlimit="4"/><path fill="#4b466e" d="M 196.054688 95.835938 C 196.054688 95.835938 181.050781 76.558594 171.21875 74.511719 C 171.21875 74.511719 179.371094 67.082031 185.402344 68.25 C 185.402344 68.25 190.964844 73.207031 192.148438 80.066406 C 192.148438 80.066406 189.886719 65.710938 176.988281 51.710938 C 176.988281 51.710938 188.3125 41.527344 191.570312 41.046875 C 194.828125 40.5625 202.457031 52.035156 202.132812 72.578125 C 202.132812 72.578125 205.050781 47.511719 202.699219 38.554688 C 202.699219 38.554688 214.335938 34.121094 215.691406 39.296875 C 217.042969 44.476562 220.246094 82.285156 196.054688 95.84375 Z M 196.054688 95.835938 " fill-opacity="1" fill-rule="nonzero"/><path stroke-linecap="round" transform="matrix(0.754036, 0, 0, 0.752714, 6.808385, -2.838124)" fill-opacity="1" fill="#ebecff" fill-rule="nonzero" stroke-linejoin="round" d="M 231.758441 291.339182 L 220.858756 296.518355 C 220.858756 296.518355 223.27803 322.678888 252.361123 324.8585 C 280.672328 326.981027 283.85831 288.889713 283.85831 288.889713 L 231.768802 291.339182 Z M 231.758441 291.339182 " stroke="#102a45" stroke-width="3" stroke-opacity="1" stroke-miterlimit="4"/><path stroke-linecap="round" transform="matrix(0.754036, 0, 0, 0.752714, 6.808385, -2.838124)" fill-opacity="1" fill="#4b466e" fill-rule="nonzero" stroke-linejoin="round" d="M 218.677783 301.609306 C 218.677783 301.609306 260.841534 317.421871 284.821875 301.609306 C 284.821875 301.609306 304.450632 275.168536 274.160492 264.00062 C 274.160492 264.00062 276.579766 239.199749 251.86898 239.199749 C 227.158194 239.199749 231.281838 263.460906 231.281838 263.460906 C 231.281838 263.460906 198.572425 271.909498 218.677783 301.609306 Z M 218.677783 301.609306 " stroke="#102a45" stroke-width="3" stroke-opacity="1" stroke-miterlimit="4"/><path stroke-linecap="round" transform="matrix(0.238885, -0.713942, 0.715195, 0.238466, -54.962214, 331.404645)" fill-opacity="1" fill="#102a45" fill-rule="nonzero" stroke-linejoin="round" d="M 273.58993 278.901673 C 273.588321 279.273613 273.427554 279.62771 273.11091 279.973793 C 272.792626 280.314961 272.336511 280.62024 271.750771 280.881426 C 271.160108 281.144257 270.477556 281.34493 269.709677 281.486713 C 268.936876 281.630141 268.134535 281.701509 267.302653 281.700817 C 266.465849 281.701769 265.665136 281.630586 264.893952 281.483999 C 264.119486 281.34397 263.440181 281.144847 262.854396 280.881716 C 262.262047 280.615315 261.805881 280.314351 261.489179 279.972267 C 261.172477 279.630182 261.008367 279.2699 261.009976 278.897961 C 261.011585 278.526021 261.172353 278.171924 261.488996 277.825841 C 261.807281 277.484673 262.265036 277.184308 262.850777 276.923121 C 263.441439 276.660291 264.122351 276.454704 264.890229 276.312921 C 265.66303 276.169493 266.465371 276.098125 267.297253 276.098817 C 268.134057 276.097865 268.93477 276.169048 269.705955 276.315635 C 270.48042 276.455664 271.154803 276.656432 271.747152 276.922832 C 272.337859 277.184319 272.794025 277.485283 273.110727 277.827367 C 273.429071 278.174366 273.591539 278.529734 273.58993 278.901673 Z M 273.58993 278.901673 " stroke="#102a45" stroke-width="3" stroke-opacity="1" stroke-miterlimit="4"/><path stroke-linecap="round" transform="matrix(0.715195, -0.238466, 0.238885, 0.713942, -50.603887, 64.612606)" fill-opacity="1" fill="#102a45" fill-rule="nonzero" stroke-linejoin="round" d="M 240.229201 278.901185 C 240.229894 279.733066 240.158526 280.535408 240.015098 281.308208 C 239.873314 282.076087 239.672641 282.75864 239.409811 283.349302 C 239.14698 283.939965 238.843346 284.391157 238.502177 284.709442 C 238.159364 285.032649 237.800354 285.191775 237.430058 285.188462 C 237.058118 285.190071 236.701106 285.032524 236.360666 284.7109 C 236.013667 284.392557 235.712704 283.936391 235.451217 283.345684 C 235.188086 282.759898 234.984049 282.078952 234.842375 281.309409 C 234.702346 280.534943 234.631163 279.73423 234.630471 278.902348 C 234.631423 278.065544 234.702791 277.263203 234.844575 276.495324 C 234.983089 275.720882 235.188675 275.039971 235.449862 274.45423 C 235.712692 273.863568 236.017971 273.407453 236.359139 273.089169 C 236.700308 272.770884 237.059319 272.611758 237.431258 272.610149 C 237.803198 272.60854 238.158566 272.771008 238.500651 273.08771 C 238.846005 273.410976 239.148613 273.86222 239.4101 274.452927 C 239.671587 275.043635 239.875624 275.724581 240.017297 276.494124 C 240.15897 277.263668 240.230153 278.064381 240.229201 278.901185 Z M 240.229201 278.901185 " stroke="#102a45" stroke-width="3" stroke-opacity="1" stroke-miterlimit="4"/><path fill="#d9b9e8" d="M 242.382812 178.882812 C 242.382812 179.175781 242.320312 179.46875 242.191406 179.757812 C 242.066406 180.046875 241.878906 180.328125 241.628906 180.597656 C 241.378906 180.871094 241.070312 181.128906 240.707031 181.375 C 240.34375 181.621094 239.933594 181.847656 239.472656 182.054688 C 239.007812 182.261719 238.507812 182.449219 237.964844 182.613281 C 237.421875 182.777344 236.847656 182.914062 236.246094 183.027344 C 235.640625 183.140625 235.019531 183.226562 234.378906 183.28125 C 233.738281 183.339844 233.089844 183.367188 232.4375 183.367188 C 231.785156 183.367188 231.136719 183.339844 230.5 183.28125 C 229.859375 183.226562 229.234375 183.140625 228.632812 183.027344 C 228.027344 182.914062 227.457031 182.777344 226.914062 182.613281 C 226.371094 182.449219 225.867188 182.261719 225.40625 182.054688 C 224.945312 181.847656 224.53125 181.621094 224.167969 181.375 C 223.804688 181.128906 223.5 180.871094 223.25 180.597656 C 223 180.328125 222.8125 180.046875 222.683594 179.757812 C 222.554688 179.46875 222.492188 179.175781 222.492188 178.882812 C 222.492188 178.585938 222.554688 178.296875 222.683594 178.007812 C 222.8125 177.71875 223 177.4375 223.25 177.164062 C 223.5 176.894531 223.804688 176.632812 224.167969 176.390625 C 224.53125 176.144531 224.945312 175.917969 225.40625 175.710938 C 225.867188 175.5 226.371094 175.316406 226.914062 175.152344 C 227.457031 174.988281 228.027344 174.851562 228.632812 174.738281 C 229.234375 174.625 229.859375 174.539062 230.5 174.480469 C 231.136719 174.425781 231.785156 174.394531 232.4375 174.394531 C 233.089844 174.394531 233.738281 174.425781 234.378906 174.480469 C 235.019531 174.539062 235.640625 174.625 236.246094 174.738281 C 236.847656 174.851562 237.421875 174.988281 237.964844 175.152344 C 238.507812 175.316406 239.007812 175.5 239.472656 175.710938 C 239.933594 175.917969 240.34375 176.144531 240.707031 176.390625 C 241.070312 176.632812 241.378906 176.894531 241.628906 177.164062 C 241.878906 177.4375 242.066406 177.71875 242.191406 178.007812 C 242.320312 178.296875 242.382812 178.585938 242.382812 178.882812 Z M 242.382812 178.882812 " fill-opacity="1" fill-rule="nonzero"/><path fill="#d9b9e8" d="M 166.339844 178.882812 C 166.339844 179.175781 166.277344 179.46875 166.148438 179.757812 C 166.019531 180.046875 165.832031 180.328125 165.582031 180.597656 C 165.332031 180.871094 165.027344 181.128906 164.664062 181.375 C 164.300781 181.621094 163.886719 181.847656 163.425781 182.054688 C 162.964844 182.261719 162.460938 182.449219 161.917969 182.613281 C 161.375 182.777344 160.804688 182.914062 160.199219 183.027344 C 159.597656 183.140625 158.976562 183.226562 158.335938 183.28125 C 157.695312 183.339844 157.046875 183.367188 156.394531 183.367188 C 155.742188 183.367188 155.09375 183.339844 154.453125 183.28125 C 153.8125 183.226562 153.191406 183.140625 152.585938 183.027344 C 151.984375 182.914062 151.410156 182.777344 150.867188 182.613281 C 150.324219 182.449219 149.824219 182.261719 149.359375 182.054688 C 148.898438 181.847656 148.488281 181.621094 148.125 181.375 C 147.761719 181.128906 147.457031 180.871094 147.207031 180.597656 C 146.957031 180.328125 146.765625 180.046875 146.640625 179.757812 C 146.511719 179.46875 146.449219 179.175781 146.449219 178.882812 C 146.449219 178.585938 146.511719 178.296875 146.640625 178.007812 C 146.765625 177.71875 146.957031 177.4375 147.207031 177.164062 C 147.457031 176.894531 147.761719 176.632812 148.125 176.390625 C 148.488281 176.144531 148.898438 175.917969 149.359375 175.710938 C 149.824219 175.5 150.324219 175.316406 150.867188 175.152344 C 151.410156 174.988281 151.984375 174.851562 152.585938 174.738281 C 153.191406 174.625 153.8125 174.539062 154.453125 174.480469 C 155.09375 174.425781 155.742188 174.394531 156.394531 174.394531 C 157.046875 174.394531 157.695312 174.425781 158.335938 174.480469 C 158.976562 174.539062 159.597656 174.625 160.199219 174.738281 C 160.804688 174.851562 161.375 174.988281 161.917969 175.152344 C 162.460938 175.316406 162.964844 175.5 163.425781 175.710938 C 163.886719 175.917969 164.300781 176.144531 164.664062 176.390625 C 165.027344 176.632812 165.332031 176.894531 165.582031 177.164062 C 165.832031 177.4375 166.019531 177.71875 166.148438 178.007812 C 166.277344 178.296875 166.339844 178.585938 166.339844 178.882812 Z M 166.339844 178.882812 " fill-opacity="1" fill-rule="nonzero"/></svg>